<svg width="168" height="40" viewBox="0 0 168 40" fill="none" xmlns="http://www.w3.org/2000/svg">
<path d="M37.8379 24L37.7852 22.6816C37.5977 22.9102 37.4043 23.1182 37.2051 23.3057C37.0059 23.4932 36.792 23.6543 36.5635 23.7891C36.335 23.918 36.0889 24.0176 35.8252 24.0879C35.5674 24.1641 35.2803 24.2021 34.9639 24.2021C34.4365 24.2021 33.9678 24.0967 33.5576 23.8857C33.1475 23.6748 32.8018 23.376 32.5205 22.9893C32.2451 22.5967 32.0342 22.1221 31.8877 21.5654C31.7412 21.0088 31.668 20.3877 31.668 19.7021C31.668 18.8818 31.7822 18.1729 32.0107 17.5752C32.2451 16.9717 32.5674 16.4736 32.9775 16.0811C33.3877 15.6826 33.874 15.3896 34.4365 15.2021C34.999 15.0088 35.6113 14.9121 36.2734 14.9121C36.4961 14.9121 36.7188 14.9268 36.9414 14.9561C37.1699 14.9854 37.3721 15.0234 37.5479 15.0703V11.5811H39.6924V24H37.8379ZM33.918 19.6055C33.918 20.0977 33.9502 20.5195 34.0146 20.8711C34.085 21.2168 34.1846 21.501 34.3135 21.7236C34.4482 21.9463 34.6123 22.1104 34.8057 22.2158C34.999 22.3154 35.2188 22.3652 35.4648 22.3652C35.8281 22.3652 36.1738 22.2188 36.502 21.9258C36.8301 21.6328 37.1787 21.2314 37.5479 20.7217V16.8193C37.3779 16.7549 37.167 16.7021 36.915 16.6611C36.6689 16.6201 36.4199 16.5996 36.168 16.5996C35.8223 16.5996 35.5117 16.6699 35.2363 16.8105C34.9609 16.9512 34.7236 17.1504 34.5244 17.4082C34.3311 17.666 34.1816 17.9824 34.0762 18.3574C33.9707 18.7266 33.918 19.1426 33.918 19.6055ZM49.8965 18.8496C49.8965 18.9961 49.8906 19.1865 49.8789 19.4209C49.873 19.6553 49.8613 19.875 49.8438 20.0801H43.9727C43.9727 20.4727 44.0312 20.8184 44.1484 21.1172C44.2715 21.416 44.4414 21.668 44.6582 21.873C44.8809 22.0723 45.1445 22.2246 45.4492 22.3301C45.7598 22.4355 46.1025 22.4883 46.4775 22.4883C46.9111 22.4883 47.374 22.4561 47.8662 22.3916C48.3643 22.3213 48.8799 22.21 49.4131 22.0576V23.7627C49.1846 23.8271 48.9355 23.8857 48.666 23.9385C48.3965 23.9912 48.1211 24.0381 47.8398 24.0791C47.5586 24.1201 47.2744 24.1494 46.9873 24.167C46.7002 24.1904 46.4219 24.2021 46.1523 24.2021C45.4727 24.2021 44.8633 24.1055 44.3242 23.9121C43.7852 23.7188 43.3281 23.4346 42.9531 23.0596C42.5781 22.6787 42.291 22.21 42.0918 21.6533C41.8926 21.0967 41.793 20.4521 41.793 19.7197C41.793 18.9932 41.8926 18.334 42.0918 17.7422C42.291 17.1445 42.5723 16.6348 42.9355 16.2129C43.2988 15.7852 43.7383 15.457 44.2539 15.2285C44.7754 14.9941 45.3555 14.877 45.9941 14.877C46.627 14.877 47.1865 14.9766 47.6729 15.1758C48.1592 15.3691 48.5664 15.6416 48.8945 15.9932C49.2227 16.3447 49.4717 16.7637 49.6416 17.25C49.8115 17.7363 49.8965 18.2695 49.8965 18.8496ZM47.7168 18.542C47.7227 18.1904 47.6787 17.8857 47.585 17.6279C47.4912 17.3643 47.3623 17.1475 47.1982 16.9775C47.04 16.8076 46.8525 16.6816 46.6357 16.5996C46.4248 16.5176 46.1963 16.4766 45.9502 16.4766C45.4111 16.4766 44.9688 16.6582 44.623 17.0215C44.2773 17.3789 44.0723 17.8857 44.0078 18.542H47.7168ZM63.9098 24L63.857 22.8311C63.6695 23.0303 63.4732 23.2148 63.2682 23.3848C63.0631 23.5488 62.8375 23.6924 62.5914 23.8154C62.3453 23.9385 62.0758 24.0322 61.7828 24.0967C61.4957 24.167 61.1793 24.2021 60.8336 24.2021C60.3766 24.2021 59.9752 24.1348 59.6295 24C59.2838 23.8652 58.9937 23.6777 58.7594 23.4375C58.525 23.1973 58.3463 22.9072 58.2232 22.5674C58.1061 22.2275 58.0475 21.8525 58.0475 21.4424C58.0475 21.0205 58.1354 20.6309 58.3111 20.2734C58.4928 19.916 58.7652 19.6084 59.1285 19.3506C59.4977 19.0928 59.9547 18.8906 60.4996 18.7441C61.0504 18.5977 61.6949 18.5244 62.4332 18.5244H63.6021V17.9883C63.6021 17.7598 63.5699 17.5547 63.5055 17.373C63.441 17.1855 63.3355 17.0273 63.1891 16.8984C63.0484 16.7695 62.8639 16.6699 62.6354 16.5996C62.4068 16.5293 62.1256 16.4941 61.7916 16.4941C61.2643 16.4941 60.7428 16.5557 60.2271 16.6787C59.7174 16.7959 59.2223 16.9629 58.7418 17.1797V15.4658C59.1695 15.2959 59.6617 15.1553 60.2184 15.0439C60.7809 14.9326 61.3639 14.877 61.9674 14.877C62.6295 14.877 63.1979 14.9414 63.6725 15.0703C64.1471 15.1934 64.5367 15.3809 64.8414 15.6328C65.152 15.8848 65.3805 16.2012 65.527 16.582C65.6734 16.957 65.7467 17.3965 65.7467 17.9004V24H63.9098ZM63.6021 20.0537H62.2926C61.9293 20.0537 61.6217 20.0889 61.3697 20.1592C61.1178 20.2295 60.9127 20.3262 60.7545 20.4492C60.5963 20.5723 60.4791 20.7158 60.4029 20.8799C60.3326 21.0381 60.2975 21.208 60.2975 21.3896C60.2975 21.7529 60.4146 22.0312 60.649 22.2246C60.8834 22.4121 61.2027 22.5059 61.607 22.5059C61.9059 22.5059 62.2164 22.3975 62.5387 22.1807C62.8609 21.9639 63.2154 21.6533 63.6021 21.249V20.0537ZM86.1373 19.377C86.1373 20.1973 86.0201 20.9062 85.7857 21.5039C85.5572 22.1016 85.235 22.5996 84.8189 22.998C84.4088 23.3906 83.9225 23.6836 83.36 23.877C82.7975 24.0645 82.1852 24.1582 81.523 24.1582C81.3004 24.1582 81.0777 24.1436 80.8551 24.1143C80.6324 24.085 80.4303 24.0469 80.2486 24V27.4893H78.1041V15.0703H79.9586L80.0113 16.3887C80.193 16.1602 80.3805 15.9521 80.5738 15.7646C80.773 15.5771 80.9869 15.4189 81.2154 15.29C81.4439 15.1553 81.69 15.0527 81.9537 14.9824C82.2174 14.9121 82.5133 14.877 82.8414 14.877C83.3688 14.877 83.8375 14.9824 84.2477 15.1934C84.6578 15.4043 85.0006 15.7061 85.276 16.0986C85.5572 16.4854 85.7711 16.957 85.9176 17.5137C86.0641 18.0645 86.1373 18.6855 86.1373 19.377ZM83.8873 19.4648C83.8873 18.9727 83.8521 18.5537 83.7818 18.208C83.7115 17.8623 83.609 17.5781 83.4742 17.3555C83.3453 17.1328 83.1842 16.9717 82.9908 16.8721C82.8033 16.7666 82.5865 16.7139 82.3404 16.7139C81.9771 16.7139 81.6285 16.8604 81.2945 17.1533C80.9664 17.4463 80.6178 17.8447 80.2486 18.3486V22.251C80.4186 22.3154 80.6266 22.3682 80.8727 22.4092C81.1246 22.4502 81.3795 22.4707 81.6373 22.4707C81.9771 22.4707 82.2848 22.4004 82.5602 22.2598C82.8414 22.1191 83.0787 21.9199 83.2721 21.6621C83.4713 21.4043 83.6236 21.0908 83.7291 20.7217C83.8346 20.3467 83.8873 19.9277 83.8873 19.4648ZM96.0426 19.4648C96.0426 20.168 95.943 20.8125 95.7438 21.3984C95.5445 21.9785 95.2574 22.4766 94.8824 22.8926C94.5074 23.3086 94.0475 23.6309 93.5025 23.8594C92.9576 24.0879 92.3365 24.2021 91.6393 24.2021C90.9771 24.2021 90.3854 24.1055 89.8639 23.9121C89.3424 23.7188 88.9 23.4316 88.5367 23.0508C88.1734 22.6641 87.8951 22.1836 87.7018 21.6094C87.5084 21.0293 87.4117 20.3555 87.4117 19.5879C87.4117 18.8789 87.5113 18.2344 87.7105 17.6543C87.9156 17.0742 88.2057 16.5791 88.5807 16.1689C88.9615 15.7588 89.4244 15.4424 89.9693 15.2197C90.5143 14.9912 91.1295 14.877 91.815 14.877C92.483 14.877 93.0777 14.9766 93.5992 15.1758C94.1207 15.3691 94.5631 15.6592 94.9264 16.0459C95.2896 16.4326 95.565 16.9131 95.7525 17.4873C95.9459 18.0557 96.0426 18.7148 96.0426 19.4648ZM93.8102 19.5176C93.8102 18.5918 93.6344 17.8975 93.2828 17.4346C92.9371 16.9658 92.4244 16.7314 91.7447 16.7314C91.3697 16.7314 91.0504 16.8047 90.7867 16.9512C90.523 17.0977 90.3063 17.2998 90.1363 17.5576C89.9664 17.8096 89.8404 18.1055 89.7584 18.4453C89.6822 18.7852 89.6441 19.1484 89.6441 19.5352C89.6441 20.4668 89.8316 21.1699 90.2066 21.6445C90.5816 22.1133 91.0943 22.3477 91.7447 22.3477C92.1021 22.3477 92.4127 22.2773 92.6764 22.1367C92.94 21.9902 93.1539 21.791 93.318 21.5391C93.482 21.2812 93.6051 20.9795 93.6871 20.6338C93.7691 20.2881 93.8102 19.916 93.8102 19.5176ZM105.939 19.4648C105.939 20.168 105.839 20.8125 105.64 21.3984C105.441 21.9785 105.154 22.4766 104.779 22.8926C104.404 23.3086 103.944 23.6309 103.399 23.8594C102.854 24.0879 102.233 24.2021 101.536 24.2021C100.874 24.2021 100.282 24.1055 99.7604 23.9121C99.2389 23.7188 98.7965 23.4316 98.4332 23.0508C98.0699 22.6641 97.7916 22.1836 97.5982 21.6094C97.4049 21.0293 97.3082 20.3555 97.3082 19.5879C97.3082 18.8789 97.4078 18.2344 97.607 17.6543C97.8121 17.0742 98.1021 16.5791 98.4771 16.1689C98.858 15.7588 99.3209 15.4424 99.8658 15.2197C100.411 14.9912 101.026 14.877 101.712 14.877C102.379 14.877 102.974 14.9766 103.496 15.1758C104.017 15.3691 104.46 15.6592 104.823 16.0459C105.186 16.4326 105.462 16.9131 105.649 17.4873C105.842 18.0557 105.939 18.7148 105.939 19.4648ZM103.707 19.5176C103.707 18.5918 103.531 17.8975 103.179 17.4346C102.834 16.9658 102.321 16.7314 101.641 16.7314C101.266 16.7314 100.947 16.8047 100.683 16.9512C100.42 17.0977 100.203 17.2998 100.033 17.5576C99.8629 17.8096 99.7369 18.1055 99.6549 18.4453C99.5787 18.7852 99.5406 19.1484 99.5406 19.5352C99.5406 20.4668 99.7281 21.1699 100.103 21.6445C100.478 22.1133 100.991 22.3477 101.641 22.3477C101.999 22.3477 102.309 22.2773 102.573 22.1367C102.837 21.9902 103.05 21.791 103.214 21.5391C103.379 21.2812 103.502 20.9795 103.584 20.6338C103.666 20.2881 103.707 19.916 103.707 19.5176ZM113.322 24L110.026 19.5352V24H107.881V11.5811H110.026V18.8496L113.146 15.0703H115.827L112.206 19.1396L116.126 24H113.322ZM123.289 24L123.236 22.8311C123.048 23.0303 122.852 23.2148 122.647 23.3848C122.442 23.5488 122.216 23.6924 121.97 23.8154C121.724 23.9385 121.455 24.0322 121.162 24.0967C120.875 24.167 120.558 24.2021 120.213 24.2021C119.755 24.2021 119.354 24.1348 119.008 24C118.663 23.8652 118.373 23.6777 118.138 23.4375C117.904 23.1973 117.725 22.9072 117.602 22.5674C117.485 22.2275 117.426 21.8525 117.426 21.4424C117.426 21.0205 117.514 20.6309 117.69 20.2734C117.872 19.916 118.144 19.6084 118.507 19.3506C118.877 19.0928 119.334 18.8906 119.879 18.7441C120.429 18.5977 121.074 18.5244 121.812 18.5244H122.981V17.9883C122.981 17.7598 122.949 17.5547 122.884 17.373C122.82 17.1855 122.714 17.0273 122.568 16.8984C122.427 16.7695 122.243 16.6699 122.014 16.5996C121.786 16.5293 121.504 16.4941 121.171 16.4941C120.643 16.4941 120.122 16.5557 119.606 16.6787C119.096 16.7959 118.601 16.9629 118.121 17.1797V15.4658C118.548 15.2959 119.041 15.1553 119.597 15.0439C120.16 14.9326 120.743 14.877 121.346 14.877C122.008 14.877 122.577 14.9414 123.051 15.0703C123.526 15.1934 123.916 15.3809 124.22 15.6328C124.531 15.8848 124.759 16.2012 124.906 16.582C125.052 16.957 125.126 17.3965 125.126 17.9004V24H123.289ZM122.981 20.0537H121.671C121.308 20.0537 121.001 20.0889 120.749 20.1592C120.497 20.2295 120.292 20.3262 120.133 20.4492C119.975 20.5723 119.858 20.7158 119.782 20.8799C119.712 21.0381 119.676 21.208 119.676 21.3896C119.676 21.7529 119.794 22.0312 120.028 22.2246C120.262 22.4121 120.582 22.5059 120.986 22.5059C121.285 22.5059 121.595 22.3975 121.918 22.1807C122.24 21.9639 122.594 21.6533 122.981 21.249V20.0537ZM130.469 13.251H127.947V11.5811H132.667V22.3301H135.242V24H127.639V22.3301H130.469V13.251ZM143.082 24L143.029 22.8311C142.841 23.0303 142.645 23.2148 142.44 23.3848C142.235 23.5488 142.009 23.6924 141.763 23.8154C141.517 23.9385 141.248 24.0322 140.955 24.0967C140.668 24.167 140.351 24.2021 140.005 24.2021C139.548 24.2021 139.147 24.1348 138.801 24C138.456 23.8652 138.166 23.6777 137.931 23.4375C137.697 23.1973 137.518 22.9072 137.395 22.5674C137.278 22.2275 137.219 21.8525 137.219 21.4424C137.219 21.0205 137.307 20.6309 137.483 20.2734C137.665 19.916 137.937 19.6084 138.3 19.3506C138.67 19.0928 139.127 18.8906 139.671 18.7441C140.222 18.5977 140.867 18.5244 141.605 18.5244H142.774V17.9883C142.774 17.7598 142.742 17.5547 142.677 17.373C142.613 17.1855 142.507 17.0273 142.361 16.8984C142.22 16.7695 142.036 16.6699 141.807 16.5996C141.579 16.5293 141.297 16.4941 140.963 16.4941C140.436 16.4941 139.915 16.5557 139.399 16.6787C138.889 16.7959 138.394 16.9629 137.914 17.1797V15.4658C138.341 15.2959 138.834 15.1553 139.39 15.0439C139.953 14.9326 140.536 14.877 141.139 14.877C141.801 14.877 142.37 14.9414 142.844 15.0703C143.319 15.1934 143.709 15.3809 144.013 15.6328C144.324 15.8848 144.552 16.2012 144.699 16.582C144.845 16.957 144.919 17.3965 144.919 17.9004V24H143.082ZM142.774 20.0537H141.464C141.101 20.0537 140.794 20.0889 140.542 20.1592C140.29 20.2295 140.085 20.3262 139.926 20.4492C139.768 20.5723 139.651 20.7158 139.575 20.8799C139.504 21.0381 139.469 21.208 139.469 21.3896C139.469 21.7529 139.587 22.0312 139.821 22.2246C140.055 22.4121 140.375 22.5059 140.779 22.5059C141.078 22.5059 141.388 22.3975 141.711 22.1807C142.033 21.9639 142.387 21.6533 142.774 21.249V20.0537ZM153.681 24V17.918C153.681 17.6953 153.675 17.502 153.664 17.3379C153.652 17.168 153.629 17.0273 153.593 16.916C153.558 16.8047 153.505 16.7227 153.435 16.6699C153.371 16.6113 153.28 16.582 153.163 16.582C152.981 16.582 152.802 16.7051 152.627 16.9512C152.451 17.1973 152.252 17.6162 152.029 18.208V24H150.192V17.918C150.192 17.6953 150.186 17.502 150.174 17.3379C150.163 17.168 150.139 17.0273 150.104 16.916C150.069 16.8047 150.016 16.7227 149.946 16.6699C149.876 16.6113 149.782 16.582 149.665 16.582C149.512 16.582 149.342 16.7051 149.155 16.9512C148.967 17.1973 148.759 17.6162 148.531 18.208V24H146.676V15.0703H148.267L148.302 16.3711C148.431 16.1074 148.56 15.8818 148.689 15.6943C148.818 15.5068 148.956 15.3545 149.102 15.2373C149.249 15.1143 149.404 15.0264 149.568 14.9736C149.738 14.9209 149.928 14.8945 150.139 14.8945C150.637 14.8945 151.015 15.0264 151.273 15.29C151.537 15.5479 151.686 15.9082 151.721 16.3711C151.862 16.1074 152 15.8818 152.134 15.6943C152.275 15.5068 152.419 15.3545 152.565 15.2373C152.717 15.1143 152.879 15.0264 153.048 14.9736C153.224 14.9209 153.418 14.8945 153.629 14.8945C154.279 14.8945 154.759 15.123 155.07 15.5801C155.38 16.0312 155.536 16.7021 155.536 17.5928V24H153.681ZM158.014 25.6963C158.366 25.708 158.694 25.6875 158.999 25.6348C159.303 25.582 159.567 25.4971 159.79 25.3799C160.018 25.2686 160.197 25.125 160.326 24.9492C160.455 24.7734 160.519 24.5654 160.519 24.3252C160.519 24.1553 160.493 24.0117 160.44 23.8945C160.393 23.7715 160.332 23.6631 160.255 23.5693C160.179 23.4697 160.097 23.376 160.009 23.2881C159.927 23.1943 159.848 23.0977 159.772 22.998C159.696 22.8926 159.631 22.7754 159.579 22.6465C159.532 22.5117 159.508 22.3506 159.508 22.1631C159.508 21.9814 159.541 21.8057 159.605 21.6357C159.67 21.46 159.763 21.3047 159.886 21.1699C160.009 21.0352 160.159 20.9268 160.335 20.8447C160.516 20.7627 160.721 20.7217 160.95 20.7217C161.237 20.7217 161.495 20.7891 161.723 20.9238C161.952 21.0527 162.145 21.2314 162.303 21.46C162.462 21.6826 162.582 21.9404 162.664 22.2334C162.746 22.5205 162.787 22.8223 162.787 23.1387C162.787 23.6836 162.687 24.1963 162.488 24.6768C162.289 25.1572 161.99 25.5762 161.591 25.9336C161.199 26.291 160.704 26.5723 160.106 26.7773C159.508 26.9883 158.811 27.0938 158.014 27.0938V25.6963ZM161.003 14.9824C161.225 14.9824 161.433 15.0234 161.627 15.1055C161.82 15.1875 161.987 15.3018 162.128 15.4482C162.268 15.5889 162.379 15.7559 162.462 15.9492C162.544 16.1426 162.585 16.3477 162.585 16.5645C162.585 16.7871 162.544 16.9951 162.462 17.1885C162.379 17.3818 162.268 17.5488 162.128 17.6895C161.987 17.8301 161.82 17.9414 161.627 18.0234C161.433 18.1055 161.225 18.1465 161.003 18.1465C160.78 18.1465 160.572 18.1055 160.379 18.0234C160.191 17.9414 160.024 17.8301 159.878 17.6895C159.737 17.5488 159.626 17.3818 159.544 17.1885C159.462 16.9951 159.421 16.7871 159.421 16.5645C159.421 16.3477 159.462 16.1426 159.544 15.9492C159.626 15.7559 159.737 15.5889 159.878 15.4482C160.024 15.3018 160.191 15.1875 160.379 15.1055C160.572 15.0234 160.78 14.9824 161.003 14.9824Z" fill="#0F1A26"/>
<g clip-path="url(#clip0)">
<path d="M18.4818 12.2735C18.6273 12.1402 18.7303 11.9671 18.7779 11.7761C18.8254 11.5851 18.8154 11.3848 18.7489 11.2005C18.6824 11.0162 18.5626 10.8562 18.4045 10.7408C18.2465 10.6253 18.0573 10.5596 17.8609 10.5519C17.6646 10.5442 17.4699 10.5949 17.3014 10.6976C17.133 10.8003 16.9984 10.9504 16.9147 11.1288C16.831 11.3072 16.802 11.506 16.8312 11.7C16.8605 11.894 16.9467 12.0745 17.079 12.2186C17.2563 12.4117 17.5036 12.5259 17.7666 12.5362C18.0296 12.5465 18.2868 12.452 18.4818 12.2735Z" fill="#0F1A26"/>
<path d="M14.4456 17.65C14.2496 17.6376 14.0538 17.6837 13.883 17.7823C13.7123 17.8809 13.5742 18.0277 13.4862 18.204C13.3983 18.3803 13.3644 18.5783 13.3889 18.773C13.4134 18.9676 13.4952 19.1501 13.6239 19.2974C13.7526 19.4448 13.9225 19.5503 14.112 19.6006C14.3015 19.651 14.5022 19.6439 14.6887 19.5803C14.8751 19.5167 15.039 19.3995 15.1595 19.2434C15.2801 19.0873 15.3519 18.8993 15.3659 18.7033C15.3846 18.4406 15.2981 18.182 15.1256 17.9845C14.953 17.7869 14.7084 17.6666 14.4456 17.65Z" fill="#0F1A26"/>
<path d="M15.9156 13.7562C15.74 13.6696 15.5421 13.6372 15.3471 13.6631C15.1521 13.689 14.9687 13.7721 14.82 13.9018C14.6714 14.0315 14.5642 14.202 14.512 14.3918C14.4599 14.5815 14.465 14.782 14.5269 14.9679C14.5888 15.1537 14.7046 15.3166 14.8597 15.4359C15.0148 15.5553 15.2022 15.6256 15.3982 15.6382C15.5942 15.6507 15.79 15.6049 15.9609 15.5065C16.1317 15.408 16.27 15.2614 16.3581 15.0851C16.4167 14.9681 16.4518 14.8409 16.4612 14.7108C16.4707 14.5806 16.4544 14.4501 16.4133 14.3267C16.3722 14.2033 16.3071 14.0894 16.2217 13.9915C16.1363 13.8936 16.0323 13.8136 15.9156 13.7562Z" fill="#0F1A26"/>
<path d="M17.8258 25.7921C17.6938 25.6478 17.5215 25.5463 17.3308 25.5003C17.1402 25.4543 16.9397 25.4659 16.7547 25.5337C16.5697 25.6016 16.4085 25.7225 16.2915 25.8813C16.1746 26.0401 16.1071 26.2295 16.0975 26.4258C16.088 26.622 16.1369 26.8161 16.2381 26.9836C16.3392 27.1512 16.488 27.2845 16.6657 27.3669C16.8435 27.4493 17.0421 27.4769 17.2364 27.4463C17.4308 27.4158 17.6122 27.3284 17.7578 27.1952C17.9529 27.0166 18.0697 26.7684 18.0825 26.5053C18.0952 26.2422 18.0029 25.9857 17.8258 25.7921Z" fill="#0F1A26"/>
<path d="M15.8344 22.4095C15.7722 22.2237 15.6561 22.061 15.5009 21.942C15.3456 21.8229 15.158 21.7529 14.962 21.7406C14.766 21.7284 14.5702 21.7746 14.3995 21.8734C14.2288 21.9721 14.0908 22.119 14.003 22.2954C13.9152 22.4718 13.8815 22.6698 13.9061 22.8644C13.9308 23.059 14.0127 23.2415 14.1415 23.3887C14.2703 23.5359 14.4403 23.6413 14.6298 23.6915C14.8194 23.7417 15.0201 23.7345 15.2065 23.6708C15.4561 23.5848 15.6623 23.4038 15.78 23.1675C15.8976 22.9311 15.9172 22.6585 15.8344 22.4095Z" fill="#0F1A26"/>
<path d="M20.181 9.85098C20.2518 10.0335 20.3754 10.1906 20.5361 10.3022C20.6969 10.4138 20.8875 10.475 21.0839 10.4781C21.2804 10.4812 21.4738 10.426 21.6398 10.3195C21.8058 10.213 21.9368 10.0599 22.0164 9.87972C22.096 9.69951 22.1204 9.50022 22.0868 9.30706C22.0531 9.11389 21.9628 8.93551 21.8273 8.79448C21.6917 8.65345 21.517 8.5561 21.3253 8.51474C21.1335 8.47337 20.9333 8.48986 20.75 8.5621C20.6283 8.61009 20.517 8.68149 20.4225 8.77224C20.328 8.86298 20.2521 8.9713 20.1993 9.09099C20.1464 9.21067 20.1176 9.3394 20.1145 9.4698C20.1114 9.6002 20.134 9.72973 20.181 9.85098Z" fill="#0F1A26"/>
<path d="M20.9426 28.041C20.7637 27.961 20.5648 27.936 20.3708 27.9692C20.1768 28.0023 19.9966 28.0921 19.8528 28.2272C19.709 28.3623 19.6082 28.5366 19.5631 28.7281C19.518 28.9196 19.5307 29.1197 19.5995 29.3031C19.6682 29.4865 19.7901 29.6449 19.9495 29.7583C20.109 29.8717 20.2989 29.9351 20.4953 29.9404C20.6917 29.9456 20.8858 29.8925 21.0529 29.7878C21.2201 29.6831 21.3528 29.5315 21.4343 29.3522C21.4885 29.2331 21.5188 29.1047 21.5234 28.9744C21.528 28.844 21.5068 28.7143 21.4612 28.5925C21.4155 28.4707 21.3462 28.3594 21.2572 28.2647C21.1682 28.1701 21.0613 28.0941 20.9426 28.041Z" fill="#0F1A26"/>
<path d="M26.0132 13.1136C26.128 13.1344 26.2466 13.1206 26.3542 13.0741C26.4617 13.0275 26.5532 12.9503 26.6173 12.8521C26.6813 12.7539 26.7149 12.6392 26.7139 12.5225C26.7128 12.4058 26.6772 12.2923 26.6114 12.1964C26.5457 12.1004 26.4528 12.0264 26.3445 11.9835C26.2362 11.9407 26.1173 11.931 26.003 11.9557C25.8886 11.9804 25.7838 12.0384 25.7019 12.1223C25.62 12.2062 25.5646 12.3123 25.5428 12.4271C25.5283 12.5035 25.529 12.5818 25.5448 12.6576C25.5606 12.7334 25.5912 12.8052 25.6349 12.8689C25.6786 12.9327 25.7345 12.9871 25.7994 13.0291C25.8643 13.0711 25.937 13.0998 26.0132 13.1136Z" fill="#0F1A26"/>
<path d="M28.4646 15.9501C27.8211 15.2469 26.9818 14.7519 26.0528 14.5277C25.1237 14.3036 24.1467 14.3603 23.2453 14.6907C22.3439 15.0211 21.5585 15.6104 20.9885 16.3841C20.4186 17.1577 20.0896 18.081 20.0432 19.0371C19.9967 19.9932 20.235 20.9392 20.7278 21.7555C21.2206 22.5718 21.9458 23.2217 22.8117 23.623C23.6776 24.0243 24.6453 24.159 25.5924 24.0101C26.5396 23.8612 27.4236 23.4353 28.1327 22.7863C28.6036 22.3555 28.9857 21.8369 29.2573 21.2602C29.5288 20.6835 29.6844 20.0599 29.7152 19.4251C29.746 18.7902 29.6514 18.1566 29.4369 17.5604C29.2223 16.9642 28.8919 16.417 28.4646 15.9501ZM22.4791 21.4278C22.0483 20.9571 21.7679 20.368 21.6735 19.7352C21.579 19.1024 21.6747 18.4542 21.9484 17.8726C22.2222 17.291 22.6617 16.8022 23.2114 16.468C23.7611 16.1337 24.3963 15.969 25.0367 15.9947C25.677 16.0204 26.2938 16.2353 26.8089 16.6123C27.3241 16.9893 27.7145 17.5114 27.9308 18.1127C28.1472 18.7139 28.1797 19.3672 28.0242 19.99C27.8688 20.6128 27.5324 21.1771 27.0576 21.6116C26.7424 21.9 26.3739 22.1241 25.9732 22.271C25.5725 22.4179 25.1475 22.4847 24.7223 22.4676C24.2972 22.4506 23.8803 22.35 23.4954 22.1716C23.1105 21.9931 22.7652 21.7404 22.4791 21.4278Z" fill="#0F1A26"/>
<path d="M26.0692 18.1424C25.8557 17.9091 25.5772 17.7449 25.269 17.6705C24.9608 17.5962 24.6367 17.615 24.3376 17.7246C24.0386 17.8343 23.778 18.0298 23.589 18.2865C23.3999 18.5432 23.2907 18.8495 23.2753 19.1667C23.26 19.4838 23.339 19.7977 23.5025 20.0685C23.666 20.3393 23.9066 20.5549 24.1939 20.688C24.4811 20.8212 24.8022 20.8659 25.1164 20.8165C25.4306 20.767 25.7239 20.6258 25.9592 20.4105C26.2746 20.1218 26.4635 19.7206 26.4841 19.2953C26.5047 18.8699 26.3555 18.4552 26.0692 18.1424Z" fill="#0F1A26"/>
<path d="M23.695 25.3882C23.5802 25.3675 23.4615 25.3813 23.354 25.4279C23.2465 25.4746 23.155 25.5519 23.091 25.6502C23.0271 25.7484 22.9935 25.8632 22.9947 25.9799C22.9958 26.0966 23.0316 26.2101 23.0975 26.306C23.1633 26.4019 23.2563 26.4759 23.3647 26.5186C23.4731 26.5613 23.592 26.5708 23.7064 26.546C23.8207 26.5211 23.9254 26.463 24.0073 26.3789C24.0891 26.2949 24.1443 26.1887 24.166 26.0738C24.1804 25.9975 24.1797 25.9192 24.1639 25.8434C24.1481 25.7676 24.1174 25.6958 24.0736 25.6322C24.0299 25.5685 23.9739 25.5141 23.909 25.4723C23.844 25.4304 23.7713 25.4018 23.695 25.3882Z" fill="#0F1A26"/>
<path d="M26.3859 25.9169C26.3699 25.8013 26.3198 25.6934 26.2421 25.6067C26.1644 25.5201 26.0625 25.4586 25.9493 25.4302C25.8362 25.4017 25.7168 25.4075 25.6064 25.4468C25.4959 25.486 25.3993 25.5571 25.3288 25.6509C25.2584 25.7447 25.2171 25.8571 25.2103 25.9738C25.2036 26.0905 25.2316 26.2062 25.2908 26.3065C25.35 26.4067 25.4378 26.4869 25.5431 26.5369C25.6484 26.5869 25.7664 26.6044 25.8822 26.5873C26.0374 26.5644 26.1776 26.4809 26.2721 26.3552C26.3665 26.2294 26.4075 26.0718 26.3859 25.9169Z" fill="#0F1A26"/>
<path d="M21.7877 24.7079C21.6859 24.6514 21.5694 24.6265 21.4529 24.6363C21.3364 24.6461 21.2252 24.6902 21.1332 24.763C21.0412 24.8358 20.9727 24.934 20.9363 25.0453C20.8999 25.1565 20.8972 25.2758 20.9286 25.388C20.96 25.5002 21.0241 25.6002 21.1127 25.6756C21.2014 25.7509 21.3106 25.7981 21.4266 25.8112C21.5426 25.8243 21.6601 25.8026 21.7644 25.7491C21.8686 25.6955 21.9549 25.6124 22.0123 25.5102C22.0504 25.4423 22.0749 25.3677 22.0843 25.2907C22.0936 25.2136 22.0877 25.1356 22.0669 25.0611C22.046 24.9866 22.0106 24.917 21.9627 24.8564C21.9148 24.7958 21.8554 24.7453 21.7877 24.7079Z" fill="#0F1A26"/>
<path d="M16.7342 10.2059C18.3562 8.71809 20.3457 7.69099 22.4936 7.23247L18.695 3.08178C18.3176 3.04087 17.9351 3.08973 17.5787 3.22439C17.2223 3.35905 16.902 3.5757 16.6441 3.85668C16.3862 4.13765 16.1978 4.475 16.0944 4.84122C15.991 5.20744 15.9754 5.59218 16.049 5.96406C15.5813 5.65868 15.0203 5.52663 14.4626 5.59062C13.9049 5.65461 13.3853 5.91065 12.9932 6.31468C12.6011 6.71872 12.361 7.24549 12.3143 7.80438C12.2676 8.36326 12.4171 8.91931 12.7372 9.37687C12.1878 9.14945 11.5719 9.13418 11.0083 9.334C10.4448 9.53383 9.9735 9.93457 9.68554 10.4589C9.39757 10.9832 9.31331 11.5939 9.44902 12.1731C9.58472 12.7523 9.93078 13.2589 10.4204 13.5952C10.4009 13.6442 10.3815 13.6936 10.3625 13.7431C9.76065 13.6683 9.15079 13.8232 8.65462 14.177C8.15844 14.5307 7.81242 15.0573 7.68561 15.6517C7.55879 16.246 7.66049 16.8644 7.97042 17.3835C8.28036 17.9026 8.77574 18.2841 9.35772 18.4521C9.34931 18.6019 9.34229 18.7514 9.3382 18.9012C8.7446 19.0301 8.21944 19.3772 7.86725 19.8734C7.51507 20.3696 7.36168 20.9786 7.43761 21.5792C7.51354 22.1797 7.81323 22.7278 8.27702 23.1142C8.74082 23.5007 9.33472 23.6973 9.94051 23.6649C9.95434 23.7125 9.96749 23.7603 9.98156 23.8076C9.48769 24.0981 9.11149 24.5533 8.91986 25.0923C8.72824 25.6314 8.73363 26.2192 8.93507 26.7514C9.13651 27.2835 9.52094 27.7254 10.02 27.9984C10.519 28.2715 11.1002 28.3579 11.6603 28.2424C11.351 28.7124 11.2143 29.2741 11.2737 29.8308C11.3332 30.3875 11.5851 30.9045 11.9861 31.2929C12.3871 31.6813 12.9122 31.9168 13.471 31.9588C14.0299 32.001 14.5876 31.847 15.0483 31.5236C14.8905 31.898 14.8295 32.3054 14.8706 32.708C14.9118 33.1106 15.054 33.4955 15.284 33.8272C15.5139 34.1588 15.8243 34.4265 16.1864 34.6055C16.5486 34.7845 16.9508 34.8691 17.3559 34.8514L21.5557 31.0079C19.377 30.397 17.4168 29.1901 15.895 27.5227C11.343 22.5487 11.7191 14.7955 16.7342 10.2059ZM17.83 4.42084C18.0648 4.30754 18.3272 4.26604 18.5843 4.30159C18.8414 4.33713 19.0815 4.44813 19.2743 4.62055C19.4671 4.79297 19.6039 5.01907 19.6675 5.27026C19.7311 5.52146 19.7185 5.78647 19.6314 6.03181C19.5444 6.27714 19.3867 6.49178 19.1783 6.64858C18.9699 6.80539 18.7202 6.89733 18.4607 6.91278C18.2012 6.92823 17.9436 6.86649 17.7205 6.73537C17.4973 6.60425 17.3186 6.40964 17.207 6.17614C17.1328 6.021 17.09 5.8525 17.0811 5.68027C17.0722 5.50804 17.0974 5.33547 17.1553 5.17243C17.2132 5.0094 17.3026 4.85909 17.4183 4.73013C17.5341 4.60116 17.674 4.49606 17.83 4.42084ZM13.8287 7.13517C14.0211 6.95906 14.261 6.84349 14.5181 6.80307C14.7751 6.76265 15.0377 6.79921 15.2727 6.90811C15.5077 7.01702 15.7045 7.19338 15.8382 7.4149C15.972 7.63642 16.0366 7.89314 16.024 8.15261C16.0115 8.41208 15.9222 8.66263 15.7675 8.87259C15.6128 9.08255 15.3997 9.24248 15.1551 9.33217C14.9105 9.42185 14.6453 9.43725 14.3932 9.37643C14.1411 9.31561 13.9133 9.18129 13.7387 8.99046C13.5045 8.73457 13.3824 8.39535 13.3993 8.04741C13.4162 7.69948 13.5706 7.37134 13.8287 7.13517ZM11.1826 12.6124C10.9603 12.4798 10.783 12.2841 10.6729 12.0499C10.5629 11.8157 10.5251 11.5535 10.5643 11.2966C10.6035 11.0397 10.718 10.7995 10.8932 10.6064C11.0685 10.4133 11.2967 10.2761 11.549 10.2119C11.8012 10.1478 12.0662 10.1597 12.3104 10.2461C12.5547 10.3325 12.7672 10.4895 12.9211 10.6973C13.075 10.9052 13.1634 11.1545 13.1751 11.4137C13.1868 11.6729 13.1213 11.9304 12.9869 12.1536C12.8065 12.4531 12.5151 12.6696 12.1767 12.7556C11.8383 12.8417 11.4807 12.7902 11.1826 12.6124ZM9.7387 17.6561C9.48406 17.6067 9.25042 17.4829 9.06733 17.3002C8.88423 17.1176 8.7599 16.8843 8.71007 16.63C8.66023 16.3756 8.68712 16.1116 8.78733 15.8712C8.88755 15.6309 9.05659 15.425 9.27308 15.2797C9.48957 15.1344 9.74378 15.0561 10.0036 15.0548C10.2634 15.0534 10.5171 15.1291 10.7326 15.2723C10.9482 15.4154 11.1159 15.6195 11.2145 15.8589C11.3131 16.0982 11.3383 16.362 11.2868 16.6168C11.2526 16.7861 11.1854 16.9472 11.0891 17.091C10.9928 17.2349 10.8692 17.3586 10.7255 17.4551C10.5817 17.5516 10.4206 17.619 10.2513 17.6535C10.082 17.6879 9.90778 17.6888 9.7387 17.6561ZM10.0584 22.782C9.80107 22.82 9.53889 22.7811 9.30498 22.6701C9.07108 22.5591 8.87595 22.381 8.74427 22.1583C8.61259 21.9356 8.55028 21.6784 8.56521 21.4191C8.58014 21.1598 8.67164 20.9101 8.82815 20.7016C8.98465 20.4931 9.19914 20.3351 9.44447 20.2476C9.68981 20.1602 9.95498 20.1472 10.2064 20.2102C10.4579 20.2733 10.6844 20.4096 10.8573 20.602C11.0301 20.7943 11.1416 21.0341 11.1776 21.2908C11.2015 21.4614 11.1915 21.6352 11.1482 21.8025C11.1049 21.9697 11.0292 22.1271 10.9252 22.2656C10.8213 22.404 10.6912 22.5209 10.5425 22.6095C10.3938 22.6981 10.2292 22.7567 10.0584 22.782ZM11.7667 27.0705C11.532 27.1838 11.2695 27.2253 11.0125 27.1897C10.7554 27.1542 10.5153 27.0432 10.3225 26.8707C10.1297 26.6983 9.99287 26.4722 9.9293 26.221C9.86573 25.9698 9.87828 25.7048 9.96535 25.4595C10.0524 25.2142 10.2101 24.9995 10.4185 24.8427C10.6269 24.6859 10.8766 24.594 11.1361 24.5785C11.3956 24.5631 11.6532 24.6248 11.8763 24.7559C12.0995 24.887 12.2782 25.0816 12.3898 25.3152C12.4641 25.4704 12.5069 25.639 12.5157 25.8113C12.5246 25.9836 12.4993 26.1563 12.4414 26.3194C12.3834 26.4825 12.2939 26.6328 12.1781 26.7618C12.0622 26.8908 11.9222 26.9959 11.766 27.0711L11.7667 27.0705ZM18.1031 31.389C18.3291 31.5149 18.5122 31.7053 18.6291 31.9361C18.746 32.1669 18.7915 32.4277 18.7598 32.6856C18.7282 32.9435 18.6209 33.1868 18.4513 33.3849C18.2818 33.583 18.0578 33.7269 17.8075 33.7984C17.5573 33.87 17.292 33.866 17.0453 33.7869C16.7986 33.7078 16.5815 33.5572 16.4214 33.3541C16.2614 33.1511 16.1656 32.9046 16.1461 32.646C16.1267 32.3873 16.1844 32.1281 16.3121 31.901C16.4837 31.5966 16.7687 31.3717 17.1044 31.2758C17.4401 31.1799 17.7991 31.2208 18.1024 31.3896L18.1031 31.389ZM14.5546 30.5141C14.3622 30.6903 14.1223 30.8059 13.8652 30.8464C13.6082 30.8869 13.3456 30.8504 13.1105 30.7415C12.8755 30.6326 12.6787 30.4563 12.5449 30.2348C12.4111 30.0133 12.3464 29.7565 12.359 29.4971C12.3715 29.2376 12.4608 28.987 12.6154 28.777C12.7701 28.567 12.9832 28.4071 13.2278 28.3174C13.4725 28.2277 13.7376 28.2122 13.9898 28.2731C14.2419 28.3339 14.4697 28.4682 14.6443 28.659C14.7603 28.7858 14.8499 28.9344 14.9081 29.0962C14.9663 29.2581 14.992 29.4301 14.9836 29.6024C14.9752 29.7747 14.9329 29.944 14.8592 30.1005C14.7854 30.2571 14.6817 30.3978 14.5539 30.5148L14.5546 30.5141Z" fill="#0F1A26"/>
<path d="M24.6885 26.2583C24.639 26.2572 24.5901 26.2578 24.5407 26.2558C24.4649 26.5184 24.293 26.7437 24.0594 26.8867C23.8257 27.0297 23.5474 27.0798 23.2801 27.0272C23.0127 26.9745 22.7758 26.8229 22.6168 26.6025C22.4577 26.3822 22.3882 26.1093 22.4219 25.8384C22.3826 25.8241 22.3431 25.81 22.3038 25.7948C22.1497 26.0137 21.9208 26.1688 21.6608 26.2306C21.4007 26.2924 21.1279 26.2565 20.8943 26.1297C20.6607 26.0029 20.4827 25.7942 20.3945 25.5434C20.3062 25.2926 20.3137 25.0173 20.4157 24.7701C20.2085 24.9155 19.9576 24.9847 19.7063 24.9656C19.455 24.9466 19.2189 24.8406 19.0386 24.6659C18.8583 24.4912 18.7451 24.2587 18.7185 24.0083C18.6918 23.7579 18.7534 23.5053 18.8926 23.294C18.6402 23.347 18.378 23.3087 18.1527 23.1861C17.9275 23.0634 17.7539 22.8644 17.663 22.6245C17.5721 22.3846 17.5698 22.1195 17.6565 21.8766C17.7433 21.6336 17.9134 21.4287 18.1364 21.2984C18.1304 21.2771 18.1248 21.2557 18.1186 21.2346C17.8461 21.2491 17.579 21.1605 17.3704 20.9866C17.1619 20.8126 17.0272 20.566 16.9932 20.2958C16.9592 20.0257 17.0284 19.7518 17.187 19.5287C17.3456 19.3056 17.582 19.1497 17.849 19.0919C17.8509 19.0247 17.8532 18.958 17.8565 18.8904C17.5928 18.8166 17.3678 18.6453 17.2268 18.4112C17.0857 18.1771 17.0392 17.8975 17.0966 17.6288C17.1539 17.3601 17.3109 17.1223 17.5358 16.9633C17.7607 16.8042 18.0369 16.7358 18.3087 16.7717C18.3168 16.7496 18.3247 16.7276 18.3335 16.7057C18.1157 16.5536 17.9622 16.3263 17.9024 16.067C17.8426 15.8077 17.8808 15.5347 18.0095 15.3001C18.1382 15.0656 18.3485 14.8859 18.6002 14.7955C18.8519 14.705 19.1274 14.7101 19.3739 14.8099C19.2301 14.6041 19.1629 14.3541 19.1838 14.1028C19.2048 13.8515 19.3127 13.6146 19.4889 13.4328C19.6651 13.251 19.8986 13.1357 20.1494 13.1067C20.4001 13.0777 20.6524 13.1368 20.8629 13.2738C20.8112 13.021 20.8517 12.7574 20.9771 12.5304C21.1026 12.3034 21.3047 12.1279 21.547 12.0357C21.7894 11.9435 22.056 11.9406 22.2988 12.0275C22.5416 12.1144 22.7446 12.2853 22.8712 12.5096C22.8917 12.5034 22.9122 12.4981 22.9327 12.4923C22.9182 12.2188 23.0079 11.949 23.1838 11.7373C23.3597 11.5256 23.6088 11.3877 23.8808 11.3513C24.1529 11.3148 24.4279 11.3826 24.6504 11.541C24.8728 11.6993 25.0263 11.9365 25.08 12.2048C25.1273 12.2048 25.1753 12.2043 25.2244 12.2074C25.2855 11.9917 25.4115 11.7995 25.5854 11.6573C25.7593 11.515 25.9725 11.4295 26.1958 11.4125L25.0572 10.1684C22.7391 10.1372 20.4902 10.9972 18.7751 12.5706C15.0639 15.967 14.7846 21.7056 18.1534 25.3867C18.9542 26.2639 19.9221 26.9728 21.0013 27.4724C22.0806 27.972 23.2498 28.2525 24.4418 28.2977L25.7369 27.1125C25.49 27.1115 25.2515 27.0262 25.0608 26.8709C24.8702 26.7156 24.7389 26.4995 24.6885 26.2583Z" fill="#0F1A26"/>
<path d="M18.2507 17.4582C18.1359 17.4376 18.0173 17.4515 17.9098 17.4981C17.8023 17.5448 17.7108 17.6221 17.6469 17.7204C17.583 17.8186 17.5495 17.9334 17.5506 18.0501C17.5518 18.1668 17.5876 18.2803 17.6534 18.3761C17.7193 18.472 17.8123 18.546 17.9206 18.5887C18.029 18.6314 18.1479 18.6409 18.2622 18.6161C18.3766 18.5912 18.4813 18.5331 18.5631 18.4491C18.6449 18.3651 18.7002 18.259 18.7219 18.1441C18.7509 17.9899 18.7176 17.8311 18.6292 17.7025C18.5409 17.5738 18.4047 17.486 18.2507 17.4582Z" fill="#0F1A26"/>
<path d="M20.2324 23.4805C20.154 23.3946 20.0516 23.3342 19.9382 23.3068C19.8248 23.2793 19.7056 23.2862 19.5956 23.3265C19.4856 23.3668 19.3897 23.4387 19.3201 23.5331C19.2505 23.6275 19.2103 23.7401 19.2047 23.8568C19.199 23.9735 19.228 24.0889 19.2881 24.1886C19.3483 24.2882 19.4367 24.3675 19.5424 24.4165C19.6481 24.4655 19.7662 24.4819 19.8818 24.4638C19.9973 24.4456 20.1052 24.3936 20.1918 24.3144C20.3077 24.2083 20.3772 24.0608 20.3848 23.9044C20.3924 23.748 20.3376 23.5955 20.2324 23.4805Z" fill="#0F1A26"/>
<path d="M19.4185 16.2329C19.476 16.1308 19.5021 16.0142 19.4934 15.8978C19.4847 15.7814 19.4416 15.6705 19.3696 15.5792C19.2976 15.4878 19.2 15.42 19.089 15.3844C18.978 15.3488 18.8586 15.347 18.746 15.3792C18.6335 15.4114 18.5327 15.4762 18.4564 15.5654C18.3802 15.6545 18.332 15.764 18.3178 15.88C18.3036 15.9961 18.3242 16.1134 18.3769 16.2172C18.4295 16.321 18.512 16.4066 18.6137 16.4631C18.7501 16.539 18.9115 16.5573 19.0624 16.5141C19.2133 16.471 19.3414 16.3698 19.4185 16.2329Z" fill="#0F1A26"/>
<path d="M23.3867 12.5264C23.4029 12.6419 23.4531 12.7497 23.5309 12.8361C23.6087 12.9226 23.7106 12.9839 23.8237 13.0121C23.9368 13.0404 24.0561 13.0345 24.1664 12.9951C24.2767 12.9557 24.3732 12.8846 24.4435 12.7908C24.5138 12.6969 24.5549 12.5846 24.5615 12.468C24.5682 12.3514 24.5401 12.2357 24.4808 12.1356C24.4215 12.0355 24.3337 11.9554 24.2284 11.9056C24.1232 11.8557 24.0053 11.8383 23.8896 11.8555C23.8127 11.8669 23.7387 11.8933 23.6719 11.9332C23.605 11.973 23.5465 12.0256 23.4998 12.088C23.4531 12.1503 23.4191 12.2211 23.3997 12.2963C23.3802 12.3715 23.3758 12.4497 23.3867 12.5264Z" fill="#0F1A26"/>
<path d="M21.3861 13.3689C21.4363 13.474 21.5167 13.5615 21.6171 13.6204C21.7174 13.6794 21.8333 13.7071 21.95 13.7001C22.0667 13.6931 22.179 13.6517 22.2727 13.5812C22.3664 13.5106 22.4372 13.414 22.4763 13.3037C22.5154 13.1933 22.521 13.0741 22.4923 12.9612C22.4636 12.8482 22.402 12.7466 22.3152 12.6691C22.2284 12.5916 22.1204 12.5418 22.0048 12.526C21.8891 12.5101 21.7711 12.5289 21.6656 12.58C21.5955 12.6138 21.5327 12.6611 21.4807 12.7191C21.4287 12.7771 21.3886 12.8446 21.3626 12.9179C21.3367 12.9912 21.3254 13.0688 21.3294 13.1461C21.3334 13.2235 21.3527 13.2992 21.3861 13.3689Z" fill="#0F1A26"/>
<path d="M20.66 14.668C20.7466 14.5888 20.808 14.4859 20.8364 14.3723C20.8648 14.2588 20.8589 14.1396 20.8195 14.0299C20.78 13.9202 20.7088 13.825 20.6149 13.7562C20.5209 13.6875 20.4084 13.6483 20.2916 13.6436C20.1748 13.6389 20.059 13.6689 19.9587 13.7299C19.8584 13.7909 19.7783 13.8801 19.7284 13.9862C19.6785 14.0923 19.6611 14.2105 19.6784 14.3259C19.6956 14.4413 19.7468 14.5488 19.8255 14.6346C19.9308 14.7496 20.0778 14.8178 20.2343 14.8241C20.3908 14.8304 20.5439 14.7742 20.66 14.668Z" fill="#0F1A26"/>
<path d="M18.6731 20.1662C18.6569 20.0507 18.6067 19.943 18.529 19.8565C18.4512 19.77 18.3493 19.7088 18.2362 19.6804C18.1231 19.6521 18.0039 19.658 17.8936 19.6973C17.7832 19.7367 17.6868 19.8078 17.6165 19.9015C17.5461 19.9953 17.505 20.1076 17.4983 20.2242C17.4916 20.3408 17.5196 20.4565 17.5788 20.5566C17.638 20.6568 17.7258 20.7369 17.831 20.7868C17.9362 20.8367 18.0541 20.8542 18.1698 20.8371C18.2467 20.8258 18.3207 20.7994 18.3876 20.7596C18.4545 20.7197 18.513 20.6671 18.5598 20.6048C18.6066 20.5425 18.6406 20.4717 18.6601 20.3964C18.6795 20.3211 18.684 20.2429 18.6731 20.1662Z" fill="#0F1A26"/>
<path d="M19.2187 21.9765C19.1685 21.8714 19.0882 21.7838 18.9878 21.7247C18.8874 21.6657 18.7715 21.6378 18.6547 21.6447C18.538 21.6516 18.4256 21.693 18.3318 21.7635C18.238 21.834 18.167 21.9306 18.1278 22.041C18.0886 22.1514 18.083 22.2707 18.1116 22.3837C18.1402 22.4968 18.2018 22.5985 18.2886 22.6761C18.3754 22.7536 18.4834 22.8035 18.5991 22.8195C18.7148 22.8354 18.8329 22.8167 18.9385 22.7657C19.0801 22.6972 19.1891 22.5757 19.2416 22.4277C19.2942 22.2797 19.2859 22.1174 19.2187 21.9765Z" fill="#0F1A26"/>
</g>
<defs>
<clipPath id="clip0">
<rect width="24" height="24" fill="white" transform="translate(17.705 2) rotate(47.5362)"/>
</clipPath>
</defs>
</svg>
