<svg width="748" height="742" viewBox="0 0 748 742" fill="none" xmlns="http://www.w3.org/2000/svg">
<g clip-path="url(#clip0)">
<path d="M253.4 194.31C253.398 188.191 251.581 182.21 248.179 177.124C244.777 172.038 239.943 168.075 234.288 165.737C228.633 163.399 222.412 162.791 216.411 163.989C210.411 165.188 204.901 168.139 200.578 172.47C196.255 176.801 193.314 182.317 192.127 188.32C190.94 194.323 191.561 200.543 193.91 206.193C196.259 211.844 200.231 216.67 205.324 220.062C210.416 223.455 216.401 225.26 222.52 225.25C230.716 225.237 238.572 221.971 244.362 216.17C250.152 210.368 253.403 202.506 253.4 194.31Z" fill="#0F1A26"/>
<path d="M292.22 399.2C287.797 403.426 284.725 408.868 283.395 414.839C282.065 420.81 282.535 427.041 284.746 432.745C286.957 438.449 290.81 443.369 295.818 446.883C300.825 450.397 306.762 452.347 312.878 452.487C318.994 452.627 325.014 450.95 330.176 447.669C335.339 444.387 339.413 439.649 341.882 434.052C344.352 428.455 345.107 422.252 344.051 416.226C342.995 410.201 340.176 404.623 335.95 400.2C330.282 394.271 322.492 390.835 314.292 390.648C306.092 390.46 298.153 393.536 292.22 399.2Z" fill="#0F1A26"/>
<path d="M233.43 284.05C227.724 286.255 222.8 290.103 219.281 295.107C215.761 300.111 213.805 306.045 213.659 312.161C213.512 318.277 215.183 324.298 218.459 329.465C221.735 334.631 226.47 338.71 232.064 341.185C237.658 343.66 243.861 344.421 249.887 343.372C255.914 342.322 261.494 339.509 265.922 335.288C270.35 331.067 273.426 325.627 274.763 319.658C276.099 313.688 275.635 307.456 273.43 301.75C271.968 297.96 269.773 294.495 266.971 291.554C264.169 288.612 260.814 286.252 257.099 284.608C253.384 282.964 249.381 282.069 245.32 281.973C241.259 281.877 237.218 282.583 233.43 284.05Z" fill="#0F1A26"/>
<path d="M551.42 492.33C545.303 492.33 539.323 494.144 534.236 497.543C529.15 500.941 525.185 505.772 522.844 511.424C520.503 517.075 519.891 523.294 521.084 529.294C522.278 535.294 525.224 540.805 529.549 545.131C533.875 549.456 539.386 552.402 545.386 553.596C551.386 554.789 557.605 554.177 563.256 551.836C568.908 549.495 573.739 545.53 577.137 540.444C580.536 535.357 582.35 529.377 582.35 523.26C582.35 515.057 579.091 507.19 573.291 501.389C567.49 495.589 559.623 492.33 551.42 492.33Z" fill="#0F1A26"/>
<path d="M431.34 467.07C425.741 464.604 419.537 463.854 413.512 464.914C407.487 465.974 401.912 468.797 397.492 473.026C393.071 477.255 390.004 482.7 388.678 488.672C387.352 494.644 387.827 500.875 390.042 506.577C392.257 512.279 396.114 517.197 401.124 520.707C406.134 524.217 412.073 526.163 418.189 526.298C424.305 526.434 430.324 524.752 435.484 521.466C440.645 518.181 444.715 513.439 447.18 507.84C450.466 500.331 450.645 491.826 447.676 484.185C444.708 476.545 438.834 470.391 431.34 467.07Z" fill="#0F1A26"/>
<path d="M233.39 104.72C239.097 106.922 245.329 107.382 251.297 106.042C257.265 104.703 262.703 101.623 266.921 97.1937C271.14 92.7641 273.95 87.1832 274.997 81.1565C276.044 75.1298 275.28 68.9281 272.802 63.3354C270.325 57.7427 266.245 53.0102 261.077 49.7362C255.91 46.4623 249.889 44.794 243.774 44.9422C237.658 45.0904 231.725 47.0485 226.722 50.5689C221.72 54.0893 217.874 59.0139 215.67 64.72C214.206 68.5099 213.504 72.551 213.602 76.6125C213.701 80.674 214.598 84.6763 216.244 88.3909C217.889 92.1054 220.25 95.4593 223.192 98.2611C226.134 101.063 229.6 103.258 233.39 104.72Z" fill="#0F1A26"/>
<path d="M669.1 468.11C663.48 470.526 658.702 474.554 655.371 479.685C652.041 484.816 650.306 490.82 650.387 496.937C650.469 503.054 652.362 509.009 655.828 514.05C659.294 519.091 664.177 522.991 669.859 525.256C675.542 527.522 681.768 528.052 687.752 526.779C693.735 525.506 699.207 522.487 703.475 518.104C707.742 513.721 710.615 508.171 711.728 502.156C712.842 496.14 712.146 489.93 709.73 484.31C708.127 480.578 705.804 477.198 702.894 474.363C699.985 471.529 696.545 469.296 692.772 467.792C688.998 466.287 684.966 465.541 680.904 465.596C676.843 465.65 672.831 466.505 669.1 468.11Z" fill="#0F1A26"/>
<path d="M431.79 39.61C434.692 37.4187 436.879 34.4163 438.075 30.9822C439.271 27.5481 439.422 23.8366 438.509 20.3168C437.596 16.7969 435.66 13.6267 432.946 11.2069C430.231 8.78715 426.86 7.22638 423.259 6.72191C419.658 6.21744 415.988 6.79191 412.713 8.37272C409.439 9.95352 406.706 12.4697 404.861 15.6032C403.016 18.7367 402.141 22.3468 402.348 25.9773C402.554 29.6078 403.832 33.0956 406.02 36C407.475 37.9291 409.296 39.5527 411.378 40.7782C413.461 42.0037 415.764 42.8069 418.157 43.1421C420.55 43.4774 422.986 43.338 425.325 42.7319C427.664 42.1259 429.861 41.065 431.79 39.61Z" fill="#0F1A26"/>
<path d="M729.66 81.09C732.564 78.8966 734.752 75.8912 735.948 72.454C737.144 69.0168 737.294 65.3021 736.379 61.7797C735.464 58.2574 733.524 55.0856 730.806 52.6654C728.088 50.2453 724.714 48.6855 721.109 48.1833C717.505 47.6812 713.832 48.2592 710.556 49.8444C707.28 51.4295 704.548 53.9505 702.705 57.0886C700.862 60.2267 699.99 63.8409 700.201 67.4741C700.412 71.1073 701.696 74.5964 703.89 77.5C705.346 79.4287 707.167 81.0516 709.25 82.2759C711.334 83.5003 713.638 84.3021 716.031 84.6355C718.424 84.9689 720.86 84.8273 723.198 84.219C725.537 83.6106 727.733 82.5474 729.66 81.09Z" fill="#0F1A26"/>
<path d="M548.98 42.91C519.172 42.9081 490.033 51.7454 465.247 68.3044C440.462 84.8634 421.143 108.4 409.735 135.939C398.327 163.477 395.341 193.78 401.155 223.016C406.969 252.251 421.322 279.106 442.398 300.185C463.475 321.263 490.329 335.617 519.564 341.433C548.799 347.249 579.103 344.265 606.642 332.859C634.181 321.452 657.719 302.135 674.28 277.351C690.841 252.567 699.68 223.428 699.68 193.62C699.683 173.829 695.786 154.231 688.214 135.945C680.642 117.66 669.542 101.045 655.547 87.0496C641.553 73.0545 624.939 61.9532 606.654 54.3797C588.369 46.8061 568.771 42.9087 548.98 42.91ZM548.98 294.51C529.023 294.51 509.515 288.592 492.922 277.505C476.329 266.417 463.396 250.658 455.76 232.22C448.123 213.783 446.125 193.495 450.019 173.922C453.914 154.349 463.524 136.37 477.636 122.259C491.749 108.149 509.728 98.5397 529.301 94.6476C548.875 90.7555 569.163 92.755 587.6 100.393C606.037 108.032 621.794 120.966 632.88 137.56C643.966 154.155 649.882 173.663 649.88 193.62C649.88 206.87 647.27 219.99 642.199 232.231C637.128 244.472 629.696 255.595 620.326 264.964C610.957 274.332 599.834 281.763 587.592 286.833C575.35 291.903 562.23 294.511 548.98 294.51Z" fill="#0F1A26"/>
<path d="M748.9 109.38C747.541 109.508 746.2 109.783 744.9 110.2C740.897 111.521 737.47 114.179 735.195 117.727C732.919 121.276 731.933 125.499 732.402 129.688C732.871 133.877 734.766 137.778 737.77 140.735C740.774 143.692 744.704 145.527 748.9 145.93V109.38Z" fill="#0F1A26"/>
<path d="M748.9 181.32C747.088 183.027 745.645 185.087 744.658 187.372C743.671 189.658 743.162 192.121 743.162 194.61C743.162 197.099 743.671 199.562 744.658 201.848C745.645 204.133 747.088 206.193 748.9 207.9V181.32Z" fill="#0F1A26"/>
<path d="M548.98 143.61C539.091 143.61 529.424 146.542 521.202 152.036C512.979 157.531 506.57 165.34 502.786 174.476C499.002 183.612 498.011 193.665 499.941 203.365C501.87 213.064 506.632 221.973 513.625 228.965C520.617 235.958 529.526 240.72 539.226 242.649C548.925 244.579 558.978 243.588 568.114 239.804C577.25 236.02 585.059 229.611 590.553 221.388C596.048 213.166 598.98 203.499 598.98 193.61C598.98 180.349 593.712 167.631 584.335 158.255C574.959 148.878 562.241 143.61 548.98 143.61Z" fill="#0F1A26"/>
<path d="M666.01 349.61C663.109 351.803 660.923 354.808 659.729 358.244C658.535 361.679 658.387 365.392 659.303 368.912C660.219 372.432 662.158 375.601 664.876 378.019C667.593 380.436 670.966 381.994 674.569 382.495C678.171 382.995 681.841 382.417 685.115 380.831C688.388 379.246 691.119 376.726 692.96 373.589C694.801 370.452 695.671 366.84 695.459 363.209C695.247 359.578 693.963 356.092 691.77 353.19C690.315 351.261 688.494 349.639 686.412 348.415C684.329 347.19 682.025 346.389 679.633 346.057C677.24 345.724 674.805 345.867 672.467 346.477C670.13 347.086 667.936 348.151 666.01 349.61Z" fill="#0F1A26"/>
<path d="M735.02 299.12C732.014 297.068 728.467 295.953 724.827 295.918C721.188 295.882 717.619 296.926 714.573 298.919C711.527 300.911 709.141 303.762 707.716 307.111C706.29 310.46 705.89 314.157 706.566 317.733C707.242 321.31 708.963 324.605 711.512 327.203C714.061 329.801 717.324 331.585 720.887 332.329C724.45 333.072 728.153 332.742 731.529 331.381C734.904 330.02 737.8 327.688 739.85 324.68C742.597 320.65 743.632 315.693 742.726 310.9C741.82 306.107 739.049 301.87 735.02 299.12Z" fill="#0F1A26"/>
<path d="M610.05 379C606.598 380.146 603.564 382.29 601.331 385.161C599.098 388.032 597.766 391.5 597.504 395.128C597.242 398.755 598.061 402.379 599.859 405.541C601.656 408.703 604.351 411.261 607.602 412.891C610.853 414.522 614.515 415.152 618.124 414.701C621.733 414.251 625.127 412.74 627.878 410.361C630.628 407.981 632.612 404.839 633.577 401.333C634.542 397.826 634.446 394.112 633.3 390.66C632.54 388.367 631.336 386.246 629.756 384.419C628.176 382.591 626.251 381.093 624.092 380.01C621.933 378.927 619.581 378.281 617.172 378.107C614.762 377.934 612.342 378.237 610.05 379Z" fill="#0F1A26"/>
<path d="M168.84 191C168.764 122.747 187.071 55.7334 221.84 -3L45.89 -3C36.978 4.77714 30.0298 14.5501 25.6119 25.5223C21.1939 36.4945 19.4313 48.3554 20.4675 60.1382C21.5037 71.921 25.3096 83.2922 31.5748 93.3249C37.8401 103.358 46.3874 111.768 56.52 117.87C39.6003 122.176 24.7103 132.245 14.4117 146.343C4.11302 160.441 -0.950345 177.688 0.0926564 195.116C1.13566 212.544 8.21982 229.063 20.1264 241.832C32.0329 254.602 48.0174 262.822 65.33 265.08C48.4851 272.886 35.1295 286.656 27.8411 303.732C20.5527 320.807 19.8485 339.977 25.8644 357.541C31.8802 375.105 44.1896 389.818 60.4163 398.839C76.643 407.86 95.6364 410.55 113.73 406.39C114.45 407.86 115.18 409.34 115.92 410.81C101.488 423.012 92.1869 440.207 89.8728 458.964C87.5587 477.721 92.4016 496.66 103.435 512.004C114.469 527.348 130.882 537.968 149.4 541.745C167.918 545.521 187.179 542.177 203.34 532.38C206.62 535.71 209.92 539 213.29 542.23C203.73 558.507 200.65 577.787 204.662 596.232C208.675 614.677 219.485 630.936 234.942 641.771C250.399 652.607 269.369 657.225 288.077 654.706C306.785 652.188 323.859 642.717 335.9 628.18C337.29 628.86 338.67 629.56 340.06 630.23C336.333 647.608 338.893 665.744 347.282 681.412C355.671 697.081 369.347 709.265 385.876 715.797C402.405 722.329 420.715 722.786 437.549 717.087C454.383 711.387 468.649 699.9 477.81 684.67C482.121 701.586 492.192 716.472 506.29 726.767C520.389 737.062 537.633 742.123 555.059 741.08C572.485 740.038 589.003 732.956 601.773 721.053C614.543 709.15 622.767 693.17 625.03 675.86C630.339 687.307 638.447 697.233 648.604 704.719C658.762 712.206 670.643 717.012 683.149 718.694C695.654 720.376 708.383 718.88 720.158 714.344C731.933 709.808 742.375 702.378 750.52 692.74V516.2C690.43 553.25 621.205 572.826 550.61 572.73C339.76 572.73 168.84 401.81 168.84 191ZM58.52 44.82C60.8616 37.0786 65.4458 30.2053 71.6932 25.0689C77.9405 19.9324 85.5704 16.7635 93.6184 15.9627C101.666 15.1618 109.771 16.7651 116.908 20.5697C124.045 24.3743 129.894 30.2095 133.715 37.3376C137.537 44.4657 139.159 52.5668 138.377 60.6166C137.594 68.6665 134.443 76.3038 129.322 82.5631C124.2 88.8223 117.337 93.4226 109.601 95.7822C101.865 98.1419 93.6034 98.155 85.86 95.82C80.7134 94.2708 75.9228 91.7219 71.7623 88.3191C67.6019 84.9164 64.1533 80.7266 61.6139 75.9896C59.0745 71.2526 57.4941 66.0613 56.9632 60.7129C56.4323 55.3644 56.9613 49.9638 58.52 44.82ZM36.66 193.18C36.66 185.091 39.0587 177.183 43.5529 170.457C48.047 163.731 54.4347 158.489 61.9082 155.393C69.3817 152.298 77.6053 151.488 85.5392 153.066C93.473 154.644 100.761 158.539 106.481 164.259C112.201 169.979 116.096 177.267 117.674 185.201C119.252 193.135 118.442 201.358 115.347 208.832C112.251 216.305 107.009 222.693 100.283 227.187C93.5568 231.681 85.6492 234.08 77.56 234.08C66.7126 234.08 56.3096 229.771 48.6393 222.101C40.9691 214.43 36.66 204.027 36.66 193.18ZM107.15 368.38C99.4 370.688 91.1396 370.647 83.4131 368.261C75.6866 365.876 68.841 361.252 63.7418 354.976C58.6425 348.7 55.5186 341.053 54.765 333.002C54.0114 324.951 55.662 316.857 59.5081 309.744C63.3541 302.63 69.2229 296.817 76.3724 293.039C83.522 289.261 91.6313 287.687 99.675 288.518C107.719 289.348 115.336 292.544 121.563 297.703C127.79 302.862 132.348 309.751 134.66 317.5C137.759 327.895 136.602 339.096 131.442 348.637C126.283 358.179 117.545 365.281 107.15 368.38ZM193.02 507C186.505 511.792 178.716 514.544 170.637 514.909C162.558 515.274 154.553 513.235 147.632 509.05C140.712 504.865 135.189 498.722 131.76 491.397C128.331 484.073 127.151 475.897 128.369 467.902C129.587 459.907 133.148 452.453 138.603 446.482C144.057 440.511 151.16 436.292 159.012 434.357C166.864 432.423 175.114 432.86 182.718 435.615C190.321 438.369 196.938 443.316 201.73 449.83C204.912 454.156 207.211 459.066 208.496 464.28C209.78 469.494 210.025 474.91 209.216 480.219C208.407 485.528 206.561 490.625 203.782 495.22C201.003 499.815 197.346 503.818 193.02 507ZM318.02 607C313.466 613.683 307.033 618.865 299.534 621.892C292.034 624.919 283.806 625.654 275.889 624.005C267.972 622.355 260.722 618.395 255.055 612.625C249.389 606.855 245.561 599.535 244.055 591.589C242.549 583.644 243.433 575.43 246.594 567.987C249.756 560.543 255.054 554.205 261.819 549.773C268.583 545.34 276.509 543.013 284.596 543.086C292.683 543.158 300.566 545.627 307.25 550.18C311.689 553.203 315.49 557.07 318.434 561.562C321.378 566.054 323.408 571.082 324.408 576.358C325.408 581.635 325.359 587.057 324.263 592.315C323.167 597.572 321.045 602.563 318.02 607ZM453.02 657.7C450.678 665.441 446.094 672.315 439.847 677.451C433.6 682.588 425.97 685.757 417.922 686.557C409.874 687.358 401.769 685.755 394.632 681.95C387.495 678.146 381.646 672.31 377.825 665.182C374.003 658.054 372.381 649.953 373.163 641.903C373.945 633.854 377.097 626.216 382.218 619.957C387.34 613.698 394.203 609.097 401.939 606.738C409.675 604.378 417.937 604.365 425.68 606.7C430.829 608.25 435.622 610.801 439.784 614.206C443.946 617.611 447.396 621.804 449.936 626.544C452.475 631.284 454.055 636.478 454.584 641.83C455.113 647.181 454.582 652.584 453.02 657.73V657.7ZM686.42 603.16C694.098 600.626 702.355 600.425 710.147 602.583C717.939 604.74 724.916 609.16 730.198 615.282C735.479 621.404 738.826 628.955 739.817 636.979C740.808 645.003 739.397 653.141 735.764 660.364C732.131 667.587 726.438 673.571 719.405 677.559C712.372 681.547 704.314 683.361 696.25 682.771C688.187 682.181 680.479 679.213 674.102 674.244C667.724 669.274 662.963 662.525 660.42 654.85C657.019 644.552 657.847 633.324 662.723 623.636C667.599 613.948 676.123 606.594 686.42 603.19V603.16ZM591.32 666.02C591.322 674.11 588.925 682.018 584.432 688.746C579.939 695.473 573.552 700.717 566.079 703.814C558.605 706.911 550.381 707.722 542.447 706.145C534.512 704.568 527.224 700.674 521.503 694.954C515.782 689.235 511.886 681.947 510.307 674.013C508.728 666.079 509.537 657.855 512.632 650.381C515.728 642.906 520.97 636.518 527.696 632.024C534.422 627.529 542.33 625.13 550.42 625.13C555.792 625.131 561.112 626.191 566.075 628.248C571.038 630.305 575.547 633.32 579.345 637.119C583.143 640.919 586.155 645.43 588.21 650.394C590.264 655.358 591.321 660.678 591.32 666.05V666.02Z" fill="#0F1A26"/>
<path d="M748.9 238.07C744.875 238.855 741.23 240.966 738.546 244.068C735.863 247.169 734.297 251.08 734.099 255.176C733.901 259.272 735.082 263.316 737.453 266.661C739.825 270.007 743.25 272.461 747.18 273.63C747.748 273.769 748.322 273.879 748.9 273.96V238.07Z" fill="#0F1A26"/>
<path d="M707.06 345.1C705.99 346.21 704.97 347.34 703.88 348.43C708.339 355.663 709.908 364.311 708.273 372.649C706.639 380.987 701.921 388.403 695.061 393.417C688.201 398.431 679.703 400.674 671.262 399.7C662.821 398.725 655.057 394.605 649.52 388.16C648.36 388.76 647.2 389.37 646.02 389.95C647.816 398.057 646.563 406.542 642.499 413.784C638.434 421.025 631.844 426.515 623.988 429.205C616.132 431.895 607.56 431.596 599.91 428.365C592.26 425.133 586.069 419.197 582.52 411.69C581.5 419.474 577.799 426.66 572.054 432.011C566.309 437.362 558.88 440.544 551.043 441.01C543.206 441.477 535.451 439.198 529.112 434.566C522.773 429.934 518.247 423.238 516.31 415.63C512.205 422.512 505.786 427.71 498.201 430.295C490.616 432.88 482.359 432.683 474.906 429.74C467.453 426.797 461.289 421.3 457.516 414.23C453.742 407.161 452.606 398.98 454.31 391.15C453.69 390.84 453.08 390.52 452.46 390.22C447.041 396.757 439.359 401.014 430.944 402.143C422.528 403.272 413.996 401.19 407.046 396.311C400.096 391.433 395.238 384.116 393.439 375.818C391.641 367.519 393.033 358.848 397.34 351.53C395.83 350.08 394.34 348.63 392.85 347.14C385.579 351.626 376.877 353.189 368.499 351.513C360.121 349.838 352.689 345.05 347.701 338.113C342.714 331.176 340.541 322.607 341.621 314.131C342.7 305.656 346.952 297.905 353.52 292.44C353.18 291.79 352.84 291.15 352.52 290.49C344.413 292.291 335.927 291.041 328.684 286.98C321.44 282.919 315.947 276.332 313.253 268.477C310.56 260.621 310.855 252.049 314.083 244.398C317.31 236.746 323.244 230.553 330.75 227C322.966 225.983 315.779 222.286 310.424 216.545C305.07 210.804 301.882 203.378 301.409 195.541C300.935 187.705 303.206 179.949 307.831 173.605C312.455 167.262 319.145 162.727 326.75 160.78C319.827 156.672 314.6 150.226 312.012 142.604C309.423 134.982 309.643 126.685 312.632 119.211C315.621 111.737 321.182 105.577 328.313 101.842C335.443 98.1062 343.674 97.0417 351.52 98.8399C351.81 98.2399 352.12 97.6599 352.42 97.0699C345.803 91.6767 341.474 83.9776 340.304 75.5218C339.135 67.0659 341.21 58.4807 346.114 51.4935C351.018 44.5063 358.387 39.6355 366.736 37.8612C375.086 36.0868 383.799 37.5406 391.12 41.9299C392.12 40.8499 393.12 39.7399 394.23 38.6799C390.543 32.7687 388.772 25.8625 389.16 18.9063C389.549 11.9501 392.077 5.28387 396.4 -0.180054H343.66C294.003 52.1959 266.362 121.646 266.45 193.82C266.45 349.82 392.94 476.35 548.98 476.35C586.125 476.397 622.911 469.095 657.222 454.866C691.533 440.637 722.691 419.761 748.9 393.44V339C743.662 344.628 736.661 348.299 729.053 349.408C721.445 350.518 713.687 348.998 707.06 345.1Z" fill="#0F1A26"/>
<path d="M699.86 -0.180054C703.296 5.12394 705.178 11.2846 705.291 17.6035C705.404 23.9223 703.744 30.1464 700.5 35.5699C701.99 36.9999 703.5 38.4199 704.92 39.8899C711.924 35.5856 720.257 33.9838 728.357 35.3848C736.458 36.7858 743.769 41.0934 748.92 47.4999V-0.180054H699.86Z" fill="#0F1A26"/>
<path d="M368.13 308.14C365.23 310.334 363.046 313.339 361.853 316.775C360.661 320.21 360.514 323.922 361.43 327.441C362.347 330.96 364.287 334.129 367.004 336.546C369.721 338.963 373.094 340.52 376.696 341.02C380.298 341.52 383.967 340.942 387.241 339.357C390.514 337.772 393.243 335.252 395.085 332.117C396.926 328.981 397.796 325.369 397.585 321.739C397.375 318.108 396.092 314.622 393.9 311.72C390.957 307.829 386.589 305.265 381.756 304.594C376.924 303.923 372.022 305.198 368.13 308.14Z" fill="#0F1A26"/>
<path d="M548.9 388.88C545.262 388.878 541.706 389.955 538.68 391.974C535.655 393.994 533.296 396.865 531.903 400.226C530.509 403.586 530.144 407.284 530.852 410.852C531.561 414.42 533.311 417.697 535.883 420.27C538.454 422.843 541.731 424.596 545.299 425.306C548.866 426.016 552.564 425.653 555.925 424.261C559.286 422.87 562.159 420.512 564.18 417.488C566.201 414.464 567.28 410.908 567.28 407.27C567.28 402.394 565.344 397.718 561.897 394.27C558.451 390.821 553.776 388.883 548.9 388.88Z" fill="#0F1A26"/>
<path d="M364.52 255.77C363.378 252.316 361.238 249.279 358.37 247.041C355.501 244.804 352.034 243.468 348.406 243.201C344.778 242.935 341.153 243.751 337.989 245.545C334.824 247.339 332.263 250.031 330.629 253.281C328.995 256.531 328.362 260.193 328.809 263.802C329.256 267.412 330.764 270.809 333.141 273.562C335.519 276.315 338.659 278.301 342.166 279.269C345.672 280.237 349.387 280.143 352.84 279C357.469 277.467 361.299 274.159 363.489 269.803C365.68 265.447 366.05 260.399 364.52 255.77Z" fill="#0F1A26"/>
<path d="M362.79 87.4001C365.797 89.4459 369.344 90.5541 372.981 90.5845C376.618 90.6149 380.182 89.5662 383.223 87.5709C386.264 85.5755 388.645 82.7233 390.065 79.3747C391.485 76.0262 391.88 72.3318 391.2 68.7587C390.521 65.1856 388.797 61.8943 386.247 59.301C383.696 56.7077 380.434 54.9288 376.873 54.1893C373.312 53.4498 369.612 53.7829 366.24 55.1465C362.868 56.5101 359.976 58.843 357.93 61.85C356.57 63.8463 355.617 66.0911 355.125 68.456C354.634 70.8209 354.613 73.2595 355.064 75.6324C355.515 78.0053 356.43 80.266 357.756 82.2852C359.081 84.3044 360.792 86.0424 362.79 87.4001Z" fill="#0F1A26"/>
<path d="M339.99 150.8C343.473 151.85 347.188 151.844 350.667 150.782C354.146 149.72 357.232 147.65 359.535 144.834C361.838 142.019 363.254 138.583 363.604 134.963C363.954 131.342 363.222 127.699 361.501 124.494C359.781 121.289 357.148 118.667 353.937 116.958C350.726 115.25 347.08 114.532 343.461 114.895C339.842 115.259 336.412 116.687 333.604 119C330.797 121.313 328.739 124.407 327.69 127.89C326.991 130.202 326.755 132.629 326.995 135.032C327.235 137.436 327.947 139.768 329.089 141.896C330.231 144.024 331.782 145.905 333.653 147.433C335.523 148.961 337.677 150.105 339.99 150.8Z" fill="#0F1A26"/>
<path d="M658.27 34.0499C661.277 36.0946 664.823 37.2017 668.46 37.2313C672.096 37.2609 675.66 36.2118 678.7 34.2164C681.74 32.221 684.121 29.3691 685.54 26.0211C686.96 22.6731 687.355 18.9793 686.676 15.4068C685.997 11.8342 684.273 8.54325 681.724 5.94991C679.175 3.35658 675.914 1.57729 672.353 0.836995C668.793 0.096696 665.093 0.428616 661.721 1.7908C658.349 3.15298 655.457 5.48426 653.41 8.48994C652.047 10.4862 651.092 12.7317 650.598 15.0978C650.105 17.4639 650.084 19.9041 650.535 22.2786C650.987 24.6531 651.902 26.9151 653.23 28.9351C654.557 30.955 656.27 32.6932 658.27 34.0499Z" fill="#0F1A26"/>
<path d="M354.63 194.61C354.632 190.97 353.554 187.411 351.533 184.384C349.512 181.356 346.638 178.996 343.276 177.602C339.913 176.209 336.213 175.843 332.643 176.553C329.073 177.263 325.793 179.015 323.219 181.589C320.645 184.163 318.893 187.443 318.183 191.013C317.473 194.583 317.839 198.283 319.232 201.646C320.626 205.009 322.986 207.882 326.014 209.903C329.041 211.924 332.6 213.002 336.24 213C341.117 213 345.795 211.062 349.244 207.614C352.692 204.165 354.63 199.487 354.63 194.61Z" fill="#0F1A26"/>
<path d="M439.52 355.17C436.514 353.124 432.968 352.015 429.331 351.984C425.695 351.953 422.131 353.001 419.089 354.995C416.048 356.989 413.667 359.84 412.246 363.188C410.825 366.535 410.428 370.229 411.106 373.802C411.784 377.375 413.506 380.666 416.055 383.261C418.603 385.855 421.863 387.635 425.424 388.377C428.984 389.119 432.684 388.788 436.057 387.427C439.429 386.066 442.322 383.735 444.37 380.73C445.732 378.734 446.687 376.489 447.18 374.123C447.674 371.758 447.696 369.318 447.245 366.944C446.795 364.57 445.881 362.308 444.555 360.288C443.229 358.268 441.518 356.528 439.52 355.17Z" fill="#0F1A26"/>
<path d="M594.18 -0.180054C596.481 4.06448 600.367 7.22753 604.99 8.61995C609.034 9.83879 613.374 9.62945 617.281 8.02708C621.189 6.42471 624.426 3.52685 626.45 -0.180054H594.18Z" fill="#0F1A26"/>
<path d="M492.8 380.59C489.316 379.537 485.598 379.54 482.117 380.6C478.635 381.66 475.546 383.729 473.24 386.544C470.934 389.36 469.515 392.797 469.162 396.419C468.809 400.041 469.538 403.687 471.258 406.895C472.977 410.103 475.609 412.728 478.821 414.44C482.033 416.152 485.68 416.873 489.301 416.512C492.923 416.15 496.356 414.723 499.166 412.411C501.977 410.098 504.038 407.004 505.09 403.52C506.5 398.85 505.997 393.81 503.693 389.51C501.388 385.21 497.47 382.002 492.8 380.59Z" fill="#0F1A26"/>
</g>
<defs>
<clipPath id="clip0">
<rect width="750.52" height="744.23" fill="white" transform="translate(0 -3)"/>
</clipPath>
</defs>
</svg>
