<svg width="432" height="184" viewBox="0 0 432 184" fill="none" xmlns="http://www.w3.org/2000/svg">
<path d="M16.23 42.91H12.96C12.72 43.79 12.3 44.6 11.7 45.34C11.12 46.06 10.41 46.67 9.57 47.17L14.97 55H8.37L1.2 43.96H5.82C6.28 43.96 6.66 43.61 6.96 42.91H1.2V39.31H6.93C6.77 38.95 6.57 38.68 6.33 38.5C6.11 38.3 5.89 38.2 5.67 38.2H1.2V33.7H16.23V37.3H12.15C12.53 37.98 12.81 38.65 12.99 39.31H16.23V42.91ZM39.9513 49.9V55H26.0613V49.9H30.3213V39.04C30.1613 39.28 29.8813 39.55 29.4813 39.85C29.1013 40.13 28.6713 40.41 28.1913 40.69C27.7313 40.95 27.2413 41.17 26.7213 41.35C26.2213 41.53 25.7713 41.62 25.3713 41.62V36.4C25.9113 36.4 26.4713 36.26 27.0513 35.98C27.6313 35.68 28.1613 35.36 28.6413 35.02C29.1213 34.68 29.5113 34.36 29.8113 34.06C30.1313 33.76 30.3013 33.59 30.3213 33.55H36.1413V49.9H39.9513ZM42.7355 59.71L43.8155 55H42.1055V49.48H46.8155V55L45.1955 59.71H42.7355ZM57.6105 41.02C58.6505 41.02 59.6005 41.19 60.4605 41.53C61.3205 41.87 62.0605 42.35 62.6805 42.97C63.3205 43.57 63.8105 44.3 64.1505 45.16C64.5105 46 64.6905 46.93 64.6905 47.95C64.6905 49.03 64.4905 50.02 64.0905 50.92C63.6905 51.82 63.1205 52.59 62.3805 53.23C61.6605 53.87 60.7905 54.37 59.7705 54.73C58.7705 55.09 57.6605 55.27 56.4405 55.27C54.8805 55.27 53.4705 54.98 52.2105 54.4C50.9705 53.82 50.0105 52.99 49.3305 51.91L52.4505 48.31C53.0305 48.93 53.6705 49.42 54.3705 49.78C55.0905 50.12 55.7905 50.29 56.4705 50.29C57.2105 50.29 57.7905 50.09 58.2105 49.69C58.6305 49.29 58.8405 48.75 58.8405 48.07C58.8405 47.41 58.6505 46.88 58.2705 46.48C57.8905 46.08 57.3905 45.88 56.7705 45.88C56.3505 45.88 55.9605 45.98 55.6005 46.18C55.2605 46.36 55.0005 46.61 54.8205 46.93H49.9305L52.4505 33.67H63.1305V38.86H56.5605L56.2305 41.17C56.3105 41.15 56.4205 41.13 56.5605 41.11C56.6605 41.09 56.8005 41.07 56.9805 41.05C57.1605 41.03 57.3705 41.02 57.6105 41.02ZM76.4815 55.3C74.8815 55.3 73.4815 54.97 72.2815 54.31C71.0815 53.63 70.0715 52.77 69.2515 51.73C68.4515 50.67 67.8415 49.5 67.4215 48.22C67.0215 46.94 66.8215 45.7 66.8215 44.5C66.8215 43.22 67.0415 41.94 67.4815 40.66C67.9415 39.36 68.5815 38.2 69.4015 37.18C70.2415 36.14 71.2515 35.3 72.4315 34.66C73.6315 34.02 74.9815 33.7 76.4815 33.7C78.0615 33.7 79.4515 34.05 80.6515 34.75C81.8715 35.43 82.8815 36.3 83.6815 37.36C84.5015 38.42 85.1115 39.59 85.5115 40.87C85.9315 42.13 86.1415 43.34 86.1415 44.5C86.1415 45.8 85.9115 47.1 85.4515 48.4C85.0115 49.68 84.3715 50.83 83.5315 51.85C82.7115 52.87 81.7015 53.7 80.5015 54.34C79.3215 54.98 77.9815 55.3 76.4815 55.3ZM72.7615 44.5C72.7615 45.16 72.8315 45.82 72.9715 46.48C73.1115 47.14 73.3315 47.74 73.6315 48.28C73.9315 48.82 74.3115 49.26 74.7715 49.6C75.2515 49.94 75.8215 50.11 76.4815 50.11C77.1615 50.11 77.7415 49.93 78.2215 49.57C78.7015 49.21 79.0815 48.75 79.3615 48.19C79.6615 47.63 79.8715 47.03 79.9915 46.39C80.1315 45.73 80.2015 45.1 80.2015 44.5C80.2015 43.84 80.1315 43.18 79.9915 42.52C79.8515 41.86 79.6315 41.26 79.3315 40.72C79.0315 40.18 78.6415 39.74 78.1615 39.4C77.7015 39.06 77.1415 38.89 76.4815 38.89C75.7815 38.89 75.1915 39.07 74.7115 39.43C74.2515 39.79 73.8715 40.25 73.5715 40.81C73.2915 41.37 73.0815 41.98 72.9415 42.64C72.8215 43.28 72.7615 43.9 72.7615 44.5ZM97.8975 55.3C96.2975 55.3 94.8975 54.97 93.6975 54.31C92.4975 53.63 91.4875 52.77 90.6675 51.73C89.8675 50.67 89.2575 49.5 88.8375 48.22C88.4375 46.94 88.2375 45.7 88.2375 44.5C88.2375 43.22 88.4575 41.94 88.8975 40.66C89.3575 39.36 89.9975 38.2 90.8175 37.18C91.6575 36.14 92.6675 35.3 93.8475 34.66C95.0475 34.02 96.3975 33.7 97.8975 33.7C99.4775 33.7 100.868 34.05 102.068 34.75C103.288 35.43 104.298 36.3 105.098 37.36C105.918 38.42 106.528 39.59 106.928 40.87C107.348 42.13 107.558 43.34 107.558 44.5C107.558 45.8 107.328 47.1 106.868 48.4C106.428 49.68 105.788 50.83 104.948 51.85C104.128 52.87 103.118 53.7 101.918 54.34C100.738 54.98 99.3975 55.3 97.8975 55.3ZM94.1775 44.5C94.1775 45.16 94.2475 45.82 94.3875 46.48C94.5275 47.14 94.7475 47.74 95.0475 48.28C95.3475 48.82 95.7275 49.26 96.1875 49.6C96.6675 49.94 97.2375 50.11 97.8975 50.11C98.5775 50.11 99.1575 49.93 99.6375 49.57C100.118 49.21 100.498 48.75 100.778 48.19C101.078 47.63 101.288 47.03 101.408 46.39C101.548 45.73 101.618 45.1 101.618 44.5C101.618 43.84 101.548 43.18 101.408 42.52C101.268 41.86 101.048 41.26 100.748 40.72C100.448 40.18 100.058 39.74 99.5775 39.4C99.1175 39.06 98.5575 38.89 97.8975 38.89C97.1975 38.89 96.6075 39.07 96.1275 39.43C95.6675 39.79 95.2875 40.25 94.9875 40.81C94.7075 41.37 94.4975 41.98 94.3575 42.64C94.2375 43.28 94.1775 43.9 94.1775 44.5Z" fill="#A23E12"/>
<path d="M8.424 15.822V18H1.188V15.822H3.672V7.506C3.576 7.65 3.414 7.812 3.186 7.992C2.97 8.16 2.718 8.328 2.43 8.496C2.154 8.652 1.866 8.784 1.566 8.892C1.278 9 1.014 9.054 0.774 9.054V6.822C1.098 6.822 1.428 6.738 1.764 6.57C2.1 6.39 2.406 6.198 2.682 5.994C2.97 5.778 3.204 5.58 3.384 5.4C3.564 5.22 3.66 5.118 3.672 5.094H6.138V15.822H8.424ZM13.4862 18.18C12.6942 18.18 11.9202 18.054 11.1642 17.802C10.4082 17.55 9.76022 17.19 9.22022 16.722L10.1202 15.21C10.6962 15.618 11.2542 15.93 11.7942 16.146C12.3462 16.35 12.8922 16.452 13.4322 16.452C13.9122 16.452 14.2902 16.362 14.5662 16.182C14.8422 16.002 14.9802 15.744 14.9802 15.408C14.9802 15.072 14.8182 14.826 14.4942 14.67C14.1702 14.514 13.6422 14.334 12.9102 14.13C12.2982 13.962 11.7762 13.8 11.3442 13.644C10.9122 13.488 10.5642 13.314 10.3002 13.122C10.0362 12.918 9.84422 12.69 9.72422 12.438C9.60422 12.174 9.54422 11.862 9.54422 11.502C9.54422 11.022 9.63422 10.59 9.81422 10.206C10.0062 9.822 10.2702 9.498 10.6062 9.234C10.9422 8.958 11.3322 8.748 11.7762 8.604C12.2322 8.46 12.7242 8.388 13.2522 8.388C13.9602 8.388 14.6202 8.49 15.2322 8.694C15.8562 8.898 16.4262 9.228 16.9422 9.684L15.9702 11.142C15.4902 10.782 15.0222 10.518 14.5662 10.35C14.1222 10.182 13.6782 10.098 13.2342 10.098C12.8262 10.098 12.4842 10.182 12.2082 10.35C11.9322 10.518 11.7942 10.788 11.7942 11.16C11.7942 11.328 11.8242 11.466 11.8842 11.574C11.9562 11.682 12.0642 11.778 12.2082 11.862C12.3522 11.946 12.5382 12.03 12.7662 12.114C13.0062 12.186 13.3002 12.264 13.6482 12.348C14.2962 12.516 14.8482 12.684 15.3042 12.852C15.7722 13.02 16.1502 13.212 16.4382 13.428C16.7382 13.644 16.9542 13.896 17.0862 14.184C17.2302 14.46 17.3022 14.796 17.3022 15.192C17.3022 16.116 16.9602 16.848 16.2762 17.388C15.5922 17.916 14.6622 18.18 13.4862 18.18ZM24.5215 17.514C24.1975 17.658 23.8015 17.802 23.3335 17.946C22.8655 18.09 22.3735 18.162 21.8575 18.162C21.5215 18.162 21.2035 18.12 20.9035 18.036C20.6155 17.952 20.3575 17.82 20.1295 17.64C19.9135 17.448 19.7395 17.208 19.6075 16.92C19.4755 16.62 19.4095 16.26 19.4095 15.84V10.422H18.1675V8.568H19.4095V5.508H21.8215V8.568H23.8015V10.422H21.8215V15.03C21.8215 15.366 21.9055 15.606 22.0735 15.75C22.2535 15.882 22.4695 15.948 22.7215 15.948C22.9735 15.948 23.2195 15.906 23.4595 15.822C23.6995 15.738 23.8915 15.666 24.0355 15.606L24.5215 17.514ZM35.7539 18.18C35.0099 18.18 34.3619 18.018 33.8099 17.694C33.2579 17.358 32.8259 16.908 32.5139 16.344V21.834H30.1019V8.568H32.2079V10.188C32.5559 9.636 33.0059 9.204 33.5579 8.892C34.1099 8.568 34.7459 8.406 35.4659 8.406C36.1019 8.406 36.6899 8.538 37.2299 8.802C37.7699 9.054 38.2319 9.402 38.6159 9.846C39.0119 10.278 39.3179 10.794 39.5339 11.394C39.7619 11.982 39.8759 12.606 39.8759 13.266C39.8759 13.95 39.7739 14.592 39.5699 15.192C39.3659 15.792 39.0779 16.314 38.7059 16.758C38.3459 17.202 37.9139 17.55 37.4099 17.802C36.9059 18.054 36.3539 18.18 35.7539 18.18ZM34.9439 16.128C35.3039 16.128 35.6339 16.05 35.9339 15.894C36.2459 15.738 36.5099 15.528 36.7259 15.264C36.9419 15 37.1099 14.694 37.2299 14.346C37.3499 13.998 37.4099 13.638 37.4099 13.266C37.4099 12.87 37.3439 12.504 37.2119 12.168C37.0799 11.82 36.8939 11.52 36.6539 11.268C36.4259 11.016 36.1499 10.818 35.8259 10.674C35.5139 10.53 35.1719 10.458 34.7999 10.458C34.5719 10.458 34.3379 10.5 34.0979 10.584C33.8579 10.656 33.6359 10.764 33.4319 10.908C33.2279 11.052 33.0419 11.22 32.8739 11.412C32.7179 11.604 32.5979 11.814 32.5139 12.042V14.256C32.7299 14.796 33.0599 15.246 33.5039 15.606C33.9479 15.954 34.4279 16.128 34.9439 16.128ZM47.1261 10.656C46.3941 10.668 45.7401 10.812 45.1641 11.088C44.5881 11.352 44.1741 11.754 43.9221 12.294V18H41.5101V8.568H43.7241V10.584C43.8921 10.26 44.0901 9.972 44.3181 9.72C44.5461 9.456 44.7921 9.228 45.0561 9.036C45.3201 8.844 45.5841 8.7 45.8481 8.604C46.1241 8.496 46.3881 8.442 46.6401 8.442C46.7721 8.442 46.8681 8.442 46.9281 8.442C47.0001 8.442 47.0661 8.448 47.1261 8.46V10.656ZM48.471 18V8.568H50.883V18H48.471ZM48.471 7.254V4.86H50.883V7.254H48.471ZM52.4289 16.524L57.6849 10.26H52.6449V8.568H60.2229V10.044L55.0029 16.308H60.3129V18H52.4289V16.524ZM66.0638 18.18C65.3078 18.18 64.6238 18.054 64.0118 17.802C63.3998 17.538 62.8778 17.184 62.4458 16.74C62.0138 16.296 61.6778 15.78 61.4378 15.192C61.2098 14.604 61.0958 13.986 61.0958 13.338C61.0958 12.666 61.2098 12.036 61.4378 11.448C61.6658 10.848 61.9958 10.326 62.4278 9.882C62.8598 9.426 63.3818 9.066 63.9938 8.802C64.6178 8.538 65.3138 8.406 66.0818 8.406C66.8498 8.406 67.5338 8.538 68.1338 8.802C68.7458 9.066 69.2618 9.42 69.6818 9.864C70.1138 10.308 70.4378 10.824 70.6538 11.412C70.8818 12 70.9958 12.612 70.9958 13.248C70.9958 13.404 70.9898 13.554 70.9778 13.698C70.9778 13.842 70.9658 13.962 70.9418 14.058H63.6518C63.6878 14.43 63.7778 14.76 63.9218 15.048C64.0658 15.336 64.2518 15.582 64.4798 15.786C64.7078 15.99 64.9658 16.146 65.2538 16.254C65.5418 16.362 65.8418 16.416 66.1538 16.416C66.6338 16.416 67.0838 16.302 67.5038 16.074C67.9358 15.834 68.2298 15.522 68.3858 15.138L70.4558 15.714C70.1078 16.434 69.5498 17.028 68.7818 17.496C68.0258 17.952 67.1198 18.18 66.0638 18.18ZM68.5118 12.492C68.4518 11.784 68.1878 11.22 67.7198 10.8C67.2638 10.368 66.7058 10.152 66.0458 10.152C65.7218 10.152 65.4158 10.212 65.1278 10.332C64.8518 10.44 64.6058 10.596 64.3898 10.8C64.1738 11.004 63.9938 11.25 63.8498 11.538C63.7178 11.826 63.6398 12.144 63.6158 12.492H68.5118Z" fill="#0F1A26"/>
<path d="M0 84H432" stroke="#A13E12" stroke-width="2"/>
<path d="M16.23 162.91H12.96C12.72 163.79 12.3 164.6 11.7 165.34C11.12 166.06 10.41 166.67 9.57 167.17L14.97 175H8.37L1.2 163.96H5.82C6.28 163.96 6.66 163.61 6.96 162.91H1.2V159.31H6.93C6.77 158.95 6.57 158.68 6.33 158.5C6.11 158.3 5.89 158.2 5.67 158.2H1.2V153.7H16.23V157.3H12.15C12.53 157.98 12.81 158.65 12.99 159.31H16.23V162.91ZM39.9513 169.9V175H26.0613V169.9H30.3213V159.04C30.1613 159.28 29.8813 159.55 29.4813 159.85C29.1013 160.13 28.6713 160.41 28.1913 160.69C27.7313 160.95 27.2413 161.17 26.7213 161.35C26.2213 161.53 25.7713 161.62 25.3713 161.62V156.4C25.9113 156.4 26.4713 156.26 27.0513 155.98C27.6313 155.68 28.1613 155.36 28.6413 155.02C29.1213 154.68 29.5113 154.36 29.8113 154.06C30.1313 153.76 30.3013 153.59 30.3213 153.55H36.1413V169.9H39.9513ZM42.7355 179.71L43.8155 175H42.1055V169.48H46.8155V175L45.1955 179.71H42.7355ZM59.0205 175.3C57.4205 175.3 56.0205 174.97 54.8205 174.31C53.6205 173.63 52.6105 172.77 51.7905 171.73C50.9905 170.67 50.3805 169.5 49.9605 168.22C49.5605 166.94 49.3605 165.7 49.3605 164.5C49.3605 163.22 49.5805 161.94 50.0205 160.66C50.4805 159.36 51.1205 158.2 51.9405 157.18C52.7805 156.14 53.7905 155.3 54.9705 154.66C56.1705 154.02 57.5205 153.7 59.0205 153.7C60.6005 153.7 61.9905 154.05 63.1905 154.75C64.4105 155.43 65.4205 156.3 66.2205 157.36C67.0405 158.42 67.6505 159.59 68.0505 160.87C68.4705 162.13 68.6805 163.34 68.6805 164.5C68.6805 165.8 68.4505 167.1 67.9905 168.4C67.5505 169.68 66.9105 170.83 66.0705 171.85C65.2505 172.87 64.2405 173.7 63.0405 174.34C61.8605 174.98 60.5205 175.3 59.0205 175.3ZM55.3005 164.5C55.3005 165.16 55.3705 165.82 55.5105 166.48C55.6505 167.14 55.8705 167.74 56.1705 168.28C56.4705 168.82 56.8505 169.26 57.3105 169.6C57.7905 169.94 58.3605 170.11 59.0205 170.11C59.7005 170.11 60.2805 169.93 60.7605 169.57C61.2405 169.21 61.6205 168.75 61.9005 168.19C62.2005 167.63 62.4105 167.03 62.5305 166.39C62.6705 165.73 62.7405 165.1 62.7405 164.5C62.7405 163.84 62.6705 163.18 62.5305 162.52C62.3905 161.86 62.1705 161.26 61.8705 160.72C61.5705 160.18 61.1805 159.74 60.7005 159.4C60.2405 159.06 59.6805 158.89 59.0205 158.89C58.3205 158.89 57.7305 159.07 57.2505 159.43C56.7905 159.79 56.4105 160.25 56.1105 160.81C55.8305 161.37 55.6205 161.98 55.4805 162.64C55.3605 163.28 55.3005 163.9 55.3005 164.5ZM80.4366 175.3C78.8366 175.3 77.4366 174.97 76.2366 174.31C75.0366 173.63 74.0266 172.77 73.2066 171.73C72.4066 170.67 71.7966 169.5 71.3766 168.22C70.9766 166.94 70.7766 165.7 70.7766 164.5C70.7766 163.22 70.9966 161.94 71.4366 160.66C71.8966 159.36 72.5366 158.2 73.3566 157.18C74.1966 156.14 75.2066 155.3 76.3866 154.66C77.5866 154.02 78.9366 153.7 80.4366 153.7C82.0166 153.7 83.4066 154.05 84.6066 154.75C85.8266 155.43 86.8366 156.3 87.6366 157.36C88.4566 158.42 89.0666 159.59 89.4666 160.87C89.8866 162.13 90.0966 163.34 90.0966 164.5C90.0966 165.8 89.8666 167.1 89.4066 168.4C88.9666 169.68 88.3266 170.83 87.4866 171.85C86.6666 172.87 85.6566 173.7 84.4566 174.34C83.2766 174.98 81.9366 175.3 80.4366 175.3ZM76.7166 164.5C76.7166 165.16 76.7866 165.82 76.9266 166.48C77.0666 167.14 77.2866 167.74 77.5866 168.28C77.8866 168.82 78.2666 169.26 78.7266 169.6C79.2066 169.94 79.7766 170.11 80.4366 170.11C81.1166 170.11 81.6966 169.93 82.1766 169.57C82.6566 169.21 83.0366 168.75 83.3166 168.19C83.6166 167.63 83.8266 167.03 83.9466 166.39C84.0866 165.73 84.1566 165.1 84.1566 164.5C84.1566 163.84 84.0866 163.18 83.9466 162.52C83.8066 161.86 83.5866 161.26 83.2866 160.72C82.9866 160.18 82.5966 159.74 82.1166 159.4C81.6566 159.06 81.0966 158.89 80.4366 158.89C79.7366 158.89 79.1466 159.07 78.6666 159.43C78.2066 159.79 77.8266 160.25 77.5266 160.81C77.2466 161.37 77.0366 161.98 76.8966 162.64C76.7766 163.28 76.7166 163.9 76.7166 164.5ZM101.853 175.3C100.253 175.3 98.8526 174.97 97.6526 174.31C96.4526 173.63 95.4426 172.77 94.6226 171.73C93.8226 170.67 93.2126 169.5 92.7926 168.22C92.3926 166.94 92.1926 165.7 92.1926 164.5C92.1926 163.22 92.4126 161.94 92.8526 160.66C93.3126 159.36 93.9526 158.2 94.7726 157.18C95.6126 156.14 96.6226 155.3 97.8026 154.66C99.0026 154.02 100.353 153.7 101.853 153.7C103.433 153.7 104.823 154.05 106.023 154.75C107.243 155.43 108.253 156.3 109.053 157.36C109.873 158.42 110.483 159.59 110.883 160.87C111.303 162.13 111.513 163.34 111.513 164.5C111.513 165.8 111.283 167.1 110.823 168.4C110.383 169.68 109.743 170.83 108.903 171.85C108.083 172.87 107.073 173.7 105.873 174.34C104.693 174.98 103.353 175.3 101.853 175.3ZM98.1326 164.5C98.1326 165.16 98.2026 165.82 98.3426 166.48C98.4826 167.14 98.7026 167.74 99.0026 168.28C99.3026 168.82 99.6826 169.26 100.143 169.6C100.623 169.94 101.193 170.11 101.853 170.11C102.533 170.11 103.113 169.93 103.593 169.57C104.073 169.21 104.453 168.75 104.733 168.19C105.033 167.63 105.243 167.03 105.363 166.39C105.503 165.73 105.573 165.1 105.573 164.5C105.573 163.84 105.503 163.18 105.363 162.52C105.223 161.86 105.003 161.26 104.703 160.72C104.403 160.18 104.013 159.74 103.533 159.4C103.073 159.06 102.513 158.89 101.853 158.89C101.153 158.89 100.563 159.07 100.083 159.43C99.6226 159.79 99.2426 160.25 98.9426 160.81C98.6626 161.37 98.4526 161.98 98.3126 162.64C98.1926 163.28 98.1326 163.9 98.1326 164.5Z" fill="#A23E12"/>
<path d="M0.738 138C0.738 137.172 0.792 136.452 0.9 135.84C1.02 135.216 1.206 134.67 1.458 134.202C1.722 133.734 2.064 133.326 2.484 132.978C2.904 132.63 3.42 132.306 4.032 132.006C4.428 131.814 4.818 131.634 5.202 131.466C5.586 131.286 5.934 131.082 6.246 130.854C6.558 130.626 6.81 130.368 7.002 130.08C7.194 129.78 7.29 129.42 7.29 129C7.29 128.46 7.122 128.034 6.786 127.722C6.462 127.398 6 127.236 5.4 127.236C5.064 127.236 4.74 127.284 4.428 127.38C4.128 127.476 3.846 127.602 3.582 127.758C3.318 127.902 3.078 128.064 2.862 128.244C2.646 128.424 2.46 128.598 2.304 128.766L0.792 127.182C0.948 126.99 1.176 126.774 1.476 126.534C1.776 126.282 2.13 126.048 2.538 125.832C2.958 125.616 3.432 125.436 3.96 125.292C4.488 125.136 5.07 125.058 5.706 125.058C6.402 125.058 7.014 125.154 7.542 125.346C8.082 125.538 8.532 125.808 8.892 126.156C9.264 126.492 9.54 126.9 9.72 127.38C9.912 127.86 10.008 128.388 10.008 128.964C10.008 129.516 9.924 129.996 9.756 130.404C9.588 130.8 9.36 131.154 9.072 131.466C8.796 131.778 8.466 132.054 8.082 132.294C7.71 132.522 7.308 132.738 6.876 132.942C6.42 133.17 6.006 133.392 5.634 133.608C5.274 133.812 4.962 134.028 4.698 134.256C4.446 134.484 4.248 134.724 4.104 134.976C3.972 135.228 3.906 135.51 3.906 135.822H10.026V138H0.738ZM20.8152 138H18.4032V132.708C18.4032 131.952 18.2712 131.4 18.0072 131.052C17.7432 130.704 17.3772 130.53 16.9092 130.53C16.6692 130.53 16.4232 130.578 16.1712 130.674C15.9192 130.77 15.6792 130.908 15.4512 131.088C15.2352 131.256 15.0372 131.46 14.8572 131.7C14.6772 131.94 14.5452 132.204 14.4612 132.492V138H12.0492V128.568H14.2272V130.314C14.5752 129.714 15.0792 129.246 15.7392 128.91C16.3992 128.574 17.1432 128.406 17.9712 128.406C18.5592 128.406 19.0392 128.514 19.4112 128.73C19.7832 128.946 20.0712 129.228 20.2752 129.576C20.4792 129.924 20.6172 130.32 20.6892 130.764C20.7732 131.208 20.8152 131.658 20.8152 132.114V138ZM26.8185 138.18C26.1705 138.18 25.5705 138.054 25.0185 137.802C24.4665 137.55 23.9925 137.202 23.5965 136.758C23.2005 136.314 22.8885 135.798 22.6605 135.21C22.4445 134.61 22.3365 133.968 22.3365 133.284C22.3365 132.6 22.4385 131.964 22.6425 131.376C22.8585 130.788 23.1525 130.272 23.5245 129.828C23.8965 129.384 24.3405 129.036 24.8565 128.784C25.3725 128.532 25.9365 128.406 26.5485 128.406C27.2445 128.406 27.8685 128.574 28.4205 128.91C28.9845 129.246 29.4225 129.684 29.7345 130.224V124.86H32.1465V135.228C32.1465 135.48 32.1885 135.66 32.2725 135.768C32.3565 135.876 32.5005 135.936 32.7045 135.948V138C32.2845 138.084 31.9425 138.126 31.6785 138.126C31.2465 138.126 30.8925 138.018 30.6165 137.802C30.3405 137.586 30.1845 137.304 30.1485 136.956L30.0945 136.362C29.7465 136.962 29.2725 137.418 28.6725 137.73C28.0845 138.03 27.4665 138.18 26.8185 138.18ZM27.4485 136.128C27.6765 136.128 27.9105 136.092 28.1505 136.02C28.3905 135.936 28.6125 135.822 28.8165 135.678C29.0205 135.534 29.2005 135.366 29.3565 135.174C29.5245 134.982 29.6505 134.772 29.7345 134.544V132.294C29.6385 132.03 29.5005 131.79 29.3205 131.574C29.1525 131.346 28.9545 131.154 28.7265 130.998C28.5105 130.83 28.2765 130.698 28.0245 130.602C27.7845 130.506 27.5445 130.458 27.3045 130.458C26.9445 130.458 26.6085 130.536 26.2965 130.692C25.9965 130.848 25.7385 131.064 25.5225 131.34C25.3065 131.604 25.1385 131.91 25.0185 132.258C24.8985 132.606 24.8385 132.966 24.8385 133.338C24.8385 133.734 24.9045 134.1 25.0365 134.436C25.1685 134.772 25.3485 135.066 25.5765 135.318C25.8045 135.57 26.0745 135.768 26.3865 135.912C26.7105 136.056 27.0645 136.128 27.4485 136.128ZM44.4902 138.18C43.7462 138.18 43.0982 138.018 42.5462 137.694C41.9942 137.358 41.5622 136.908 41.2502 136.344V141.834H38.8382V128.568H40.9442V130.188C41.2922 129.636 41.7422 129.204 42.2942 128.892C42.8462 128.568 43.4822 128.406 44.2022 128.406C44.8382 128.406 45.4262 128.538 45.9662 128.802C46.5062 129.054 46.9682 129.402 47.3522 129.846C47.7482 130.278 48.0542 130.794 48.2702 131.394C48.4982 131.982 48.6122 132.606 48.6122 133.266C48.6122 133.95 48.5102 134.592 48.3062 135.192C48.1022 135.792 47.8142 136.314 47.4422 136.758C47.0822 137.202 46.6502 137.55 46.1462 137.802C45.6422 138.054 45.0902 138.18 44.4902 138.18ZM43.6802 136.128C44.0402 136.128 44.3702 136.05 44.6702 135.894C44.9822 135.738 45.2462 135.528 45.4622 135.264C45.6782 135 45.8462 134.694 45.9662 134.346C46.0862 133.998 46.1462 133.638 46.1462 133.266C46.1462 132.87 46.0802 132.504 45.9482 132.168C45.8162 131.82 45.6302 131.52 45.3902 131.268C45.1622 131.016 44.8862 130.818 44.5622 130.674C44.2502 130.53 43.9082 130.458 43.5362 130.458C43.3082 130.458 43.0742 130.5 42.8342 130.584C42.5942 130.656 42.3722 130.764 42.1682 130.908C41.9642 131.052 41.7782 131.22 41.6102 131.412C41.4542 131.604 41.3342 131.814 41.2502 132.042V134.256C41.4662 134.796 41.7962 135.246 42.2402 135.606C42.6842 135.954 43.1642 136.128 43.6802 136.128ZM55.8624 130.656C55.1304 130.668 54.4764 130.812 53.9004 131.088C53.3244 131.352 52.9104 131.754 52.6584 132.294V138H50.2464V128.568H52.4604V130.584C52.6284 130.26 52.8264 129.972 53.0544 129.72C53.2824 129.456 53.5284 129.228 53.7924 129.036C54.0564 128.844 54.3204 128.7 54.5844 128.604C54.8604 128.496 55.1244 128.442 55.3764 128.442C55.5084 128.442 55.6044 128.442 55.6644 128.442C55.7364 128.442 55.8024 128.448 55.8624 128.46V130.656ZM57.2074 138V128.568H59.6194V138H57.2074ZM57.2074 127.254V124.86H59.6194V127.254H57.2074ZM61.1653 136.524L66.4213 130.26H61.3813V128.568H68.9593V130.044L63.7393 136.308H69.0493V138H61.1653V136.524ZM74.8001 138.18C74.0441 138.18 73.3601 138.054 72.7481 137.802C72.1361 137.538 71.6141 137.184 71.1821 136.74C70.7501 136.296 70.4141 135.78 70.1741 135.192C69.9461 134.604 69.8321 133.986 69.8321 133.338C69.8321 132.666 69.9461 132.036 70.1741 131.448C70.4021 130.848 70.7321 130.326 71.1641 129.882C71.5961 129.426 72.1181 129.066 72.7301 128.802C73.3541 128.538 74.0501 128.406 74.8181 128.406C75.5861 128.406 76.2701 128.538 76.8701 128.802C77.4821 129.066 77.9981 129.42 78.4181 129.864C78.8501 130.308 79.1741 130.824 79.3901 131.412C79.6181 132 79.7321 132.612 79.7321 133.248C79.7321 133.404 79.7261 133.554 79.7141 133.698C79.7141 133.842 79.7021 133.962 79.6781 134.058H72.3881C72.4241 134.43 72.5141 134.76 72.6581 135.048C72.8021 135.336 72.9881 135.582 73.2161 135.786C73.4441 135.99 73.7021 136.146 73.9901 136.254C74.2781 136.362 74.5781 136.416 74.8901 136.416C75.3701 136.416 75.8201 136.302 76.2401 136.074C76.6721 135.834 76.9661 135.522 77.1221 135.138L79.1921 135.714C78.8441 136.434 78.2861 137.028 77.5181 137.496C76.7621 137.952 75.8561 138.18 74.8001 138.18ZM77.2481 132.492C77.1881 131.784 76.9241 131.22 76.4561 130.8C76.0001 130.368 75.4421 130.152 74.7821 130.152C74.4581 130.152 74.1521 130.212 73.8641 130.332C73.5881 130.44 73.3421 130.596 73.1261 130.8C72.9101 131.004 72.7301 131.25 72.5861 131.538C72.4541 131.826 72.3761 132.144 72.3521 132.492H77.2481Z" fill="#0F1A26"/>
<path d="M334.23 42.91H330.96C330.72 43.79 330.3 44.6 329.7 45.34C329.12 46.06 328.41 46.67 327.57 47.17L332.97 55H326.37L319.2 43.96H323.82C324.28 43.96 324.66 43.61 324.96 42.91H319.2V39.31H324.93C324.77 38.95 324.57 38.68 324.33 38.5C324.11 38.3 323.89 38.2 323.67 38.2H319.2V33.7H334.23V37.3H330.15C330.53 37.98 330.81 38.65 330.99 39.31H334.23V42.91ZM351.411 41.02C352.451 41.02 353.401 41.19 354.261 41.53C355.121 41.87 355.861 42.35 356.481 42.97C357.121 43.57 357.611 44.3 357.951 45.16C358.311 46 358.491 46.93 358.491 47.95C358.491 49.03 358.291 50.02 357.891 50.92C357.491 51.82 356.921 52.59 356.181 53.23C355.461 53.87 354.591 54.37 353.571 54.73C352.571 55.09 351.461 55.27 350.241 55.27C348.681 55.27 347.271 54.98 346.011 54.4C344.771 53.82 343.811 52.99 343.131 51.91L346.251 48.31C346.831 48.93 347.471 49.42 348.171 49.78C348.891 50.12 349.591 50.29 350.271 50.29C351.011 50.29 351.591 50.09 352.011 49.69C352.431 49.29 352.641 48.75 352.641 48.07C352.641 47.41 352.451 46.88 352.071 46.48C351.691 46.08 351.191 45.88 350.571 45.88C350.151 45.88 349.761 45.98 349.401 46.18C349.061 46.36 348.801 46.61 348.621 46.93H343.731L346.251 33.67H356.931V38.86H350.361L350.031 41.17C350.111 41.15 350.221 41.13 350.361 41.11C350.461 41.09 350.601 41.07 350.781 41.05C350.961 41.03 351.171 41.02 351.411 41.02ZM370.282 55.3C368.682 55.3 367.282 54.97 366.082 54.31C364.882 53.63 363.872 52.77 363.052 51.73C362.252 50.67 361.642 49.5 361.222 48.22C360.822 46.94 360.622 45.7 360.622 44.5C360.622 43.22 360.842 41.94 361.282 40.66C361.742 39.36 362.382 38.2 363.202 37.18C364.042 36.14 365.052 35.3 366.232 34.66C367.432 34.02 368.782 33.7 370.282 33.7C371.862 33.7 373.252 34.05 374.452 34.75C375.672 35.43 376.682 36.3 377.482 37.36C378.302 38.42 378.912 39.59 379.312 40.87C379.732 42.13 379.942 43.34 379.942 44.5C379.942 45.8 379.712 47.1 379.252 48.4C378.812 49.68 378.172 50.83 377.332 51.85C376.512 52.87 375.502 53.7 374.302 54.34C373.122 54.98 371.782 55.3 370.282 55.3ZM366.562 44.5C366.562 45.16 366.632 45.82 366.772 46.48C366.912 47.14 367.132 47.74 367.432 48.28C367.732 48.82 368.112 49.26 368.572 49.6C369.052 49.94 369.622 50.11 370.282 50.11C370.962 50.11 371.542 49.93 372.022 49.57C372.502 49.21 372.882 48.75 373.162 48.19C373.462 47.63 373.672 47.03 373.792 46.39C373.932 45.73 374.002 45.1 374.002 44.5C374.002 43.84 373.932 43.18 373.792 42.52C373.652 41.86 373.432 41.26 373.132 40.72C372.832 40.18 372.442 39.74 371.962 39.4C371.502 39.06 370.942 38.89 370.282 38.89C369.582 38.89 368.992 39.07 368.512 39.43C368.052 39.79 367.672 40.25 367.372 40.81C367.092 41.37 366.882 41.98 366.742 42.64C366.622 43.28 366.562 43.9 366.562 44.5ZM391.698 55.3C390.098 55.3 388.698 54.97 387.498 54.31C386.298 53.63 385.288 52.77 384.468 51.73C383.668 50.67 383.058 49.5 382.638 48.22C382.238 46.94 382.038 45.7 382.038 44.5C382.038 43.22 382.258 41.94 382.698 40.66C383.158 39.36 383.798 38.2 384.618 37.18C385.458 36.14 386.468 35.3 387.648 34.66C388.848 34.02 390.198 33.7 391.698 33.7C393.278 33.7 394.668 34.05 395.868 34.75C397.088 35.43 398.098 36.3 398.898 37.36C399.718 38.42 400.328 39.59 400.728 40.87C401.148 42.13 401.358 43.34 401.358 44.5C401.358 45.8 401.128 47.1 400.668 48.4C400.228 49.68 399.588 50.83 398.748 51.85C397.928 52.87 396.918 53.7 395.718 54.34C394.538 54.98 393.198 55.3 391.698 55.3ZM387.978 44.5C387.978 45.16 388.048 45.82 388.188 46.48C388.328 47.14 388.548 47.74 388.848 48.28C389.148 48.82 389.528 49.26 389.988 49.6C390.468 49.94 391.038 50.11 391.698 50.11C392.378 50.11 392.958 49.93 393.438 49.57C393.918 49.21 394.298 48.75 394.578 48.19C394.878 47.63 395.088 47.03 395.208 46.39C395.348 45.73 395.418 45.1 395.418 44.5C395.418 43.84 395.348 43.18 395.208 42.52C395.068 41.86 394.848 41.26 394.548 40.72C394.248 40.18 393.858 39.74 393.378 39.4C392.918 39.06 392.358 38.89 391.698 38.89C390.998 38.89 390.408 39.07 389.928 39.43C389.468 39.79 389.088 40.25 388.788 40.81C388.508 41.37 388.298 41.98 388.158 42.64C388.038 43.28 387.978 43.9 387.978 44.5Z" fill="#A23E12"/>
<path d="M322.914 18.162C321.87 18.162 320.982 17.946 320.25 17.514C319.53 17.082 319.026 16.464 318.738 15.66L320.016 14.076C320.052 14.244 320.136 14.436 320.268 14.652C320.4 14.856 320.58 15.06 320.808 15.264C321.048 15.456 321.336 15.618 321.672 15.75C322.02 15.882 322.422 15.948 322.878 15.948C323.19 15.948 323.484 15.912 323.76 15.84C324.048 15.756 324.3 15.642 324.516 15.498C324.732 15.354 324.9 15.18 325.02 14.976C325.152 14.76 325.218 14.514 325.218 14.238C325.218 13.626 324.894 13.17 324.246 12.87C323.598 12.57 322.692 12.42 321.528 12.42H320.934V10.404H321.528C322.008 10.404 322.452 10.374 322.86 10.314C323.268 10.242 323.622 10.14 323.922 10.008C324.222 9.864 324.456 9.684 324.624 9.468C324.792 9.252 324.876 8.994 324.876 8.694C324.876 8.43 324.816 8.202 324.696 8.01C324.588 7.818 324.444 7.662 324.264 7.542C324.084 7.422 323.88 7.332 323.652 7.272C323.436 7.212 323.22 7.182 323.004 7.182C322.644 7.182 322.314 7.23 322.014 7.326C321.714 7.41 321.45 7.524 321.222 7.668C320.994 7.8 320.796 7.956 320.628 8.136C320.472 8.304 320.346 8.472 320.25 8.64L318.702 6.894C318.906 6.606 319.164 6.348 319.476 6.12C319.788 5.892 320.136 5.7 320.52 5.544C320.904 5.388 321.306 5.268 321.726 5.184C322.146 5.1 322.566 5.058 322.986 5.058C323.634 5.058 324.228 5.148 324.768 5.328C325.32 5.508 325.794 5.76 326.19 6.084C326.586 6.396 326.892 6.768 327.108 7.2C327.336 7.62 327.45 8.076 327.45 8.568C327.45 9.288 327.234 9.882 326.802 10.35C326.37 10.806 325.782 11.118 325.038 11.286C325.446 11.358 325.812 11.496 326.136 11.7C326.472 11.892 326.754 12.138 326.982 12.438C327.222 12.726 327.402 13.056 327.522 13.428C327.654 13.788 327.72 14.166 327.72 14.562C327.72 15.174 327.582 15.708 327.306 16.164C327.03 16.608 326.664 16.98 326.208 17.28C325.764 17.568 325.254 17.79 324.678 17.946C324.102 18.09 323.514 18.162 322.914 18.162ZM335.243 10.656C334.511 10.668 333.857 10.812 333.281 11.088C332.705 11.352 332.291 11.754 332.039 12.294V18H329.627V8.568H331.841V10.584C332.009 10.26 332.207 9.972 332.435 9.72C332.663 9.456 332.909 9.228 333.173 9.036C333.437 8.844 333.701 8.7 333.965 8.604C334.241 8.496 334.505 8.442 334.757 8.442C334.889 8.442 334.985 8.442 335.045 8.442C335.117 8.442 335.183 8.448 335.243 8.46V10.656ZM340.02 18.18C339.372 18.18 338.772 18.054 338.22 17.802C337.668 17.55 337.194 17.202 336.798 16.758C336.402 16.314 336.09 15.798 335.862 15.21C335.646 14.61 335.538 13.968 335.538 13.284C335.538 12.6 335.64 11.964 335.844 11.376C336.06 10.788 336.354 10.272 336.726 9.828C337.098 9.384 337.542 9.036 338.058 8.784C338.574 8.532 339.138 8.406 339.75 8.406C340.446 8.406 341.07 8.574 341.622 8.91C342.186 9.246 342.624 9.684 342.936 10.224V4.86H345.348V15.228C345.348 15.48 345.39 15.66 345.474 15.768C345.558 15.876 345.702 15.936 345.906 15.948V18C345.486 18.084 345.144 18.126 344.88 18.126C344.448 18.126 344.094 18.018 343.818 17.802C343.542 17.586 343.386 17.304 343.35 16.956L343.296 16.362C342.948 16.962 342.474 17.418 341.874 17.73C341.286 18.03 340.668 18.18 340.02 18.18ZM340.65 16.128C340.878 16.128 341.112 16.092 341.352 16.02C341.592 15.936 341.814 15.822 342.018 15.678C342.222 15.534 342.402 15.366 342.558 15.174C342.726 14.982 342.852 14.772 342.936 14.544V12.294C342.84 12.03 342.702 11.79 342.522 11.574C342.354 11.346 342.156 11.154 341.928 10.998C341.712 10.83 341.478 10.698 341.226 10.602C340.986 10.506 340.746 10.458 340.506 10.458C340.146 10.458 339.81 10.536 339.498 10.692C339.198 10.848 338.94 11.064 338.724 11.34C338.508 11.604 338.34 11.91 338.22 12.258C338.1 12.606 338.04 12.966 338.04 13.338C338.04 13.734 338.106 14.1 338.238 14.436C338.37 14.772 338.55 15.066 338.778 15.318C339.006 15.57 339.276 15.768 339.588 15.912C339.912 16.056 340.266 16.128 340.65 16.128ZM357.691 18.18C356.947 18.18 356.299 18.018 355.747 17.694C355.195 17.358 354.763 16.908 354.451 16.344V21.834H352.039V8.568H354.145V10.188C354.493 9.636 354.943 9.204 355.495 8.892C356.047 8.568 356.683 8.406 357.403 8.406C358.039 8.406 358.627 8.538 359.167 8.802C359.707 9.054 360.169 9.402 360.553 9.846C360.949 10.278 361.255 10.794 361.471 11.394C361.699 11.982 361.813 12.606 361.813 13.266C361.813 13.95 361.711 14.592 361.507 15.192C361.303 15.792 361.015 16.314 360.643 16.758C360.283 17.202 359.851 17.55 359.347 17.802C358.843 18.054 358.291 18.18 357.691 18.18ZM356.881 16.128C357.241 16.128 357.571 16.05 357.871 15.894C358.183 15.738 358.447 15.528 358.663 15.264C358.879 15 359.047 14.694 359.167 14.346C359.287 13.998 359.347 13.638 359.347 13.266C359.347 12.87 359.281 12.504 359.149 12.168C359.017 11.82 358.831 11.52 358.591 11.268C358.363 11.016 358.087 10.818 357.763 10.674C357.451 10.53 357.109 10.458 356.737 10.458C356.509 10.458 356.275 10.5 356.035 10.584C355.795 10.656 355.573 10.764 355.369 10.908C355.165 11.052 354.979 11.22 354.811 11.412C354.655 11.604 354.535 11.814 354.451 12.042V14.256C354.667 14.796 354.997 15.246 355.441 15.606C355.885 15.954 356.365 16.128 356.881 16.128ZM369.064 10.656C368.332 10.668 367.678 10.812 367.102 11.088C366.526 11.352 366.112 11.754 365.86 12.294V18H363.448V8.568H365.662V10.584C365.83 10.26 366.028 9.972 366.256 9.72C366.484 9.456 366.73 9.228 366.994 9.036C367.258 8.844 367.522 8.7 367.786 8.604C368.062 8.496 368.326 8.442 368.578 8.442C368.71 8.442 368.806 8.442 368.866 8.442C368.938 8.442 369.004 8.448 369.064 8.46V10.656ZM370.409 18V8.568H372.821V18H370.409ZM370.409 7.254V4.86H372.821V7.254H370.409ZM374.366 16.524L379.622 10.26H374.582V8.568H382.16V10.044L376.94 16.308H382.25V18H374.366V16.524ZM388.001 18.18C387.245 18.18 386.561 18.054 385.949 17.802C385.337 17.538 384.815 17.184 384.383 16.74C383.951 16.296 383.615 15.78 383.375 15.192C383.147 14.604 383.033 13.986 383.033 13.338C383.033 12.666 383.147 12.036 383.375 11.448C383.603 10.848 383.933 10.326 384.365 9.882C384.797 9.426 385.319 9.066 385.931 8.802C386.555 8.538 387.251 8.406 388.019 8.406C388.787 8.406 389.471 8.538 390.071 8.802C390.683 9.066 391.199 9.42 391.619 9.864C392.051 10.308 392.375 10.824 392.591 11.412C392.819 12 392.933 12.612 392.933 13.248C392.933 13.404 392.927 13.554 392.915 13.698C392.915 13.842 392.903 13.962 392.879 14.058H385.589C385.625 14.43 385.715 14.76 385.859 15.048C386.003 15.336 386.189 15.582 386.417 15.786C386.645 15.99 386.903 16.146 387.191 16.254C387.479 16.362 387.779 16.416 388.091 16.416C388.571 16.416 389.021 16.302 389.441 16.074C389.873 15.834 390.167 15.522 390.323 15.138L392.393 15.714C392.045 16.434 391.487 17.028 390.719 17.496C389.963 17.952 389.057 18.18 388.001 18.18ZM390.449 12.492C390.389 11.784 390.125 11.22 389.657 10.8C389.201 10.368 388.643 10.152 387.983 10.152C387.659 10.152 387.353 10.212 387.065 10.332C386.789 10.44 386.543 10.596 386.327 10.8C386.111 11.004 385.931 11.25 385.787 11.538C385.655 11.826 385.577 12.144 385.553 12.492H390.449Z" fill="#0F1A26"/>
</svg>
