<svg width="1407" height="1086" viewBox="0 0 1407 1086" fill="none" xmlns="http://www.w3.org/2000/svg">
<path d="M1364.99 544.092L1373.08 571.425C1373.08 571.425 1352.18 638.95 1331.25 728.988C1310.33 819.026 1273.36 987.765 1268.52 1024.8C1263.68 1061.84 1268.52 1082.69 1225.11 1084.29C1181.69 1085.89 1110.9 1084.29 1061.03 1084.29C1011.16 1084.29 888.931 1060.17 840.679 1056.96C792.428 1053.74 689.485 1052.1 612.285 1044.1C535.086 1036.09 380.606 981.473 305.009 968.535C229.411 955.596 107.164 958.83 68.5563 854.382C29.9485 749.933 34.7866 598.839 26.7447 569.824C18.7027 540.809 15.418 523.196 15.418 523.196C15.418 523.196 42.7638 530.361 36.3238 480.158C29.8838 429.955 15.4989 346.354 15.4989 346.354C15.4989 346.354 33.1847 375.288 38.0228 399.403L42.8771 423.518C42.8771 423.518 47.7314 388.146 30.0132 335.097C12.2951 282.048 0.936035 259.534 0.936035 259.534C0.936035 259.534 44.3657 306.147 47.5858 344.737C50.8058 383.327 65.2877 346.354 55.6762 322.239C46.0647 298.124 12.2627 233.802 23.5894 209.687C34.9161 185.573 165.076 153.387 237.453 148.535C309.831 143.683 515.766 89.049 629.906 76.191C744.047 63.333 840.615 50.4589 919.432 42.4206C998.25 34.3823 1260.41 -13.8472 1270.07 5.44785C1279.73 24.7429 1364.99 544.092 1364.99 544.092Z" fill="url(#paint0_linear)"/>
<path style="mix-blend-mode:multiply" opacity="0.4" d="M58.8631 337.766C59.3533 330.319 58.2501 322.854 55.6269 315.867C47.6497 295.925 23.265 248.552 21.3719 219.1C19.3978 247.55 47.0349 300.825 55.6269 322.288C57.5452 327.235 58.6384 332.464 58.8631 337.766ZM43.3779 408.056C43.6854 394.325 42.3586 365.892 29.9639 328.725C19.8832 298.529 11.906 278.247 6.88987 266.359C3.34624 262.122 1 259.599 1 259.599C1 259.599 12.3267 282.096 29.9639 335.162C40.6596 367.202 43.1029 392.756 43.3779 407.991V408.056ZM1372.05 568.174C1367.72 582.455 1349.39 643.915 1331.19 722.567C1310.28 812.605 1273.29 981.344 1268.45 1018.38C1263.62 1055.42 1268.45 1076.27 1225.04 1077.87C1181.63 1079.47 1110.84 1077.87 1060.97 1077.87C1011.1 1077.87 888.866 1053.75 840.614 1050.53C792.362 1047.32 689.419 1045.68 612.22 1037.6C535.02 1029.51 380.605 975.004 305.008 962.065C229.41 949.126 107.163 952.361 68.5555 847.928C29.9477 743.495 34.7859 592.321 26.8248 563.387C21.6793 544.917 18.524 531.04 16.9059 523.422C16.4542 523.372 16.0058 523.297 15.5629 523.195C15.5629 523.195 18.7991 540.873 26.8895 569.824C34.98 598.775 30.1258 749.884 68.7012 854.381C107.277 958.879 229.41 955.595 305.008 968.534C380.605 981.473 535.004 1036.06 612.22 1044.1C689.435 1052.14 792.362 1053.8 840.614 1056.96C888.866 1060.11 1011.11 1084.29 1060.97 1084.29C1110.82 1084.29 1181.61 1085.91 1225.04 1084.29C1268.47 1082.67 1263.63 1061.77 1268.45 1024.8C1273.28 987.829 1310.28 819.01 1331.19 728.988C1352.09 638.966 1373.08 571.425 1373.08 571.425L1372.05 568.174ZM15.4982 346.354C15.4982 346.354 29.9639 429.955 36.3878 480.093C36.9056 484.153 37.1483 487.711 37.2615 491.059C37.4658 485.243 37.1735 479.421 36.3878 473.656C31.2422 433.448 20.935 371.876 16.9706 348.925C16.0645 347.308 15.4982 346.354 15.4982 346.354Z" fill="url(#paint1_linear)"/>
<g style="mix-blend-mode:multiply" opacity="0.5">
<path d="M465.62 550.27C416.898 651.954 377.797 757.97 348.826 866.932C339.894 900.799 332.855 936.964 323.212 972.06L324.457 972.335C334.069 937.271 341.108 901.171 350.007 867.401C378.826 758.343 418.582 652.665 466.818 550.739C466.85 550.674 465.685 550.141 465.62 550.27ZM495.604 551.305C495.604 551.208 494.471 550.691 494.406 550.82C445.892 652.547 406.997 758.584 378.227 867.547C368.874 903.339 361.625 941.702 351.188 978.675L352.418 978.999C362.839 942.058 370.072 903.775 379.424 868.048C408.032 758.99 447.53 653.279 495.604 551.257V551.305ZM408.064 549.203C358.896 650.787 319.35 756.75 289.943 865.703C281.546 897.096 274.75 930.397 265.996 963.132L267.274 963.294C275.979 930.721 282.759 897.468 291.125 866.253C320.348 757.227 360.509 651.581 409.246 549.752C409.294 549.639 408.129 549.073 408.064 549.203ZM524.373 551.839C524.373 551.758 523.241 551.224 523.192 551.354C474.882 653.159 436.197 759.256 407.644 868.258C397.79 906.185 390.33 947.007 378.923 986.034L380.169 986.374C391.495 947.395 398.987 906.638 408.825 868.743C437.223 759.604 476.656 653.878 524.373 551.839ZM436.85 549.736C387.919 651.375 348.601 757.363 319.409 866.317C310.801 898.665 303.94 933.26 294.83 966.933L296.092 967.127C305.17 933.535 312.014 899.198 320.606 866.851C349.619 757.793 389.586 652.147 438.032 550.27C438.08 550.141 436.915 549.639 436.85 549.736ZM668.238 554.588C668.238 554.491 667.105 553.958 667.057 554.087C619.804 656.106 582.177 762.309 554.664 871.315C542.302 920.758 534.049 975.036 515.927 1024.06L517.173 1024.4C535.263 975.408 543.499 921.194 555.845 871.816C583.24 762.677 621.556 656.805 668.271 554.491L668.238 554.588ZM379.295 548.669C329.929 650.183 290.187 756.098 260.591 865.024C252.404 895.397 245.721 927.631 237.307 959.283L238.569 959.461C246.967 927.906 253.617 895.786 261.772 865.509C291.222 756.467 331.577 650.87 380.476 549.089C380.525 549.073 379.343 548.539 379.295 548.669ZM697.057 555.138C697.057 555.041 695.924 554.524 695.859 554.637C648.835 656.689 611.42 762.895 584.097 871.881C571.314 923.459 563.062 980.244 543.321 1030.95L544.583 1031.26C564.227 980.632 572.512 923.879 585.295 872.382C612.43 763.276 650.552 657.387 697.057 555.074V555.138ZM581.929 552.874C581.929 552.777 580.812 552.243 580.748 552.373C532.866 654.255 494.604 760.382 466.462 869.374C455.588 911.911 447.724 958.054 433.954 1001.29L435.184 1001.63C448.921 958.442 456.785 912.364 467.643 869.876C495.636 760.834 534.583 655.058 581.929 552.874ZM553.159 552.34C553.159 552.243 552.026 551.709 551.962 551.839C503.871 653.665 465.409 759.761 437.077 868.743C426.705 908.951 419.035 952.377 406.511 993.522L407.741 993.862C420.233 952.765 427.902 909.388 438.258 869.229C466.429 760.219 505.587 654.46 553.159 552.389V552.34ZM610.715 553.408C610.715 553.311 609.582 552.793 609.534 552.906C561.858 654.851 523.808 761.022 495.879 870.037C484.552 914.903 476.461 963.844 461.332 1009.05L462.562 1009.4C477.659 964.119 485.685 915.356 497.06 870.523C524.826 761.513 563.58 655.641 610.715 553.456V553.408ZM639.501 553.941C639.501 553.861 638.368 553.327 638.303 553.456C590.846 655.43 553.008 761.605 525.279 870.603C513.403 917.798 505.231 969.408 488.646 1016.62L489.892 1016.96C506.445 969.78 514.6 918.299 526.477 871.089C554.033 762.047 592.56 656.223 639.501 553.99V553.941ZM149.04 544.318C110.21 621.434 76.8808 701.196 49.3002 783.007C49.4782 783.865 49.6562 784.722 49.818 785.579C77.5206 703.031 111.079 622.563 150.237 544.787C150.269 544.787 149.121 544.221 149.04 544.367V544.318ZM62.698 542.701C51.6788 564.325 41.1773 586.191 30.9995 608.22C30.9995 609.093 31.129 609.967 31.1775 610.872C41.6628 588.111 52.5687 565.554 63.8954 543.202C63.944 543.17 62.7789 542.62 62.698 542.749V542.701ZM120.27 543.768C90.4174 602.886 63.7667 663.565 40.433 725.543L40.7728 728.26C64.3086 665.513 91.2412 604.092 121.451 544.27C121.451 544.27 120.335 543.687 120.27 543.817V543.768ZM177.826 544.852C131.003 638.219 92.3218 735.448 62.2126 835.458C62.4391 836.186 62.6818 836.898 62.9084 837.626C93.0831 737.03 131.928 639.24 179.007 545.353C179.055 545.321 177.89 544.787 177.826 544.9V544.852ZM206.611 545.386C155.985 646.634 114.98 752.409 84.1378 861.32C82.6006 866.754 81.1281 872.237 79.6719 877.784C79.9793 878.302 80.2705 878.852 80.578 879.402C82.1098 873.482 83.6901 867.628 85.319 861.837C116.169 752.934 157.173 647.165 207.793 545.919C207.793 545.919 206.676 545.305 206.611 545.434V545.386ZM235.381 545.935C184.974 647.23 144.181 753.026 113.539 861.934C109.493 876.394 105.804 891.306 102.082 906.347C102.438 906.687 102.778 907.042 103.134 907.366C106.904 892.147 110.642 877.057 114.72 862.436C145.363 753.515 186.161 647.707 236.579 546.405C236.611 546.405 235.446 545.838 235.381 545.984V545.935ZM321.723 547.553C271.949 648.997 231.79 754.879 201.773 863.811C194.346 890.998 188.117 919.674 180.738 948.075L181.952 948.414C189.314 920.062 195.528 891.435 202.987 864.312C232.808 755.318 273.552 649.737 322.936 548.022C322.936 548.022 321.788 547.456 321.723 547.585V547.553ZM292.953 547.019C242.956 648.412 202.58 754.268 172.356 863.196C165.641 887.618 159.849 913.237 153.376 938.791L154.557 939.276C161.03 913.738 166.823 888.103 173.554 863.681C203.618 754.671 244.54 649.107 294.134 547.521C294.183 547.456 293.018 546.922 292.953 547.051V547.019ZM264.167 546.485C213.965 647.837 173.383 753.671 142.956 862.598C137.292 883.009 132.309 904.261 127.001 925.674L128.15 926.354C133.457 904.956 138.473 883.639 144.137 863.18C174.411 754.17 215.527 648.621 265.348 547.084C265.397 546.922 264.232 546.405 264.167 546.518V546.485ZM350.509 548.103C300.945 649.591 260.992 755.494 231.174 864.425C223.294 893.538 216.773 924.267 208.796 954.593L210.042 954.819C218.003 924.575 224.508 893.91 232.372 864.927C262.015 755.901 302.565 650.303 351.69 548.588C351.739 548.539 350.574 548.022 350.444 548.135L350.509 548.103ZM91.484 543.251C71.0744 583.48 52.1966 624.377 34.8506 665.943C34.8506 666.881 34.9962 667.836 35.0609 668.79C52.7413 626.447 71.9697 584.768 92.7461 543.752C92.7137 543.704 91.5487 543.17 91.5487 543.283L91.484 543.251ZM1186.32 564.195C1186.32 564.082 1185.17 563.581 1185.12 563.71C1141.68 666.575 1107.86 773.236 1084.07 882.329C1069.88 948.075 1063.34 1022.13 1031.68 1082.49L1033.05 1082.62C1064.54 1022.33 1071.1 948.382 1085.27 882.814C1109.04 773.718 1142.87 667.056 1186.32 564.195ZM1157.53 563.662C1157.53 563.549 1156.4 563.047 1156.35 563.16C1112.69 666.002 1078.64 772.663 1054.66 881.779C1040.56 946.603 1033.85 1019.51 1003.15 1079.32L1004.51 1079.5C1035.04 1019.66 1041.73 946.991 1055.85 882.281C1079.84 773.17 1113.88 666.514 1157.53 563.678V563.662ZM1099.98 562.578C1099.98 562.481 1098.83 561.964 1098.78 562.093C1054.71 664.842 1020.24 771.449 995.838 880.55C982.019 942.98 975.029 1012.91 946.826 1071.32L948.136 1071.51C976.243 1013.17 983.233 943.352 997.035 881.035C1021.26 771.864 1056.27 665.507 1099.98 562.578ZM1128.75 563.112C1128.75 563.015 1127.62 562.513 1127.57 562.627C1083.67 665.429 1049.4 772.075 1025.19 881.197C1011.21 944.872 1004.38 1016.36 974.9 1075.51L976.243 1075.7C1005.58 1016.6 1012.42 945.244 1026.4 881.618C1050.62 772.527 1084.88 665.909 1128.75 563.128V563.112ZM1215.09 564.729C1215.09 564.616 1213.96 564.115 1213.91 564.244C1170.67 667.175 1137.05 773.885 1113.49 883.009C1099.33 949.142 1092.96 1023.72 1061 1084.27H1062.41C1094.14 1023.75 1100.54 949.449 1114.65 883.494C1138.23 774.377 1171.86 667.674 1215.09 564.745V564.729ZM1071.19 562.044C1071.19 561.947 1070.06 561.43 1070.01 561.559C1025.72 664.251 991.052 770.828 966.453 879.919C952.797 941.055 945.677 1009.44 918.736 1067.05L920.063 1067.24C946.891 1009.7 954.043 941.444 967.635 880.405C992.068 771.217 1027.29 664.94 1071.19 562.061V562.044ZM1357.81 566.896C1315.63 670.061 1283.07 776.899 1260.54 886.049C1247.21 951.115 1241.5 1024.2 1211.71 1084.6H1213.16C1242.71 1024.32 1248.44 951.455 1261.71 886.567C1284.25 777.424 1316.81 670.593 1358.99 567.43C1359.04 567.317 1357.85 566.832 1357.81 566.945V566.896ZM1330.3 566.896C1329.95 566.624 1329.54 566.455 1329.1 566.411C1286.72 669.536 1253.94 776.352 1231.21 885.499C1217.7 950.921 1211.79 1024.48 1181.45 1084.98H1182.89C1213.05 1024.58 1218.92 951.229 1232.39 886.049C1255.1 776.883 1287.85 670.045 1330.22 566.896H1330.3ZM1243.96 565.279C1243.96 565.182 1242.81 564.681 1242.78 564.794C1199.75 667.775 1166.34 774.511 1142.97 883.639C1128.99 949.579 1122.73 1023.83 1091.19 1084.43H1092.62C1123.94 1023.94 1130.22 949.902 1144.17 884.141C1167.49 775.007 1200.87 668.265 1243.88 565.279H1243.96ZM1301.51 566.363C1301.51 566.249 1300.38 565.748 1300.33 565.861C1257.72 668.942 1224.74 775.737 1201.79 884.885C1188.12 950.517 1182.13 1024.37 1151.3 1084.92H1152.74C1183.34 1024.45 1189.35 950.824 1202.99 885.354C1225.9 776.22 1258.86 669.436 1301.43 566.363H1301.51ZM1272.66 565.813C1272.32 565.536 1271.9 565.362 1271.46 565.311C1228.65 668.34 1195.46 775.103 1172.31 884.238C1158.47 950.048 1152.34 1024.09 1121.16 1084.68H1122.6C1153.57 1024.19 1159.7 950.339 1173.49 884.723C1196.65 775.593 1229.84 668.835 1272.66 565.813ZM754.612 556.109C754.612 556.012 753.479 555.494 753.431 555.623C706.809 657.793 669.811 764.081 642.915 873.11C629.485 928.1 621.2 989.107 598.757 1042.32L600.068 1042.51C622.414 989.366 630.698 928.505 644.112 873.595C670.827 764.505 708.529 658.552 754.612 556.109ZM812.168 557.192C812.168 557.095 811.051 556.578 810.987 556.691C764.8 658.954 728.23 765.29 701.749 874.323C688.157 930.834 680.034 993.571 656.442 1047.85L657.785 1047.96C681.199 993.765 689.338 931.173 702.882 874.906C729.24 765.734 766.489 659.716 812.168 557.225V557.192ZM840.954 557.726C840.954 557.629 839.821 557.111 839.756 557.241C793.781 659.552 757.422 765.914 731.15 874.954C717.574 931.869 709.548 995.124 685.843 1049.73H687.202C710.859 995.221 718.885 932.128 732.428 875.358C758.447 766.365 795.421 660.299 840.954 557.726ZM783.398 556.659C783.398 556.545 782.265 556.028 782.201 556.157C735.801 658.371 699.019 764.68 672.332 873.709C658.789 929.621 650.552 991.679 627.43 1045.54L628.773 1045.65C651.782 991.889 660.002 929.977 673.513 874.21C700.05 765.119 737.509 659.134 783.398 556.691V556.659ZM725.842 555.607C725.842 555.51 724.71 554.993 724.645 555.122C677.828 657.237 640.624 763.487 613.514 872.496C600.343 925.998 592.026 985.112 570.829 1037.22L572.107 1037.48C593.142 985.436 601.556 926.402 614.695 872.997C641.701 763.89 679.532 658.002 725.842 555.607ZM1042.42 561.527C1042.42 561.414 1041.27 560.912 1041.23 561.025C996.722 663.671 961.838 770.22 937.02 879.305C923.525 939.147 916.309 1006.07 890.532 1062.89L891.843 1063.08C917.506 1006.33 924.739 939.6 938.218 879.806C962.861 770.635 998.33 664.358 1042.42 561.527ZM869.74 558.292C869.74 558.195 868.607 557.677 868.542 557.807C822.771 660.163 786.623 766.553 760.567 875.601C747.023 932.823 739.111 996.466 715.163 1051.31H716.522C740.341 996.563 748.253 933.098 761.829 876.022C787.654 766.963 824.546 660.881 869.74 558.292ZM898.51 558.826C898.51 558.729 897.377 558.211 897.328 558.341C851.772 660.748 815.83 767.163 789.968 876.216C776.489 933.68 768.706 997.598 744.661 1052.65H746.02C769.919 997.663 777.719 933.971 791.165 876.669C816.844 767.578 853.446 661.463 898.51 558.826ZM984.851 560.443C984.851 560.346 983.719 559.829 983.67 559.958C938.742 662.507 903.435 769.003 878.202 878.076C864.885 936.187 857.458 1000.88 833.187 1056.5L834.562 1056.58C858.672 1001.08 866.115 936.543 879.384 878.561C904.464 769.405 940.386 663.194 984.851 560.443ZM1013.64 560.977C1013.64 560.88 1012.5 560.378 1012.46 560.492C967.734 663.088 932.632 769.611 907.603 878.69C894.254 937.497 886.924 1003 862.135 1059.09L863.461 1059.25C888.137 1003.24 895.484 937.869 908.768 879.192C933.655 770.02 969.35 663.776 1013.64 560.961V560.977ZM927.295 559.36C927.295 559.263 926.163 558.745 926.098 558.858C880.73 661.311 844.979 767.753 819.304 876.814C805.89 934.489 798.268 998.633 774.126 1053.83H775.502C799.433 998.714 807.103 934.748 820.485 877.251C846.051 768.192 882.426 662.045 927.295 559.343V559.36ZM956.081 559.893C956.081 559.796 954.932 559.279 954.884 559.408C909.758 661.911 874.25 768.38 848.818 877.445C835.468 935.314 827.912 999.685 803.786 1055.06H805.162C829.142 999.782 836.698 935.589 850.015 877.882C875.257 768.791 911.406 662.628 956.081 559.909V559.893Z" fill="#32592B"/>
</g>
<g style="mix-blend-mode:screen" opacity="0.5">
<path d="M472.06 550.27C423.357 651.959 384.266 757.973 355.298 866.932C346.383 900.799 339.344 936.964 329.684 972.06L330.93 972.335C340.557 937.271 347.58 901.171 356.496 867.401C385.298 758.343 425.071 652.665 473.29 550.739C473.29 550.674 472.125 550.141 472.06 550.27ZM502.027 551.305C502.027 551.208 500.895 550.691 500.846 550.82C452.332 652.547 413.436 758.584 384.667 867.547C375.298 903.339 368.049 941.702 357.612 978.675L358.858 978.999C369.262 942.058 376.512 903.775 385.848 868.048C414.456 758.99 454.002 653.279 502.027 551.257V551.305ZM414.504 549.203C365.343 650.79 325.797 756.752 296.383 865.703C287.985 897.096 281.206 930.397 272.452 963.132L273.73 963.294C282.435 930.721 289.215 897.468 297.581 866.253C326.804 757.227 366.965 651.581 415.702 549.752C415.734 549.639 414.569 549.073 414.504 549.203ZM530.813 551.839C530.813 551.758 529.681 551.224 529.616 551.354C481.304 653.157 442.624 759.254 414.084 868.258C404.229 906.185 396.77 947.007 385.362 986.034L386.592 986.374C397.919 947.395 405.427 906.638 415.265 868.743C443.663 759.604 483.015 653.878 530.813 551.839ZM443.274 549.736C394.341 651.372 355.028 757.361 325.849 866.317C317.241 898.665 310.364 933.26 301.27 966.933L302.532 967.127C311.594 933.535 318.454 899.198 327.03 866.851C356.059 757.793 396.01 652.147 444.472 550.27C444.504 550.141 443.339 549.639 443.274 549.736ZM674.662 554.588C674.662 554.491 673.529 553.958 673.465 554.087C626.245 656.098 588.634 762.283 561.12 871.267C548.774 920.709 540.522 974.988 522.399 1024.01L523.645 1024.35C541.735 975.36 549.971 921.146 562.318 871.768C589.663 762.677 627.996 656.805 674.711 554.491L674.662 554.588ZM385.718 548.669C336.365 650.187 296.629 756.101 267.031 865.024C258.844 895.397 252.161 927.631 243.747 959.283L245.009 959.461C253.391 927.906 260.057 895.786 268.212 865.509C297.646 756.467 338.001 650.87 386.916 549.089C386.948 549.073 385.783 548.539 385.718 548.669ZM703.496 555.138C703.496 555.041 702.364 554.524 702.299 554.637C655.264 656.707 617.848 762.936 590.537 871.946C577.754 923.523 569.502 980.309 549.761 1031.01L551.023 1031.32C570.651 980.697 578.952 923.944 591.718 872.447C618.87 763.276 656.976 657.387 703.496 555.074V555.138ZM588.304 552.874C588.304 552.777 587.172 552.243 587.123 552.373C539.241 654.255 500.979 760.382 472.837 869.374C461.947 911.911 454.083 958.054 440.329 1001.29L441.559 1001.63C455.297 958.442 463.161 912.364 474.018 869.876C502.06 760.834 541.007 655.058 588.304 552.874ZM559.518 552.34C559.518 552.243 558.402 551.709 558.337 551.839C510.254 653.668 471.792 759.764 443.452 868.743C433.096 908.951 425.41 952.377 412.903 993.522L414.132 993.862C426.624 952.765 434.294 909.388 444.633 869.229C472.869 760.219 512.011 654.46 559.583 552.389L559.518 552.34ZM617.09 553.408C617.09 553.311 615.957 552.793 615.893 552.906C568.246 654.856 530.218 761.027 502.302 870.037C490.976 914.903 482.885 963.844 467.756 1009.05L468.986 1009.4C484.083 964.119 492.108 915.356 503.5 870.523C531.266 761.513 570.003 655.641 617.155 553.456L617.09 553.408ZM645.86 553.941C645.86 553.861 644.727 553.327 644.679 553.456C597.217 655.443 559.384 761.636 531.671 870.652C519.778 917.846 511.623 969.456 495.037 1016.67L496.267 1017.01C512.82 969.828 520.991 918.348 532.852 871.137C560.473 762.047 599 656.223 645.924 553.99L645.86 553.941ZM155.415 544.318C116.586 621.434 83.2561 701.196 55.6754 783.007C55.8372 783.865 56.0152 784.722 56.1932 785.579C83.9183 703.032 117.493 622.564 156.661 544.787C156.709 544.787 155.544 544.221 155.48 544.367L155.415 544.318ZM69.0733 542.701C58.054 564.325 47.5526 586.191 37.3748 608.22C37.3748 609.093 37.488 609.967 37.5527 610.872C48.0272 588.111 58.9332 565.554 70.2707 543.202C70.3677 543.17 69.2027 542.62 69.138 542.749L69.0733 542.701ZM126.629 543.768C96.7885 602.889 70.1433 663.568 46.8083 725.543C46.9053 726.449 47.0348 727.354 47.1319 728.26C70.6801 665.516 97.6178 604.095 127.826 544.27C127.826 544.27 126.775 543.687 126.694 543.817L126.629 543.768ZM184.201 544.852C137.373 638.219 98.6864 735.448 68.5716 835.458C68.7982 836.186 69.0409 836.898 69.2674 837.626C99.4484 737.043 138.304 639.269 185.398 545.402C185.495 545.321 184.33 544.787 184.266 544.9L184.201 544.852ZM212.971 545.386C162.358 646.64 121.354 752.414 90.4969 861.32C88.9758 866.711 87.4926 872.199 86.0471 877.784C86.3545 878.302 86.6458 878.852 86.9532 879.402C88.4958 873.482 90.0761 867.628 91.6942 861.837C122.537 752.932 163.541 647.162 214.168 545.919C214.168 545.919 213.1 545.305 213.035 545.434L212.971 545.386ZM241.756 545.935C191.335 647.224 150.542 753.021 119.914 861.934C115.869 876.394 112.163 891.306 108.458 906.347C108.814 906.687 109.154 907.042 109.509 907.366C113.263 892.147 117.017 877.057 121.095 862.436C151.76 753.515 192.575 647.709 243.002 546.405C243.051 546.405 241.886 545.838 241.821 545.984L241.756 545.935ZM328.098 547.553C278.338 649.007 238.201 754.901 208.213 863.843C200.77 891.031 194.54 919.706 187.178 948.107L188.408 948.447C195.754 920.095 201.984 891.467 209.443 864.344C239.248 755.318 279.992 649.737 329.409 548.022C329.409 548.022 328.228 547.456 328.163 547.585L328.098 547.553ZM299.312 547.019C249.327 648.416 208.957 754.271 178.732 863.196C172 887.618 166.224 913.237 159.735 938.791C160.14 938.953 160.528 939.131 160.933 939.276C167.405 913.738 173.198 888.103 179.913 863.681C209.977 754.671 250.915 649.107 300.51 547.521C300.607 547.456 299.442 546.922 299.377 547.051L299.312 547.019ZM270.542 546.485C220.357 647.838 179.792 753.673 149.379 862.598C143.732 883.009 138.732 904.261 133.441 925.674L134.574 926.354C139.897 904.956 144.897 883.639 150.577 863.18C180.835 754.17 221.967 648.621 271.788 547.084C271.837 546.922 270.672 546.405 270.607 546.518L270.542 546.485ZM356.868 548.103C307.302 649.589 267.355 755.492 237.549 864.425C229.669 893.538 223.148 924.267 215.171 954.593L216.417 954.819C224.378 924.575 230.867 893.91 238.731 864.927C268.39 755.901 308.94 650.303 358.065 548.588C358.162 548.539 356.997 548.022 356.916 548.135L356.868 548.103ZM97.8592 543.251C77.4604 583.48 58.5826 624.377 41.2258 665.943C41.2258 666.881 41.3553 667.836 41.4362 668.79C59.1274 626.447 78.3503 584.768 99.1051 543.752C99.1537 543.704 98.021 543.17 97.9239 543.283L97.8592 543.251ZM1192.74 564.195C1192.74 564.082 1191.61 563.581 1191.56 563.71C1148.12 666.573 1114.29 773.234 1090.51 882.329C1076.32 948.156 1069.77 1022.21 1038.13 1082.57L1039.49 1082.7C1070.98 1022.41 1077.55 948.463 1091.71 882.895C1115.48 773.774 1149.3 667.085 1192.74 564.195ZM1163.97 563.662C1163.97 563.549 1162.83 563.047 1162.78 563.16C1119.12 666.002 1085.08 772.664 1061.1 881.779C1046.99 946.603 1040.29 1019.51 1009.59 1079.32L1010.93 1079.5C1041.48 1019.66 1048.15 946.991 1062.29 882.281C1086.27 773.168 1120.31 666.512 1163.97 563.678V563.662ZM1106.42 562.578C1106.42 562.481 1105.27 561.964 1105.22 562.093C1061.14 664.839 1026.68 771.447 1002.28 880.55C988.459 942.98 981.453 1012.91 953.25 1071.32L954.576 1071.51C982.667 1013.17 989.673 943.352 1003.48 881.035C1027.7 771.864 1062.71 665.507 1106.42 562.578ZM1135.19 563.112C1135.19 563.015 1134.06 562.513 1134.01 562.627C1090.12 665.427 1055.85 772.074 1031.66 881.197C1017.67 944.872 1010.84 1016.36 981.356 1075.51L982.699 1075.7C1012.05 1016.6 1018.9 945.244 1032.86 881.618C1057.07 772.524 1091.34 665.906 1135.22 563.128L1135.19 563.112ZM1221.53 564.729C1221.53 564.616 1220.4 564.115 1220.35 564.244C1177.1 667.174 1143.48 773.884 1119.91 883.009C1105.77 949.142 1099.38 1023.72 1067.42 1084.27H1068.88C1100.61 1023.75 1107.02 949.449 1121.13 883.494C1144.69 774.377 1178.3 667.672 1221.53 564.745V564.729ZM1077.63 562.044C1077.63 561.947 1076.5 561.43 1076.44 561.559C1032.16 664.256 997.491 770.832 972.877 879.919C959.237 941.055 952.117 1009.44 925.176 1067.05L926.502 1067.24C953.33 1009.7 960.482 941.444 974.074 880.405C998.491 771.217 1033.73 664.94 1077.63 562.061V562.044ZM1364.25 566.896C1322.06 670.061 1289.49 776.899 1266.97 886.049C1253.65 951.115 1247.92 1024.2 1218.15 1084.6H1219.59C1249.15 1024.32 1254.88 951.455 1268.13 886.567C1290.67 777.422 1323.24 670.589 1365.43 567.43C1365.48 567.317 1364.29 566.832 1364.25 566.945V566.896ZM1336.64 566.896C1336.64 566.783 1335.51 566.298 1335.46 566.411C1293.06 669.531 1260.29 776.348 1237.57 885.499C1224.05 950.921 1218.15 1024.48 1187.81 1084.98H1189.23C1219.36 1024.58 1225.27 951.229 1238.78 886.049C1261.51 776.882 1294.27 670.044 1336.64 566.896ZM1250.32 565.279C1250.32 565.182 1249.17 564.681 1249.12 564.794C1206.1 667.775 1172.69 774.511 1149.33 883.639C1135.35 949.579 1129.09 1023.83 1097.55 1084.43H1098.98C1130.3 1023.94 1136.56 949.902 1150.51 884.141C1173.88 775.006 1207.29 668.265 1250.32 565.279ZM1307.87 566.363C1307.55 566.079 1307.16 565.889 1306.74 565.813C1264.14 668.897 1231.16 775.691 1208.21 884.836C1194.54 950.468 1188.55 1024.32 1157.73 1084.87H1159.15C1189.77 1024.4 1195.77 950.776 1209.31 885.305C1232.27 776.184 1265.26 669.416 1307.87 566.363ZM1279.09 565.813C1279.09 565.7 1277.95 565.198 1277.9 565.311C1235.09 668.343 1201.89 775.112 1178.75 884.254C1164.91 950.064 1158.78 1024.11 1127.6 1084.69H1129.02C1159.99 1024.2 1166.13 950.355 1179.93 884.739C1203.08 775.604 1236.27 668.841 1279.09 565.813ZM761.052 556.109C761.052 556.012 759.919 555.494 759.855 555.623C713.245 657.796 676.253 764.083 649.355 873.11C635.925 928.1 627.624 989.107 605.197 1042.32L606.508 1042.51C628.837 989.366 637.138 928.505 650.552 873.595C677.299 764.505 714.953 658.552 761.052 556.109ZM818.608 557.192C818.608 557.095 817.475 556.578 817.427 556.691C771.235 658.954 734.66 765.289 708.173 874.323C694.597 930.834 686.458 993.571 662.866 1047.85L664.225 1047.96C687.639 993.765 695.778 931.173 709.322 874.906C735.68 765.734 772.929 659.716 818.608 557.225V557.192ZM847.394 557.726C847.394 557.629 846.261 557.111 846.196 557.241C800.214 659.549 763.855 765.912 737.59 874.954C724.014 931.869 715.988 995.124 692.186 1049.73H693.545C717.218 995.221 725.244 932.128 738.852 875.358C764.887 766.365 801.893 660.299 847.394 557.726ZM789.822 556.659C789.822 556.545 788.689 556.028 788.641 556.157C742.241 658.371 705.459 764.68 678.772 873.709C665.212 929.621 656.992 991.679 633.854 1045.54L635.197 1045.65C658.206 991.889 666.442 929.977 679.953 874.21C706.425 765.119 743.949 659.134 789.822 556.691V556.659ZM732.315 555.607C732.315 555.51 731.182 554.993 731.134 555.122C684.303 657.231 647.098 763.482 620.003 872.496C606.831 925.998 598.498 985.112 577.301 1037.22L578.596 1037.48C599.631 985.436 608.045 926.402 621.184 872.997C648.077 763.89 685.972 658.002 732.315 555.607ZM1048.9 561.527C1048.9 561.414 1047.76 560.912 1047.71 561.025C1003.21 663.671 968.326 770.22 943.509 879.305C930.014 939.147 922.781 1006.07 897.005 1062.89L898.331 1063.08C923.994 1006.33 931.227 939.6 944.69 879.806C969.301 770.635 1004.77 664.358 1048.85 561.527H1048.9ZM876.212 558.292C876.212 558.195 875.079 557.677 875.031 557.807C829.261 660.165 793.108 766.554 767.039 875.601C753.512 932.823 745.599 996.466 721.635 1051.31H723.011C746.829 996.563 754.725 933.098 768.236 876.022C794.077 766.963 830.889 660.881 876.164 558.292H876.212ZM904.998 558.826C904.998 558.729 903.865 558.211 903.8 558.341C858.25 660.748 822.314 767.164 796.456 876.216C782.961 933.68 775.178 997.598 751.149 1052.65H752.525C776.424 997.663 784.207 933.971 797.653 876.669C823.284 767.578 859.869 661.463 904.949 558.826H904.998ZM991.34 560.443C991.34 560.346 990.207 559.829 990.158 559.958C945.223 662.504 909.916 769.001 884.691 878.076C871.325 936.187 863.882 1000.88 839.627 1056.5L841.002 1056.58C865.112 1001.08 872.555 936.543 885.823 878.561C910.888 769.405 946.81 663.194 991.291 560.443H991.34ZM1020.13 560.977C1020.13 560.88 1018.98 560.378 1018.93 560.492C974.211 663.088 939.115 769.611 914.092 878.69C900.742 937.497 893.396 1003 868.607 1059.09L869.95 1059.25C894.61 1003.24 901.956 937.869 915.257 879.192C940.094 770.02 975.79 663.776 1020.08 560.961L1020.13 560.977ZM933.768 559.36C933.768 559.263 932.635 558.745 932.586 558.858C887.212 661.308 851.46 767.751 825.792 876.814C812.362 934.489 804.757 998.633 780.615 1053.83H781.974C805.922 998.714 813.592 934.748 826.973 877.251C852.491 768.192 888.849 662.045 933.719 559.343L933.768 559.36ZM962.554 559.893C962.554 559.796 961.421 559.279 961.372 559.408C916.24 661.91 880.727 768.379 855.29 877.445C841.941 935.314 834.384 999.685 810.242 1055.06H811.618C835.549 999.846 843.09 935.653 856.423 877.962C881.681 768.791 917.829 662.628 962.505 559.909L962.554 559.893Z" fill="#32592B"/>
</g>
<g style="mix-blend-mode:screen" opacity="0.7">
<path d="M459.811 107.956L458.387 108.263C475.12 167.033 488.737 226.646 499.18 286.851C514.374 375.676 515.215 478.702 584.065 546.372C584.259 546.582 585.246 545.919 585.295 545.968C516.429 478.282 515.619 375.272 500.409 286.431C490.007 226.271 476.456 166.697 459.811 107.956ZM293.924 141.791L292.581 142.033C303.714 187.433 313.179 233.236 320.59 279.509C334.862 368.754 334.409 472.168 402.66 540.808C402.871 541.003 403.858 540.339 403.906 540.388C335.622 471.731 336.108 368.334 321.82 279.088C314.425 232.88 305.024 187.141 293.924 141.791ZM321.82 136.648L320.461 136.923C332.402 184.392 342.499 232.347 350.363 280.673C364.797 369.854 364.538 473.138 432.886 541.682C433.08 541.876 434.067 541.213 434.116 541.261C365.751 472.766 366.01 369.434 351.593 280.253C343.745 231.958 333.713 184.117 321.82 136.648ZM404.942 119.568L403.55 119.876C418.199 174.068 430.233 228.907 439.65 284.393C454.553 373.348 454.941 476.519 523.597 544.512C523.807 544.722 524.778 544.059 524.826 544.092C456.154 476.082 455.782 372.959 440.88 283.972C431.581 228.583 419.602 173.782 404.942 119.568ZM377.305 125.391C376.852 125.504 376.382 125.585 375.929 125.682C389.634 177.615 401.074 230.115 409.909 283.148C424.634 372.102 424.828 475.403 493.387 543.542C493.581 543.752 494.568 543.089 494.617 543.121C426.042 474.966 425.88 371.682 411.139 282.727C402.326 229.764 391.048 177.319 377.305 125.391ZM349.603 131.132L348.244 131.407C361.027 181.076 371.803 231.247 380.12 281.918C394.683 371.019 394.683 474.384 463.128 542.62C463.339 542.814 464.326 542.167 464.358 542.199C395.896 473.866 395.945 370.598 381.35 281.498C373.098 230.891 362.337 180.753 349.603 131.132ZM265.834 146.239L264.475 146.416C274.928 189.972 283.811 233.915 290.834 278.215C304.943 367.525 304.264 471.003 372.434 539.806C372.628 540 373.632 539.337 373.664 539.385C305.493 470.567 306.189 367.105 292.063 277.794C285.057 233.576 276.222 189.713 265.834 146.239ZM624.744 77.6626L623.271 77.8567C646.003 148.763 664.201 221.043 677.753 294.259C693.934 382.68 696.021 485.317 765.454 552.017C765.664 552.227 766.635 551.548 766.683 551.596C697.235 484.945 695.099 382.275 678.918 293.838C665.461 220.705 647.366 148.501 624.744 77.6626ZM514.713 96.6989L513.289 96.9739C532.069 160.182 547.255 224.402 558.774 289.326C574.276 378.005 575.538 480.902 644.533 548.264C644.744 548.459 645.731 547.795 645.763 547.844C576.719 480.481 575.473 377.601 560.004 288.905C548.51 224.062 533.368 159.919 514.649 96.7798L514.713 96.6989ZM487.206 102.263L485.782 102.554C503.545 163.561 517.946 225.496 528.92 288.081C544.276 376.841 545.328 479.802 614.275 547.326C614.485 547.521 615.456 546.857 615.505 546.906C546.557 479.381 545.538 376.437 530.166 287.628C519.225 225.107 504.889 163.227 487.222 102.263H487.206ZM237.307 149.166L236.012 149.279C245.915 191.524 254.265 234.115 261.061 277.05C275.009 366.425 274.119 469.984 342.192 538.932C342.386 539.143 343.373 538.479 343.422 538.512C275.348 469.548 276.254 366.021 262.29 276.63C255.591 233.77 247.269 191.26 237.323 149.101L237.307 149.166ZM124.639 169.189L123.377 169.512C130.561 203.477 136.872 237.7 142.001 272.101C155.35 361.751 153.587 465.553 221.288 535.164C221.482 535.358 222.485 534.711 222.518 534.743C154.833 465.197 156.612 361.331 143.231 271.681C138.118 237.247 131.823 203.089 124.655 169.124L124.639 169.189ZM96.937 176.855L95.6911 177.243C102.018 208.28 107.616 239.495 112.228 270.872C125.432 360.587 123.441 464.453 191.029 534.226C191.224 534.42 192.227 533.773 192.259 533.805C124.687 463.919 126.678 360.101 113.49 270.387C108.862 239.01 103.28 207.827 96.9532 176.79L96.937 176.855ZM69.4294 186.058C69.0087 186.203 68.6204 186.365 68.2158 186.527C73.6095 214.097 78.3343 241.797 82.3903 269.627C95.4322 359.422 93.2316 463.353 160.722 533.255C160.917 533.45 161.904 532.803 161.952 532.835C94.4614 462.9 96.662 358.969 83.6201 269.206C79.6396 241.334 74.9417 213.596 69.5265 185.993L69.4294 186.058ZM152.454 162.622L151.192 162.897C159.169 199.466 166.094 236.277 171.677 273.33C185.188 362.916 183.635 466.653 251.417 536.102C251.611 536.296 252.598 535.649 252.646 535.681C184.864 466.232 186.418 362.511 172.923 272.926C167.421 235.872 160.512 199.077 152.551 162.558L152.454 162.622ZM35.417 372.571C43.7017 430.877 58.5073 487.646 100.351 531.331C100.545 531.541 101.549 530.878 101.581 530.91C60.9506 488.487 45.8214 433.74 37.4073 377.262C36.76 375.655 36.0966 374.091 35.417 372.571ZM1155.14 313.586C1133.77 214.222 1103.93 116.869 1065.95 22.5917L1064.57 22.8019C1102.54 117.17 1132.42 214.588 1153.91 314.007C1172.52 401.344 1178.1 502.93 1249.09 567.058C1249.31 567.268 1250.27 566.589 1250.32 566.638C1179.38 502.51 1173.83 400.923 1155.2 313.586H1155.14ZM208.893 152.384L207.615 152.562C216.978 193.298 224.875 234.357 231.304 275.74C245.122 365.18 244.006 468.788 311.966 537.913C312.176 538.124 313.163 537.461 313.196 537.493C245.236 468.367 246.352 364.776 232.534 275.32C226.147 234.045 218.267 193.066 208.893 152.384ZM58.1351 312.891C58.7338 314.233 59.3163 315.543 59.8341 316.772C58.038 300.227 56.2419 283.843 53.9604 267.912C50.6271 244.671 46.7113 221.526 42.4234 198.463L41.2422 199.207C45.4978 222.157 49.4135 245.188 52.7306 268.333C54.8018 282.889 56.5008 297.801 58.1351 312.891ZM432.385 113.746L430.977 114.053C446.689 170.556 459.52 227.819 469.423 285.622C484.455 374.577 485.07 477.602 553.823 545.434C554.033 545.644 555.02 544.981 555.053 545.03C486.364 477.182 485.701 374.108 470.653 285.202C460.776 227.446 448.004 170.222 432.385 113.746ZM180.625 156.945L179.347 157.188C188.063 196.005 195.463 235.112 201.547 274.511C215.188 364.015 213.861 467.688 281.74 536.975C281.934 537.186 282.937 536.523 282.97 536.555C215.09 467.267 216.433 363.643 202.777 274.09C196.757 234.767 189.373 195.719 180.625 156.945ZM24.7861 280.932C26.0482 291.04 27.1809 301.294 28.2812 311.662C28.8961 313.279 29.4786 315.01 30.1097 316.789C28.9123 305.467 27.6987 294.227 26.3395 283.148L24.7861 280.932ZM63.0865 356.559C71.177 420.736 84.5586 484.411 130.577 532.285C130.771 532.479 131.775 531.816 131.807 531.865C85.1573 483.328 71.9698 418.633 64.0411 353.503C63.7175 354.619 63.4101 355.637 63.0865 356.559ZM652.624 74.3956L651.135 74.5735C674.681 146.918 693.517 220.711 707.526 295.488C723.804 383.844 726.15 486.417 795.68 552.955C795.89 553.165 796.861 552.502 796.909 552.534C727.331 485.98 725.034 383.44 708.755 295.068C694.832 220.376 676.082 146.664 652.624 74.3956ZM1125.51 312.357C1104.74 214.868 1075.82 119.292 1039.06 26.6351L1037.67 26.8453C1074.41 119.589 1103.36 215.23 1124.22 312.778C1142.66 400.115 1148.04 501.83 1218.93 566.12C1219.15 566.33 1220.09 565.651 1220.15 565.7C1149.25 501.41 1143.91 399.759 1125.51 312.357ZM1095.74 311.112C1075.56 215.501 1047.53 121.716 1011.92 30.7108L1010.51 30.9211C1046.13 122.011 1074.22 215.861 1094.51 311.532C1112.81 398.999 1117.96 500.763 1188.76 565.182C1188.97 565.392 1189.93 564.713 1189.99 564.762C1119.12 500.31 1113.99 398.594 1095.67 311.112H1095.74ZM1214.8 316.061C1192.21 213.022 1160.54 112.185 1120.16 14.7314L1118.83 14.9254C1159.26 112.448 1190.97 213.362 1213.57 316.481C1232.48 403.657 1238.5 505.146 1309.68 568.951C1309.91 569.145 1310.85 568.465 1310.91 568.53C1239.65 504.709 1233.65 403.269 1214.73 316.061H1214.8ZM1036.16 308.653C1017.07 216.682 990.71 126.366 957.344 38.555L955.904 38.7491C989.302 126.642 1015.72 217.031 1034.9 309.074C1052.89 396.67 1057.55 498.531 1128.21 563.306C1128.44 563.5 1129.4 562.837 1129.44 562.885C1058.85 498.094 1054.15 396.265 1036.16 308.653ZM1006.39 307.408C987.817 217.107 962.233 128.391 929.868 42.0647L928.412 42.2264C960.82 128.646 986.479 217.446 1005.16 307.828C1022.96 395.505 1027.49 497.431 1097.99 562.368C1098.22 562.562 1099.17 561.899 1099.23 561.947C1028.72 496.994 1024.24 395.101 1006.39 307.408ZM1065.92 309.883C1046.28 216.129 1019.1 124.115 984.641 34.738L983.217 34.9321C1017.71 124.383 1044.95 216.459 1064.69 310.271C1082.83 397.802 1087.76 499.598 1158.54 564.195C1158.76 564.39 1159.72 563.726 1159.78 563.775C1088.98 499.194 1084.07 397.43 1065.92 309.883ZM1184.98 314.815C1162.99 213.601 1132.23 114.492 1093.04 18.613L1091.71 18.8071C1130.96 114.752 1161.76 213.938 1183.76 315.236C1202.5 402.46 1208.29 504.03 1279.39 567.996C1279.62 568.206 1280.56 567.527 1280.62 567.592C1209.52 503.609 1203.73 402.104 1184.98 314.815ZM1342.5 370.323C1340.23 356.802 1337.89 342.909 1335.51 328.806C1334.94 326.202 1334.38 323.582 1333.79 320.994C1309 211.623 1273.99 104.819 1229.23 1.98659L1227.86 2.08363C1272.71 105.013 1307.78 211.927 1332.63 321.414C1336.14 337.345 1339.3 353.761 1342.5 370.323ZM1294.44 92.5261C1282.89 61.7425 1270.55 31.2499 1257.42 1.04852H1256C1270.23 33.6221 1283.49 66.5676 1295.77 99.8851C1295.41 97.3782 1294.88 94.936 1294.44 92.5261ZM1370.49 538.334C1370.35 537.461 1370.18 536.474 1370.01 535.423C1327.45 473.478 1320.1 391.753 1304.05 319.765C1279.76 211.699 1245.5 106.119 1201.69 4.38027L1200.35 4.50966C1244.2 106.319 1278.51 211.975 1302.82 320.12C1319.05 393.112 1326.37 476.098 1370.46 538.318L1370.49 538.334ZM597.107 81.6737L595.634 81.9001C617.435 151.122 634.922 221.629 647.996 293.013C663.967 381.515 665.876 484.217 735.211 551.079C735.422 551.289 736.393 550.61 736.441 550.658C667.106 483.781 665.245 381.095 649.226 292.609C636.22 221.29 618.814 150.844 597.107 81.6737ZM1274.26 318.519C1250.51 212.035 1217.07 107.945 1174.35 7.5503L1173.02 7.71202C1215.78 108.189 1249.26 212.366 1273.03 318.94C1292.26 406.002 1298.7 507.345 1370.12 570.827C1370.35 571.021 1371.29 570.358 1371.35 570.406C1299.93 506.909 1293.5 405.598 1274.26 318.519ZM1244.49 317.29C1221.32 212.5 1188.75 110.01 1147.18 11.06L1145.85 11.2379C1187.47 110.273 1220.07 212.857 1243.26 317.743C1262.34 404.854 1268.57 506.278 1339.85 569.921C1340.07 570.115 1341.03 569.436 1341.08 569.5C1269.78 505.809 1263.58 404.433 1244.49 317.29ZM738.512 296.264C724.175 220.039 704.807 144.846 680.536 71.177L679.047 71.355C703.404 145.113 722.863 220.397 737.299 296.717C753.739 385.009 756.295 487.565 825.922 553.877C826.132 554.071 827.119 553.408 827.168 553.456C757.509 487.096 754.968 384.669 738.512 296.313V296.264ZM768.285 297.494C753.485 219.678 733.451 142.949 708.319 67.8291L706.83 68.007C732.041 143.195 752.161 219.993 767.055 297.882C783.641 386.092 786.473 488.536 856.148 554.75C856.358 554.96 857.329 554.297 857.378 554.346C787.638 488.18 784.887 385.769 768.285 297.542V297.494ZM569.615 86.2831L568.159 86.5419C588.996 153.885 605.746 222.424 618.32 291.784C634.129 380.351 635.828 483.117 705.066 550.141C705.277 550.351 706.247 549.672 706.296 549.72C637.041 482.681 635.375 379.898 619.55 291.364C607.035 222.064 590.36 153.58 569.615 86.2831ZM542.108 91.3455L540.668 91.6204C560.477 156.941 576.437 223.367 588.466 290.555C604.129 379.186 605.618 482.018 674.759 549.203C674.953 549.397 675.94 548.734 675.989 548.782C606.832 481.581 605.375 378.766 589.696 290.135C577.721 223.002 561.831 156.625 542.108 91.3455ZM917.102 303.801C899.97 218.038 876.502 133.661 846.892 51.3644L845.42 51.5424C875.082 133.892 898.629 218.315 915.872 304.125C933.234 392.012 937.085 494.132 1007.31 559.537C1007.52 559.748 1008.48 559.068 1008.54 559.117C938.299 493.695 934.48 391.607 917.102 303.801ZM887.345 302.556C870.707 218.352 847.961 135.471 819.288 54.5668L817.799 54.7447C846.509 135.706 869.314 218.64 886.034 302.896C903.251 390.831 906.891 493.032 977.003 558.599C977.23 558.81 978.185 558.13 978.233 558.179C908.17 492.595 904.561 390.427 887.345 302.475V302.556ZM946.858 305.03C929.248 217.711 905.069 131.844 874.529 48.1621L873.057 48.3238C903.644 132.11 927.903 218.071 945.629 305.483C963.153 393.29 967.23 495.345 1037.54 560.589C1037.76 560.799 1038.72 560.12 1038.77 560.184C968.444 494.795 964.382 392.756 946.858 304.95V305.03ZM797.994 298.852C782.763 219.441 762.089 141.171 736.117 64.5944L734.629 64.7723C760.697 141.398 781.473 219.722 796.812 299.192C813.56 387.338 816.553 489.716 886.374 555.785C886.584 555.979 887.555 555.316 887.604 555.365C817.767 489.296 814.838 386.933 798.042 298.771L797.994 298.852ZM827.766 300.081C812.087 219.06 790.746 139.237 763.9 61.198L762.395 61.3759C789.333 139.449 810.776 219.309 826.569 300.372C843.478 388.454 846.682 490.768 916.616 556.675C916.827 556.869 917.797 556.206 917.846 556.254C847.896 490.396 844.724 388.098 827.783 300L827.766 300.081ZM976.631 306.26C958.537 217.409 933.659 130.075 902.215 45.0244L900.743 45.1862C932.258 130.309 957.227 217.711 975.434 306.632C993.071 394.373 997.359 496.267 1067.76 561.414C1067.99 561.624 1068.94 560.945 1068.99 561.009C998.573 495.895 994.317 393.936 976.648 306.179L976.631 306.26ZM857.572 301.327C841.416 218.74 819.381 137.412 791.634 57.9633L790.146 58.1412C817.969 137.664 840.091 219.066 856.342 301.731C873.397 389.731 876.827 491.981 946.842 557.726C947.053 557.92 948.023 557.257 948.072 557.305C878.041 491.495 874.707 389.262 857.572 301.246V301.327Z" fill="#32592B"/>
</g>
<g style="mix-blend-mode:multiply" opacity="0.7">
<path d="M453.371 107.956L451.964 108.263C468.684 167.035 482.294 226.647 492.74 286.851C507.95 375.676 508.775 478.702 577.625 546.372C577.835 546.582 578.806 545.919 578.855 545.968C509.988 478.282 509.179 375.272 493.969 286.431C483.567 226.271 470.016 166.697 453.371 107.956ZM287.5 141.791L286.141 142.033C297.29 187.433 306.739 233.236 314.166 279.509C328.438 368.754 327.969 472.168 396.236 540.808C396.43 541.003 397.434 540.339 397.466 540.388C329.199 471.731 329.668 368.334 315.396 279.088C307.985 232.88 298.665 187.141 287.5 141.791ZM315.396 136.648L314.037 136.923C325.962 184.392 336.076 232.347 343.923 280.673C358.357 369.854 358.098 473.138 426.446 541.682C426.657 541.876 427.644 541.213 427.676 541.261C359.311 472.766 359.57 369.434 345.153 280.253C337.321 231.958 327.273 184.117 315.396 136.648ZM398.518 119.568L397.11 119.876C411.77 174.068 423.803 228.907 433.21 284.393C448.113 373.348 448.501 476.519 517.157 544.512C517.367 544.722 518.354 544.059 518.386 544.092C449.731 476.082 449.342 372.959 434.456 283.972C425.136 228.583 413.156 173.782 398.518 119.568ZM370.881 125.391L369.489 125.682C383.194 177.615 394.634 230.115 403.469 283.148C418.21 372.102 418.388 475.403 486.947 543.542C487.141 543.752 488.128 543.089 488.177 543.121C419.618 474.966 419.44 371.682 404.699 282.727C395.886 229.764 384.613 177.319 370.881 125.391ZM343.179 131.132L341.804 131.407C354.603 181.076 365.363 231.247 373.696 281.918C388.259 371.019 388.259 474.384 456.705 542.62C456.899 542.814 457.886 542.167 457.934 542.199C389.456 473.866 389.505 370.598 374.926 281.498C366.625 230.891 355.913 180.753 343.179 131.132ZM259.394 146.239L258.035 146.416C268.488 189.972 277.371 233.915 284.393 278.215C298.52 367.525 297.84 471.003 365.994 539.806C366.204 540 367.192 539.337 367.24 539.385C299.053 470.567 299.749 367.105 285.72 277.794C278.644 233.576 269.868 189.724 259.394 146.239ZM618.32 77.6626L616.831 77.8567C639.561 148.765 657.763 221.045 671.329 294.259C687.51 382.68 689.581 485.317 759.013 552.017C759.224 552.227 760.195 551.548 760.243 551.596C690.795 484.945 688.626 382.275 672.559 293.838C659.065 220.707 640.949 148.504 618.32 77.6626ZM508.289 96.6989L506.849 96.9739C525.637 160.18 540.823 224.401 552.334 289.326C567.852 378.005 569.114 480.902 638.093 548.264C638.304 548.459 639.274 547.795 639.323 547.844C570.263 480.481 569.017 377.601 553.564 288.905C542.076 224.063 526.939 159.919 508.225 96.7798L508.289 96.6989ZM480.782 102.263L479.358 102.554C497.119 163.563 511.525 225.498 522.513 288.081C537.868 376.841 538.904 479.802 607.851 547.326C608.061 547.521 609.048 546.857 609.081 546.906C540.134 479.381 539.098 376.437 523.742 287.628C512.804 225.105 498.462 163.224 480.782 102.263ZM230.899 149.166L229.589 149.279C239.502 191.524 247.852 234.115 254.637 277.05C268.601 366.425 267.695 469.984 335.768 538.932C335.962 539.143 336.965 538.479 336.998 538.512C268.925 469.548 269.831 366.021 255.866 276.63C249.168 233.77 240.845 191.26 230.899 149.101V149.166ZM118.215 169.189L116.953 169.512C124.153 203.477 130.448 237.7 135.577 272.101C148.926 361.751 147.163 465.553 214.864 535.164C215.058 535.358 216.061 534.711 216.094 534.743C148.409 465.197 150.172 361.331 136.807 271.681C131.694 237.247 125.399 203.089 118.215 169.124V169.189ZM90.5132 176.855L89.2673 177.243C95.6102 208.28 101.193 239.495 105.82 270.872C119.008 360.587 117.034 464.453 184.606 534.226C184.816 534.42 185.803 533.773 185.835 533.805C118.247 463.919 120.238 360.101 107.05 270.387C102.439 239.01 96.84 207.827 90.5132 176.79V176.855ZM63.1027 186.058L61.8729 186.527C67.2666 214.097 71.9914 241.797 76.0474 269.627C89.0893 359.422 86.8887 463.353 154.379 533.255C154.574 533.45 155.577 532.803 155.609 532.835C88.1184 462.9 90.319 358.969 77.2934 269.206C73.2481 241.334 68.5179 213.596 63.1027 185.993V186.058ZM146.111 162.622L144.849 162.897C152.826 199.466 159.752 236.277 165.35 273.33C178.926 362.851 177.308 466.588 245.074 536.037C245.268 536.231 246.271 535.584 246.304 535.617C178.521 466.168 180.075 362.447 166.58 272.861C160.981 235.872 154.072 199.077 146.111 162.558V162.622ZM28.9932 372.571C37.2617 430.877 52.0673 487.646 93.9112 531.331C94.1054 531.541 95.1086 530.878 95.141 530.91C54.5106 488.487 39.3814 433.74 30.9673 377.262C30.32 375.644 29.6566 374.091 28.9932 372.571ZM1148.72 313.586C1127.33 214.224 1097.49 116.871 1059.51 22.5917L1058.13 22.8019C1096.11 117.165 1126 214.584 1147.47 314.007C1166.09 401.344 1171.66 502.93 1242.66 567.058C1242.89 567.268 1243.83 566.589 1243.89 566.638C1172.94 502.51 1167.39 400.923 1148.78 313.586H1148.72ZM202.453 152.384L201.175 152.562C210.549 193.298 218.451 234.357 224.88 275.74C238.682 365.18 237.566 468.788 305.542 537.913C305.736 538.124 306.723 537.461 306.772 537.493C238.812 468.367 239.912 364.776 226.11 275.32C219.713 234.045 211.827 193.066 202.453 152.384ZM51.7113 312.891L53.4103 316.772C51.6142 300.227 49.8019 283.843 47.5204 267.912C44.1871 244.671 40.2713 221.526 35.9834 198.463L34.8183 199.207C39.0739 222.157 42.9088 245.188 46.2906 268.333C48.378 282.889 50.0608 297.801 51.7113 312.891ZM425.945 113.746L424.553 114.053C440.252 170.558 453.078 227.821 462.983 285.622C478.031 374.577 478.646 477.602 547.399 545.434C547.593 545.644 548.58 544.981 548.629 545.03C479.892 477.182 479.261 374.108 464.213 285.202C454.351 227.443 441.579 170.218 425.945 113.746ZM174.185 156.945L172.923 157.188C181.628 196.005 189.023 235.112 195.107 274.511C208.764 364.015 207.437 467.688 275.3 536.975C275.51 537.186 276.497 536.523 276.546 536.555C208.586 467.267 209.993 363.611 196.337 274.09C190.339 234.767 182.955 195.719 174.185 156.945ZM18.3623 280.932C19.6082 291.04 20.7571 301.294 21.8574 311.662L23.6858 316.789C22.4723 305.467 21.2587 294.227 19.9157 283.148C19.3817 282.371 18.8639 281.643 18.3623 280.932ZM56.6464 356.559C64.7369 420.736 78.1348 484.411 124.153 532.285C124.348 532.479 125.335 531.816 125.383 531.865C78.7335 483.344 65.5136 418.569 57.5526 353.503C57.2775 354.619 56.9701 355.637 56.6464 356.559ZM646.184 74.3956L644.695 74.5735C668.248 146.916 687.085 220.709 701.086 295.488C717.38 383.844 719.71 486.417 789.24 552.955C789.466 553.165 790.421 552.502 790.486 552.534C720.907 485.98 718.61 383.44 702.315 295.068C688.392 220.376 669.642 146.664 646.184 74.3956ZM1119.04 312.357C1098.27 214.866 1069.35 119.29 1032.59 26.6351L1031.19 26.8453C1067.96 119.587 1096.93 215.228 1117.81 312.778C1136.27 400.115 1141.63 501.83 1212.52 566.12C1212.74 566.33 1213.7 565.651 1213.75 565.7C1142.81 501.41 1137.47 399.759 1119.04 312.357ZM1089.28 311.112C1069.09 215.502 1041.05 121.718 1005.45 30.7108L1004.06 30.9211C1039.66 122.013 1067.75 215.863 1088.05 311.532C1106.34 398.999 1111.5 500.763 1182.29 565.182C1182.52 565.392 1183.47 564.713 1183.52 564.762C1112.68 500.31 1107.55 398.594 1089.25 311.112H1089.28ZM1208.33 316.061C1185.74 213.022 1154.07 112.185 1113.68 14.7314L1112.36 14.9254C1152.78 112.449 1184.47 213.363 1207.06 316.481C1225.98 403.657 1232 505.146 1303.18 568.951C1303.42 569.145 1304.36 568.465 1304.43 568.53C1233.21 504.709 1227.23 403.269 1208.29 316.061H1208.33ZM1029.72 308.653C1010.64 216.678 984.285 126.361 950.904 38.555L949.48 38.7491C982.862 126.644 1009.26 217.032 1028.43 309.074C1046.42 396.67 1051.08 498.531 1121.73 563.306C1121.95 563.5 1122.91 562.837 1122.96 562.885C1052.41 498.094 1047.71 396.265 1029.72 308.653ZM999.964 307.408C981.388 217.107 955.798 128.391 923.428 42.0647L921.972 42.2264C954.385 128.646 980.049 217.445 998.735 307.828C1016.53 395.505 1021.06 497.431 1091.56 562.368C1091.79 562.562 1092.75 561.899 1092.79 561.947C1022.28 496.994 1017.8 395.101 999.964 307.408ZM1059.48 309.883C1039.88 216.127 1012.72 124.112 978.266 34.738L976.858 34.9321C1011.31 124.388 1038.53 216.463 1058.25 310.271C1076.4 397.802 1081.32 499.598 1152.1 564.195C1152.31 564.39 1153.26 563.726 1153.33 563.775C1082.55 499.194 1077.63 397.43 1059.48 309.883ZM1178.54 314.815C1156.57 213.605 1125.83 114.498 1086.68 18.613L1085.35 18.8071C1124.55 114.761 1155.31 213.946 1177.29 315.236C1196.06 402.492 1201.85 504.03 1272.94 567.996C1273.16 568.206 1274.1 567.527 1274.17 567.592C1203.08 503.609 1197.31 402.104 1178.54 314.815ZM1336.08 370.323C1333.79 356.802 1331.46 342.909 1329.07 328.806C1328.52 326.202 1327.94 323.582 1327.35 320.994C1302.56 211.623 1267.55 104.819 1222.79 1.98659L1221.42 2.08363C1266.26 105.015 1301.32 211.928 1326.16 321.414C1329.7 337.345 1332.86 353.761 1336.08 370.323ZM1288 92.5261C1276.45 61.7425 1264.11 31.2499 1250.98 1.04852H1249.56C1263.79 33.6221 1277.06 66.5676 1289.34 99.8851C1288.94 97.3782 1288.44 94.936 1288 92.5261ZM1364.05 538.334C1363.91 537.461 1363.74 536.474 1363.58 535.423C1321.03 473.478 1313.66 391.753 1297.63 319.765C1273.34 211.697 1239.07 106.116 1195.25 4.38027L1193.91 4.50966C1237.77 106.318 1272.08 211.975 1296.4 320.12C1312.61 393.112 1319.94 476.098 1364.02 538.318L1364.05 538.334ZM590.667 81.6737L589.194 81.9001C611.002 151.12 628.49 221.627 641.556 293.013C657.543 381.515 659.452 484.217 728.787 551.079C728.998 551.289 729.969 550.61 730.017 550.658C660.666 483.781 658.821 381.095 642.786 292.609C629.788 221.289 612.382 150.842 590.667 81.6737ZM1267.9 318.519C1244.16 212.036 1210.72 107.946 1168 7.5503L1166.66 7.71202C1209.43 108.187 1242.91 212.364 1266.68 318.94C1285.9 406.002 1292.34 507.345 1363.76 570.827C1363.99 571.021 1364.94 570.358 1364.99 570.406C1293.49 506.909 1287.06 405.598 1267.9 318.519ZM1238.15 317.29C1214.94 212.5 1182.34 110.009 1140.75 11.06L1139.41 11.2379C1181.03 110.265 1213.63 212.837 1236.84 317.711C1255.9 404.821 1262.13 506.246 1333.42 569.888C1333.65 570.083 1334.59 569.403 1334.65 569.468C1263.34 505.809 1257.14 404.433 1238.07 317.29H1238.15ZM732.169 296.264C717.774 220.04 698.363 144.847 674.063 71.177L672.559 71.355C696.922 145.111 716.382 220.396 730.81 296.717C747.25 385.009 749.807 487.565 819.433 553.877C819.644 554.071 820.614 553.408 820.663 553.456C751.069 487.096 748.496 384.669 732.088 296.313L732.169 296.264ZM761.926 297.494C747.15 219.682 727.148 142.954 702.057 67.8291L700.552 68.007C725.77 143.193 745.89 219.992 760.777 297.882C777.379 386.092 780.194 488.536 849.87 554.75C850.08 554.96 851.051 554.297 851.099 554.346C781.198 488.18 778.447 385.769 761.845 297.542L761.926 297.494ZM563.191 86.2831L561.719 86.5419C582.528 153.887 599.252 222.425 611.799 291.784C627.624 380.351 629.307 483.117 698.545 550.141C698.756 550.351 699.727 549.672 699.791 549.72C630.537 482.681 628.854 379.898 613.029 291.364C600.546 222.066 583.904 153.582 563.191 86.2831ZM535.684 91.3455L534.228 91.6204C554.042 156.941 570.008 223.366 582.042 290.555C597.706 379.186 599.178 482.018 668.319 549.203C668.53 549.397 669.5 548.734 669.549 548.782C600.392 481.581 598.935 378.766 583.272 290.135C571.281 223.005 555.392 156.63 535.684 91.3455ZM910.661 303.801C893.535 218.038 870.073 133.661 840.469 51.3644L838.98 51.5424C868.649 133.889 892.197 218.313 909.432 304.125C926.81 392.012 930.661 494.132 1000.92 559.537C1001.13 559.748 1002.1 559.068 1002.15 559.117C931.875 493.695 928.105 391.607 910.661 303.801ZM880.905 302.556C864.267 218.352 841.521 135.471 812.848 54.5668L811.359 54.7447C840.104 135.702 862.936 218.636 879.675 302.896C896.892 390.831 900.597 493.032 970.628 558.599C970.855 558.81 971.809 558.13 971.874 558.179C901.746 492.595 898.121 390.427 880.905 302.475V302.556ZM940.434 305.03C922.811 217.712 898.627 131.846 868.089 48.1621L866.617 48.3238C897.21 132.11 921.474 218.07 939.205 305.483C956.729 393.29 960.79 495.345 1031.1 560.589C1031.32 560.799 1032.28 560.12 1032.34 560.184C962.085 494.795 957.958 392.756 940.434 304.95V305.03ZM791.57 298.852C776.332 219.443 755.658 141.173 729.694 64.5944L728.189 64.7723C754.254 141.4 775.036 219.724 790.388 299.192C807.136 387.338 810.113 489.716 879.934 555.785C880.16 555.979 881.115 555.316 881.18 555.365C811.343 489.296 808.365 386.933 791.618 298.771L791.57 298.852ZM821.326 300.081C805.647 219.06 784.306 139.237 757.46 61.198L755.971 61.3759C782.901 139.451 804.345 219.311 820.145 300.372C837.038 388.454 840.258 490.768 910.176 556.675C910.386 556.869 911.357 556.206 911.406 556.254C841.472 490.396 838.284 388.098 821.31 300L821.326 300.081ZM970.191 306.26C952.101 217.405 927.212 130.07 895.743 45.0244L894.27 45.1862C925.785 130.309 950.755 217.711 968.962 306.632C986.647 394.373 990.919 496.267 1061.34 561.414C1061.55 561.624 1062.5 560.945 1062.57 561.009C992.149 495.895 987.877 393.936 970.175 306.179L970.191 306.26ZM851.132 301.327C834.989 218.739 812.96 137.41 785.211 57.9633L783.706 58.1412C811.537 137.661 833.658 219.065 849.902 301.731C866.957 389.667 870.387 491.916 940.402 557.726C940.629 557.92 941.583 557.257 941.632 557.305C871.601 491.495 868.235 389.262 851.132 301.246V301.327Z" fill="#32592B"/>
</g>
<path opacity="0.7" d="M20.9887 545.574L1421.94 581C1423.89 574.674 1425 571.267 1425 571.267L1421.42 559.524L16 524C16.5375 526.66 18.0996 534.138 20.9887 545.574Z" fill="url(#paint2_linear)"/>
<g style="mix-blend-mode:multiply" opacity="0.3">
<path d="M1270.07 5.51242C1260.36 -13.7826 998.233 34.4469 919.432 42.4851C840.63 50.5234 744.111 63.3975 629.906 76.2555C515.7 89.1135 309.83 143.78 237.452 148.535C165.075 153.29 34.7859 185.573 23.5887 209.687C12.3914 233.802 46.1126 298.124 55.7564 322.223C65.4003 346.322 50.9021 383.327 47.6659 344.736C44.4297 306.146 0.935303 259.534 0.935303 259.534C0.935303 259.534 12.262 282.032 29.8992 335.097C47.5365 388.162 42.8278 423.485 42.8278 423.485L37.9735 399.371C33.1192 375.256 15.4496 346.321 15.4496 346.321C15.4496 346.321 27.6177 416.596 34.6079 466.976C47.3585 476.098 59.1382 484.104 59.1382 483.797C58.6528 463.175 65.7401 440.743 83.2155 429.809C100.691 418.876 128.975 426.267 133.376 446.403L141.467 396.799C142.713 389.117 146.321 379.364 154.137 379.833C161.434 380.286 164.234 389.359 165.463 396.557C172.035 435.179 186.637 471.996 208.327 504.628C213.861 512.974 221.369 521.837 231.385 521.934C250.106 522.112 253.941 495.587 251.336 477.052C246.956 445.783 242.56 414.515 238.148 383.246C236.53 371.342 234.831 358.985 238.148 347.454C241.465 335.922 251.19 325.263 263.213 324.811C267.921 324.665 272.921 325.991 277.161 323.84C280.85 321.932 282.759 317.856 284.571 314.136C295.05 292.627 310.189 273.72 328.891 258.79C331.787 256.477 335.153 254.148 338.842 254.504C343.697 254.989 346.933 259.825 349.198 264.208L381.188 323.08C395.977 304.61 427.951 313.376 441.64 332.784C455.329 352.192 457.141 377.019 462.465 400.066C472.197 441.644 494.401 479.259 526.105 507.879L496.882 397.446C488.387 365.342 479.827 332.542 482.06 299.402C484.293 266.262 499.26 232.152 527.965 215.445C545.376 205.32 570.327 203.719 583.499 218.939C589.971 226.524 592.447 236.729 594.728 246.434C616.719 340.504 647.496 432.303 686.652 520.624C650.656 402.376 627.815 280.521 618.547 157.269C667.866 267.249 671.944 391.931 709.969 506.262C716.538 526.026 725.762 547.294 744.693 555.947C709.706 474.724 685.945 389.119 674.063 301.488C669.953 271.147 669.096 235.646 691.976 215.283C712.655 322.579 733.933 431.734 785.388 528.161C754.815 410.85 741.901 289.641 747.072 168.526C755.259 187.772 763.436 207.024 771.602 226.281C796.038 190.863 810.888 149.726 814.708 106.872L837.362 157.851C839.142 149.947 842.56 142.504 847.396 136.002C852.231 129.5 858.377 124.084 865.436 120.102C862.85 115.915 861.545 111.063 861.682 106.144C871.689 99.5857 882.953 95.1794 894.756 93.2054L974.042 408.59C986.129 456.56 998.831 505.971 1028.43 545.596C993.65 435.795 971.926 322.284 963.703 207.407L1034.9 401.489C1046.05 431.831 1058.1 463.531 1082.55 484.654C1091.32 393.484 1027.89 307.359 1034.49 215.995C1035.66 199.627 1039.11 183.244 1037.29 166.941C1035.48 150.638 1028.38 135.046 1027.1 118.598C1025.82 102.149 1033.04 82.8705 1048.99 78.7139C1060.52 86.477 1068.51 98.4734 1071.24 112.096C1076.84 103.637 1090.24 101.826 1097.89 108.489C1093.22 87.7388 1103.64 64.4974 1122.16 54.1786C1154.2 69.1392 1191.74 58.9336 1225.53 48.5341C1241.21 43.682 1257.27 38.6844 1270.07 28.4465C1271.68 27.1432 1273.22 25.7557 1274.68 24.2899C1272.65 13.955 1271.01 7.37238 1270.07 5.51242Z" fill="#20B24B"/>
</g>
<g style="mix-blend-mode:multiply" opacity="0.3">
<path d="M1198.08 772.64C1195.18 776.621 1192.83 780.973 1191.09 785.579C1186.89 797.337 1188.55 810.227 1188.23 822.697C1187.42 854.397 1173.67 884.157 1165.58 914.773C1163.73 921.89 1162.53 930.397 1167.57 935.799C1172.6 941.201 1181.22 940.457 1187.15 936.527C1193.07 932.597 1196.74 926.176 1200.09 919.916C1226.89 869.976 1246.28 816.403 1257.65 760.882L1266.97 777.686C1280.09 757.666 1290.14 735.787 1296.76 712.782C1309.88 667.124 1328.55 645.613 1361.14 612.199C1365.28 597.4 1368.6 586.111 1370.67 579.204C1251.43 599.583 1127.96 579.204 1006.39 580.159C942.36 580.692 878.397 587.227 814.385 585.447C741.409 583.41 669.047 570.568 596.071 568.481C538.143 566.864 480.232 571.975 422.288 571.846C379.295 571.748 336.367 568.756 293.471 565.764C203.343 565.764 112.244 551.564 22.2133 546.809C21.6793 546.809 21.2101 546.809 20.7085 546.809C22.3266 553.278 24.3007 561.09 26.744 569.889C32.197 589.539 31.7439 665.587 42.9249 745.097C50.1557 734.629 56.7583 723.741 62.6981 712.491C55.2553 725.2 48.9992 738.567 44.0091 752.423C49.2841 787.584 56.9538 823.102 68.507 854.446C74.7985 871.904 84.5446 887.917 97.1635 901.527C109.798 884.138 119.435 864.759 125.674 844.192L119.849 921.032C136.499 932.532 155.318 940.602 174.978 946.506C177.92 940.466 180.524 934.268 182.777 927.939C197.512 888.896 213.958 850.564 232.113 812.945C241.53 793.407 251.4 774.09 261.724 754.995C269.394 740.827 275.72 715.968 286.691 705.277C299.539 751.388 262.792 797.968 261.352 843.917C261.255 847.055 261.772 850.92 264.701 852.004C267.161 852.958 269.847 851.308 271.821 849.545C290.898 832.547 289.329 802.982 295.995 778.382C300.186 762.871 309.215 750.628 318.471 737.851C327.338 725.624 331.027 712.41 339.506 700.781C327.144 745.921 311.626 790.463 297.613 835.167C294.232 845.906 291.335 859.007 298.956 867.288C316.755 843.561 319.005 812.168 325.072 783.185C333.681 742.007 351.172 700.894 376.852 667.706C389.796 686.354 361.48 712.022 372.725 733.549C385.832 724.443 391.706 708.108 395.233 692.533C398.76 676.957 400.913 660.541 409.472 647.052C418.032 633.564 432.126 624.571 445.669 616.048C445.669 629.585 439.472 642.249 433.97 654.622C415.912 695.298 404.521 738.546 393.21 781.584C391.706 787.261 391.172 795.04 396.608 797.272C393.372 795.946 483.808 605.406 505.587 592.111C507.61 615.207 496.202 637.041 486.817 658.245C475.682 683.47 467.012 709.713 460.928 736.605C460.07 740.422 459.52 745.08 462.546 747.604C483.775 730.799 491.51 702.722 501.073 677.394C508.225 658.439 518.208 639.839 534.794 627.563C547.318 618.296 581.897 610.031 585.634 592.984L572.576 652.535C579.673 644.887 588.937 639.588 599.129 637.348C598.87 647.764 598.617 658.169 598.369 668.563C613.433 656.029 756.441 577.005 760.874 607.88C761.748 614.01 757.848 619.687 754.094 624.62C736.473 647.877 717.898 671.006 707.17 698.129C698.695 719.455 695.369 742.478 697.461 765.33C720.47 749.722 728.787 720.416 736.943 693.843C745.098 667.269 757.298 638.254 783.075 627.822C783.922 627.358 784.859 627.082 785.822 627.013C786.785 626.943 787.752 627.081 788.657 627.418C792.233 629.343 790.194 634.728 788.01 638.157C782.991 646.064 779.5 654.842 777.719 664.035C777.104 667.172 777.719 671.653 780.842 671.879C788.932 672.429 814.822 641.699 823.786 636.297C837.313 628.21 850.209 624.976 865.711 621.87C892.724 616.345 920.125 612.922 947.667 611.632C992.974 609.837 1065.71 615.611 1061.69 677.297C1060.63 693.746 1054.48 709.385 1049.27 725.025C1035.67 765.886 1028.11 808.509 1026.81 851.551C1034.15 809.807 1043.69 764.214 1076.97 737.899C1073.28 836.898 1025.09 931.157 1027.94 1030.19C1058.2 992.794 1062.41 941.589 1070.04 894.136C1081.54 822.621 1103.37 753.157 1134.86 687.923C1138.6 680.192 1142.52 672.445 1147.96 665.781C1160.03 650.983 1180.9 633.661 1198.76 626.593C1198.76 637.72 1196.71 650.853 1195.37 662.579C1196.04 656.66 1215.59 669.049 1216.98 670.31C1224.09 677.054 1226.35 687.939 1227.53 697.207C1230.15 718.071 1222.06 740.002 1209.96 757.049C1206.17 762.273 1201.84 767.303 1198.08 772.64Z" fill="#20B24B"/>
</g>
<defs>
<linearGradient id="paint0_linear" x1="687.009" y1="1076.78" x2="687.009" y2="69.2364" gradientUnits="userSpaceOnUse">
<stop stop-color="#2C592B"/>
<stop offset="0.19" stop-color="#315F2D"/>
<stop offset="0.44" stop-color="#3D7033"/>
<stop offset="0.73" stop-color="#528D3D"/>
<stop offset="1" stop-color="#2C592B"/>
</linearGradient>
<linearGradient id="paint1_linear" x1="823250" y1="692035" x2="823250" y2="261108" gradientUnits="userSpaceOnUse">
<stop stop-color="#2C592B"/>
<stop offset="0.19" stop-color="#315F2D"/>
<stop offset="0.44" stop-color="#3D7033"/>
<stop offset="0.73" stop-color="#528D3D"/>
<stop offset="1" stop-color="#6AAD49"/>
</linearGradient>
<linearGradient id="paint2_linear" x1="720.231" y1="563.287" x2="720.576" y2="541.486" gradientUnits="userSpaceOnUse">
<stop stop-color="#A0C866"/>
<stop offset="0.27" stop-color="#9BC560"/>
<stop offset="0.63" stop-color="#8CBC4F"/>
<stop offset="0.85" stop-color="#80B541"/>
<stop offset="1" stop-color="#66943F"/>
</linearGradient>
</defs>
</svg>
